<svg id="Layer_1" data-name="Layer 1" xmlns="http://www.w3.org/2000/svg" viewBox="0 0 198.98 88.92"><defs><style>.cls-1{fill:#086778;}.cls-2{fill:#f9f5d8;}.cls-3{fill:none;stroke:#f9f5d8;stroke-linecap:round;stroke-miterlimit:10;stroke-width:6px;}</style></defs><rect class="cls-1" width="198.98" height="88.92" rx="20.45"/><path class="cls-2" d="M76.7,33.1a48.57,48.57,0,0,1,7.88-.56c3.72,0,6,.36,8,1.52a5.87,5.87,0,0,1,3.24,5.28c0,2.4-1.4,4.64-4.44,5.76v.08a6.74,6.74,0,0,1,5.36,6.63,7.18,7.18,0,0,1-2.8,5.72c-2,1.56-5.24,2.44-10.6,2.44a47.17,47.17,0,0,1-6.6-.4Zm6,10.32h2c3.2,0,4.92-1.32,4.92-3.32S88.1,37,85.34,37a16.65,16.65,0,0,0-2.6.16Zm0,11.95a19.23,19.23,0,0,0,2.36.08c2.76,0,5.2-1,5.2-3.87s-2.44-3.8-5.48-3.8H82.74Z"/><path class="cls-2" d="M111.9,59.69l-.36-2h-.12a7,7,0,0,1-5.6,2.4,6,6,0,0,1-6.32-6c0-5.07,4.56-7.51,11.48-7.47v-.28c0-1-.56-2.52-3.56-2.52a11,11,0,0,0-5.4,1.48l-1.12-3.92a16.15,16.15,0,0,1,7.6-1.72c6.52,0,8.6,3.84,8.6,8.44v6.79a30.31,30.31,0,0,0,.28,4.76Zm-.72-9.23c-3.2,0-5.68.72-5.68,3.07a2.18,2.18,0,0,0,2.4,2.32,3.32,3.32,0,0,0,3.16-2.24,4.34,4.34,0,0,0,.12-1Z"/><path class="cls-2" d="M136.58,59.21a14.83,14.83,0,0,1-5.44.88c-6.32,0-10.36-3.84-10.36-10,0-5.72,3.92-10.4,11.2-10.4a14.1,14.1,0,0,1,4.64.76l-1,4.52a8.32,8.32,0,0,0-3.4-.6A5.06,5.06,0,0,0,127,49.86a5.09,5.09,0,0,0,5.36,5.47,9.38,9.38,0,0,0,3.48-.6Z"/><path class="cls-2" d="M146,48.38h.08c.44-.8.92-1.6,1.4-2.36l4-5.88h7.31l-7,7.92,8,11.63H152.3l-4.72-8L146,53.57v6.12h-6.08V31.3H146Z"/><line class="cls-3" x1="52.02" y1="31.22" x2="37" y2="46.24"/><line class="cls-3" x1="37" y1="46.24" x2="52.02" y2="61.26"/></svg>