<svg id="Layer_1" data-name="Layer 1" xmlns="http://www.w3.org/2000/svg" viewBox="0 0 403.5 88.92"><defs><style>.cls-1{fill:#d69929;}.cls-2{fill:none;stroke:#f9f5d8;stroke-linecap:round;stroke-miterlimit:10;stroke-width:6px;}.cls-3{fill:#f9f5d8;}</style></defs><rect class="cls-1" width="403.5" height="88.92" rx="16.1"/><line class="cls-2" x1="348.1" y1="61.2" x2="363.12" y2="46.19"/><line class="cls-2" x1="363.12" y1="46.19" x2="348.1" y2="31.17"/><path class="cls-3" d="M38.3,32.1a54.42,54.42,0,0,1,8.24-.56c5.12,0,8.43.92,11,2.88,2.8,2.08,4.56,5.4,4.56,10.16,0,5.16-1.88,8.72-4.48,10.92C54.81,57.85,50.5,59,45.22,59a52.79,52.79,0,0,1-6.92-.4Zm6.12,22a11.22,11.22,0,0,0,2.12.12c5.52,0,9.11-3,9.11-9.43,0-5.6-3.23-8.56-8.47-8.56a12.68,12.68,0,0,0-2.76.24Z"/><path class="cls-3" d="M85.25,48.7c0,7.15-5.07,10.43-10.31,10.43-5.72,0-10.12-3.75-10.12-10.07S69,38.7,75.26,38.7C81.25,38.7,85.25,42.82,85.25,48.7Zm-14.15.2c0,3.35,1.4,5.87,4,5.87,2.36,0,3.88-2.35,3.88-5.87C79,46,77.86,43,75.1,43,72.18,43,71.1,46,71.1,48.9Z"/><path class="cls-3" d="M103.81,58.21a14.77,14.77,0,0,1-5.43.88c-6.32,0-10.36-3.84-10.36-10,0-5.72,3.92-10.4,11.2-10.4a14,14,0,0,1,4.63.76l-1,4.52a8.23,8.23,0,0,0-3.39-.6,5.06,5.06,0,0,0-5.24,5.48,5.09,5.09,0,0,0,5.36,5.48,9.59,9.59,0,0,0,3.48-.6Z"/><path class="cls-3" d="M125.61,52.42c0,2.55.08,4.63.16,6.27h-5.28l-.28-2.76h-.12a7,7,0,0,1-6.11,3.2c-4,0-6.88-2.48-6.88-8.51V39.14h6.12V49.66c0,2.84.92,4.55,3,4.55a3.27,3.27,0,0,0,3-2.12,3.34,3.34,0,0,0,.2-1.31V39.14h6.12Z"/><path class="cls-3" d="M130.5,45.38c0-2.44-.08-4.52-.16-6.24h5.12l.28,2.64h.12a6.76,6.76,0,0,1,5.91-3.08A5.54,5.54,0,0,1,147.13,42h.08a8.75,8.75,0,0,1,2.52-2.36,7.06,7.06,0,0,1,3.72-1c3.76,0,6.6,2.64,6.6,8.48V58.69h-5.92V48.06c0-2.84-.92-4.48-2.88-4.48a3,3,0,0,0-2.8,2.12,5.09,5.09,0,0,0-.24,1.56V58.69h-5.92V47.74c0-2.48-.88-4.16-2.8-4.16a3.07,3.07,0,0,0-2.83,2.2,3.85,3.85,0,0,0-.25,1.52V58.69H130.5Z"/><path class="cls-3" d="M169.57,50.86c.2,2.52,2.68,3.72,5.52,3.72a17.23,17.23,0,0,0,5.4-.8l.8,4.11a19.31,19.31,0,0,1-7.08,1.2c-6.63,0-10.43-3.84-10.43-10,0-5,3.08-10.44,9.87-10.44,6.32,0,8.72,4.92,8.72,9.76a14.44,14.44,0,0,1-.2,2.4Zm7.16-4.16c0-1.48-.64-4-3.44-4-2.56,0-3.6,2.32-3.76,4Z"/><path class="cls-3" d="M186,45.38c0-2.44-.08-4.52-.16-6.24h5.27l.28,2.68h.12a7.16,7.16,0,0,1,6-3.12c4,0,7,2.64,7,8.4V58.69h-6.08V47.86c0-2.52-.88-4.24-3.08-4.24a3.25,3.25,0,0,0-3.08,2.28,4.18,4.18,0,0,0-.24,1.52V58.69H186Z"/><path class="cls-3" d="M216,33.54v5.6h4.36v4.48H216V50.7c0,2.35.56,3.43,2.4,3.43a9.93,9.93,0,0,0,1.8-.16l0,4.6a11.93,11.93,0,0,1-4,.52,6.3,6.3,0,0,1-4.55-1.68c-1.12-1.16-1.68-3-1.68-5.79v-8h-2.6V39.14h2.6V34.9Z"/><path class="cls-3" d="M235,58.69l-.36-2h-.12a7,7,0,0,1-5.6,2.4,6,6,0,0,1-6.31-6c0-5.07,4.56-7.51,11.47-7.47v-.28c0-1-.56-2.52-3.56-2.52a10.93,10.93,0,0,0-5.39,1.48L224,40.42a16.13,16.13,0,0,1,7.59-1.72c6.52,0,8.6,3.84,8.6,8.44v6.79a30.31,30.31,0,0,0,.28,4.76Zm-.72-9.23c-3.2,0-5.68.72-5.68,3.08a2.18,2.18,0,0,0,2.4,2.31,3.33,3.33,0,0,0,3.16-2.23,4.36,4.36,0,0,0,.12-1Z"/><path class="cls-3" d="M251.49,33.54v5.6h4.36v4.48h-4.36V50.7c0,2.35.56,3.43,2.4,3.43a9.93,9.93,0,0,0,1.8-.16l0,4.6a11.93,11.93,0,0,1-4,.52,6.32,6.32,0,0,1-4.56-1.68c-1.11-1.16-1.68-3-1.68-5.79v-8h-2.59V39.14h2.59V34.9Z"/><path class="cls-3" d="M265.65,33.7a3.05,3.05,0,0,1-3.28,3,3.06,3.06,0,1,1,0-6.12A3,3,0,0,1,265.65,33.7Zm-6.28,25V39.14h6.08V58.69Z"/><path class="cls-3" d="M289.65,48.7c0,7.15-5.08,10.43-10.32,10.43-5.72,0-10.12-3.75-10.12-10.07s4.16-10.36,10.44-10.36C285.65,38.7,289.65,42.82,289.65,48.7Zm-14.16.2c0,3.35,1.4,5.87,4,5.87,2.36,0,3.88-2.35,3.88-5.87,0-2.92-1.12-5.88-3.88-5.88C276.57,43,275.49,46,275.49,48.9Z"/><path class="cls-3" d="M293.41,45.38c0-2.44-.08-4.52-.15-6.24h5.27l.28,2.68h.12a7.16,7.16,0,0,1,6-3.12c4,0,7,2.64,7,8.4V58.69h-6.08V47.86c0-2.52-.88-4.24-3.08-4.24a3.25,3.25,0,0,0-3.08,2.28,4.18,4.18,0,0,0-.24,1.52V58.69h-6.08Z"/></svg>