<svg id="Layer_1" data-name="Layer 1" xmlns="http://www.w3.org/2000/svg" viewBox="0 0 393.2 88.92"><defs><style>.cls-1{fill:#d69929;}.cls-2{fill:#f9f5d8;}</style></defs><rect class="cls-1" width="393.71" height="88.92" rx="16.1"/><path class="cls-2" d="M60.81,57.46a30.2,30.2,0,0,1-9,1.51c-4.92,0-8.48-1.23-11-3.63a13,13,0,0,1-3.8-9.8c0-9,6.56-14.08,15.4-14.08a18.55,18.55,0,0,1,7.47,1.32l-1.28,4.88a14.92,14.92,0,0,0-6.27-1.16c-5.08,0-8.92,2.88-8.92,8.72,0,5.56,3.48,8.84,8.48,8.84a8.1,8.1,0,0,0,3-.4V48H50.78V43.26h10Z"/><path class="cls-2" d="M71.78,33.7a3.05,3.05,0,0,1-3.28,3,3.06,3.06,0,1,1,0-6.12A3,3,0,0,1,71.78,33.7Zm-6.28,25V39.14h6.08V58.7Z"/><path class="cls-2" d="M83.26,33.54v5.6h4.35v4.48H83.26V50.7c0,2.36.56,3.44,2.4,3.44A9.9,9.9,0,0,0,87.45,54l0,4.6a11.86,11.86,0,0,1-3.95.52A6.32,6.32,0,0,1,79,57.42c-1.12-1.16-1.68-3-1.68-5.8v-8H74.7V39.14h2.6V34.9Z"/><path class="cls-2" d="M91.14,30.3h6.07V41.46h.08a7.3,7.3,0,0,1,2.4-2,6.83,6.83,0,0,1,3.16-.76c3.88,0,6.84,2.68,6.84,8.56V58.7h-6.08V47.94c0-2.56-.88-4.32-3.16-4.32a3.23,3.23,0,0,0-3,2.12,3.87,3.87,0,0,0-.2,1.36V58.7H91.14Z"/><path class="cls-2" d="M133,52.42c0,2.56.08,4.64.16,6.28h-5.28l-.28-2.76h-.12a7,7,0,0,1-6.12,3.2c-4,0-6.87-2.48-6.87-8.52V39.14h6.11V49.66c0,2.84.92,4.56,3,4.56a3.27,3.27,0,0,0,3-2.12,3.4,3.4,0,0,0,.2-1.32V39.14H133Z"/><path class="cls-2" d="M137.74,58.7c.08-1.28.16-3.64.16-5.84V30.3H144V41.46h.08A6.89,6.89,0,0,1,150,38.7c4.68,0,8.12,3.88,8.08,9.88,0,7-4.48,10.56-9,10.56A6.49,6.49,0,0,1,143.21,56h-.08l-.24,2.72ZM144,50.38a4.46,4.46,0,0,0,.12,1.08,3.68,3.68,0,0,0,3.56,2.88c2.6,0,4.2-2,4.2-5.52,0-3-1.36-5.44-4.2-5.44a3.77,3.77,0,0,0-3.56,3A5.06,5.06,0,0,0,144,47.5Z"/><path class="cls-2" d="M192.89,48.38c-.12-3.24-.24-7.16-.24-11.08h-.12c-.84,3.44-2,7.28-3,10.44l-3.28,10.52h-4.76l-2.88-10.44c-.88-3.16-1.8-7-2.44-10.52h-.08c-.16,3.64-.28,7.8-.48,11.16l-.48,10.24h-5.64l1.72-27h8.12l2.64,9c.84,3.12,1.68,6.48,2.28,9.64h.12c.76-3.12,1.68-6.68,2.56-9.68l2.88-9h8l1.48,27h-6Z"/><path class="cls-2" d="M215,58.7l-.36-2h-.12a7,7,0,0,1-5.6,2.4,6,6,0,0,1-6.32-6c0-5.08,4.56-7.52,11.48-7.48v-.28c0-1-.56-2.52-3.56-2.52a11,11,0,0,0-5.4,1.48L204,40.42a16.15,16.15,0,0,1,7.6-1.72c6.52,0,8.6,3.84,8.6,8.44v6.8a30.31,30.31,0,0,0,.28,4.76Zm-.72-9.24c-3.2,0-5.68.72-5.68,3.08a2.18,2.18,0,0,0,2.4,2.32,3.32,3.32,0,0,0,3.16-2.24,4.36,4.36,0,0,0,.12-1Z"/><path class="cls-2" d="M225,45.58c0-2.88-.08-4.76-.16-6.44h5.24l.2,3.6h.16a5.75,5.75,0,0,1,5.28-4,6.27,6.27,0,0,1,1.28.08V44.5a8.72,8.72,0,0,0-1.64-.16,3.91,3.91,0,0,0-4.16,3.08,7.17,7.17,0,0,0-.12,1.36V58.7H225Z"/><path class="cls-2" d="M246.13,47.38h.08c.44-.8.92-1.6,1.4-2.36l4-5.88h7.32l-7,7.92,8,11.64h-7.48l-4.72-8-1.56,1.92V58.7h-6.08V30.3h6.08Z"/><path class="cls-2" d="M280.13,30.3V52.86c0,2.2.08,4.52.16,5.84h-5.4l-.28-2.88h-.08a6.83,6.83,0,0,1-6.12,3.32c-4.64,0-8.36-4-8.36-10,0-6.6,4.08-10.4,8.76-10.4,2.4,0,4.28.84,5.16,2.2h.08V30.3Zm-6.08,17.12a9.81,9.81,0,0,0-.08-1.08,3.65,3.65,0,0,0-3.56-3c-2.76,0-4.2,2.48-4.2,5.56,0,3.32,1.64,5.4,4.16,5.4a3.56,3.56,0,0,0,3.52-2.92,5.18,5.18,0,0,0,.16-1.4Z"/><path class="cls-2" d="M304.33,48.7c0,7.16-5.08,10.44-10.32,10.44-5.72,0-10.12-3.76-10.12-10.08s4.16-10.36,10.44-10.36C300.33,38.7,304.33,42.82,304.33,48.7Zm-14.16.2c0,3.36,1.4,5.88,4,5.88,2.36,0,3.88-2.36,3.88-5.88,0-2.92-1.12-5.88-3.88-5.88C291.25,43,290.17,46,290.17,48.9Z"/><path class="cls-2" d="M311.93,39.14l1.56,8c.4,2,.8,4.2,1.12,6.44h.08c.4-2.24,1-4.48,1.44-6.4l2.08-8H323l2,7.8c.52,2.2,1,4.4,1.44,6.64h.08c.28-2.24.68-4.44,1.12-6.68l1.68-7.76h6l-6,19.56h-5.72l-1.84-6.88c-.48-1.92-.84-3.68-1.24-6.08h-.08a45.78,45.78,0,0,1-1.28,6.08l-2,6.88h-5.72l-5.68-19.56Z"/><path class="cls-2" d="M338.09,45.38c0-2.44-.08-4.52-.16-6.24h5.28l.28,2.68h.12a7.16,7.16,0,0,1,6-3.12c4,0,7,2.64,7,8.4V58.7h-6.08V47.86c0-2.52-.88-4.24-3.08-4.24a3.25,3.25,0,0,0-3.08,2.28,4.18,4.18,0,0,0-.24,1.52V58.7h-6.08Z"/></svg>