<svg id="Layer_1" data-name="Layer 1" xmlns="http://www.w3.org/2000/svg" viewBox="0 0 356.14 88.92"><defs><style>.cls-1{fill:#8f4071;}.cls-2{fill:#f9f5d8;}</style></defs><rect class="cls-1" width="356.14" height="88.92" rx="16.1"/><path class="cls-2" d="M38.3,32.1a49.91,49.91,0,0,1,8.24-.56c3.76,0,6.44.72,8.24,2.16a7.9,7.9,0,0,1,2.87,6.24,8.65,8.65,0,0,1-2.47,6.4c-2.08,2-5.16,2.84-8.76,2.84a15.35,15.35,0,0,1-2.08-.12v9.63h-6Zm6,12.24a9.32,9.32,0,0,0,2,.16c3.24,0,5.24-1.64,5.24-4.4,0-2.48-1.72-4-4.76-4a10.39,10.39,0,0,0-2.52.24Z"/><path class="cls-2" d="M66.22,39.14l2.92,9.6c.32,1.16.72,2.6,1,3.64h.12c.28-1,.6-2.52.88-3.64l2.4-9.6H80L75.46,52c-2.8,7.75-4.68,10.87-6.88,12.83a11.21,11.21,0,0,1-5.88,2.68l-1.28-5.16a7.67,7.67,0,0,0,2.64-1,7,7,0,0,0,2.52-2.44A1.59,1.59,0,0,0,66.9,58a2.21,2.21,0,0,0-.28-1L59.46,39.14Z"/><path class="cls-2" d="M89.38,33.54v5.6h4.36v4.48H89.38V50.7c0,2.36.56,3.44,2.4,3.44a9.93,9.93,0,0,0,1.8-.16l0,4.59a11.93,11.93,0,0,1-4,.52,6.32,6.32,0,0,1-4.56-1.68c-1.12-1.16-1.68-3-1.68-5.79v-8h-2.6V39.14h2.6V34.9Z"/><path class="cls-2" d="M97.26,30.3h6.08V41.46h.08a7.3,7.3,0,0,1,2.4-2A6.83,6.83,0,0,1,109,38.7c3.87,0,6.83,2.68,6.83,8.56V58.69h-6.07V47.94c0-2.56-.88-4.32-3.16-4.32a3.23,3.23,0,0,0-3,2.12,3.87,3.87,0,0,0-.2,1.36V58.69H97.26Z"/><path class="cls-2" d="M140,48.7c0,7.15-5.08,10.43-10.31,10.43-5.72,0-10.12-3.76-10.12-10.07S123.74,38.7,130,38.7C136,38.7,140,42.82,140,48.7Zm-14.15.2c0,3.36,1.4,5.87,4,5.87,2.35,0,3.87-2.35,3.87-5.87,0-2.92-1.12-5.88-3.87-5.88C126.94,43,125.86,46,125.86,48.9Z"/><path class="cls-2" d="M143.78,45.38c0-2.44-.08-4.52-.16-6.24h5.28l.28,2.68h.12a7.15,7.15,0,0,1,6-3.12c4,0,7,2.64,7,8.4V58.69h-6.08V47.86c0-2.52-.88-4.24-3.07-4.24a3.25,3.25,0,0,0-3.08,2.28,4.18,4.18,0,0,0-.24,1.52V58.69h-6.08Z"/><path class="cls-2" d="M175.5,32.1a49.86,49.86,0,0,1,8.23-.56c3.76,0,6.44.72,8.24,2.16a7.88,7.88,0,0,1,2.88,6.24,8.62,8.62,0,0,1-2.48,6.4c-2.08,2-5.16,2.84-8.76,2.84a15.19,15.19,0,0,1-2.07-.12v9.63h-6Zm6,12.24a9.22,9.22,0,0,0,2,.16c3.24,0,5.24-1.64,5.24-4.4,0-2.48-1.72-4-4.76-4a10.35,10.35,0,0,0-2.51.24Z"/><path class="cls-2" d="M198.18,45.58c0-2.88-.08-4.76-.16-6.44h5.24l.2,3.6h.16a5.74,5.74,0,0,1,5.27-4,6.27,6.27,0,0,1,1.28.08V44.5a8.72,8.72,0,0,0-1.64-.16,3.9,3.9,0,0,0-4.15,3.08,7.17,7.17,0,0,0-.12,1.36v9.91h-6.08Z"/><path class="cls-2" d="M232.37,48.7c0,7.15-5.08,10.43-10.32,10.43-5.71,0-10.11-3.76-10.11-10.07S216.1,38.7,222.37,38.7C228.37,38.7,232.37,42.82,232.37,48.7Zm-14.15.2c0,3.36,1.4,5.87,4,5.87,2.35,0,3.87-2.35,3.87-5.87C226.09,46,225,43,222.22,43,219.3,43,218.22,46,218.22,48.9Z"/><path class="cls-2" d="M232.1,62.29A5.39,5.39,0,0,0,235.7,61c.88-.92,1.2-2.48,1.2-6.36V39.14H243v17c0,4.28-1,6.88-2.75,8.56s-4.64,2.4-7.56,2.4ZM243.18,33.7a3,3,0,0,1-3.28,3,3.07,3.07,0,1,1,3.28-3Z"/><path class="cls-2" d="M252.45,50.85c.21,2.52,2.68,3.72,5.52,3.72a17.23,17.23,0,0,0,5.4-.8l.8,4.12a19.31,19.31,0,0,1-7.08,1.2c-6.63,0-10.43-3.84-10.43-10,0-5,3.08-10.44,9.87-10.44,6.32,0,8.72,4.92,8.72,9.76a14.19,14.19,0,0,1-.2,2.39Zm7.16-4.15c0-1.48-.64-4-3.44-4-2.56,0-3.6,2.32-3.76,4Z"/><path class="cls-2" d="M283.57,58.21a14.83,14.83,0,0,1-5.44.88c-6.31,0-10.35-3.84-10.35-10,0-5.72,3.92-10.4,11.19-10.4a14.1,14.1,0,0,1,4.64.76l-1,4.52a8.32,8.32,0,0,0-3.4-.6A5.06,5.06,0,0,0,274,48.86a5.08,5.08,0,0,0,5.36,5.47,9.18,9.18,0,0,0,3.48-.6Z"/><path class="cls-2" d="M294.37,33.54v5.6h4.36v4.48h-4.36V50.7c0,2.36.56,3.44,2.4,3.44a9.93,9.93,0,0,0,1.8-.16l0,4.59a11.93,11.93,0,0,1-4,.52,6.32,6.32,0,0,1-4.56-1.68c-1.12-1.16-1.68-3-1.68-5.79v-8h-2.59V39.14h2.59V34.9Z"/><path class="cls-2" d="M302.21,53.37a11.75,11.75,0,0,0,5.24,1.48c1.84,0,2.6-.64,2.6-1.63s-.6-1.49-2.88-2.24c-4-1.36-5.6-3.56-5.56-5.88,0-3.64,3.12-6.4,8-6.4a13.12,13.12,0,0,1,5.52,1.12L314,44a9.6,9.6,0,0,0-4.24-1.12c-1.48,0-2.32.6-2.32,1.6s.76,1.4,3.16,2.24c3.72,1.28,5.28,3.16,5.32,6,0,3.64-2.88,6.32-8.48,6.32a13.85,13.85,0,0,1-6.32-1.36Z"/></svg>