<svg id="Layer_1" data-name="Layer 1" xmlns="http://www.w3.org/2000/svg" viewBox="0 0 651.76 88.92"><defs><style>.cls-1{fill:#79752f;}.cls-2{fill:#f9f5d8;}.cls-3{fill:none;stroke:#f9f5d8;stroke-linecap:round;stroke-miterlimit:10;stroke-width:6px;}</style></defs><rect class="cls-1" width="651.76" height="88.92" rx="16.1"/><path class="cls-2" d="M38.5,52.41a15.55,15.55,0,0,0,6.76,1.68c2.8,0,4.28-1.15,4.28-2.91s-1.28-2.64-4.52-3.8c-4.48-1.56-7.4-4-7.4-8,0-4.6,3.84-8.12,10.2-8.12a16.43,16.43,0,0,1,6.87,1.36l-1.35,4.92A12.82,12.82,0,0,0,47.7,36.3c-2.64,0-3.92,1.2-3.92,2.6,0,1.72,1.52,2.48,5,3.8,4.75,1.76,7,4.24,7,8,0,4.51-3.47,8.35-10.87,8.35a17.64,17.64,0,0,1-7.64-1.64Z"/><path class="cls-2" d="M64.66,50.86c.2,2.51,2.68,3.72,5.52,3.72a17.5,17.5,0,0,0,5.39-.8l.8,4.11a19.29,19.29,0,0,1-7.07,1.2c-6.64,0-10.44-3.84-10.44-10,0-5,3.08-10.44,9.88-10.44,6.31,0,8.71,4.92,8.71,9.76a14.55,14.55,0,0,1-.2,2.4Zm7.16-4.16c0-1.48-.64-4-3.44-4-2.56,0-3.6,2.32-3.76,4Z"/><path class="cls-2" d="M85.78,50.86c.2,2.51,2.68,3.72,5.51,3.72a17.52,17.52,0,0,0,5.4-.8l.8,4.11a19.31,19.31,0,0,1-7.08,1.2c-6.63,0-10.43-3.84-10.43-10,0-5,3.08-10.44,9.88-10.44,6.31,0,8.71,4.92,8.71,9.76a14.55,14.55,0,0,1-.2,2.4Zm7.15-4.16c0-1.48-.64-4-3.43-4-2.56,0-3.6,2.32-3.76,4Z"/><path class="cls-2" d="M110.3,45.38c0-2.44-.08-4.52-.16-6.24h5.12l.28,2.64h.12a6.78,6.78,0,0,1,5.92-3.08A5.54,5.54,0,0,1,126.93,42H127a8.75,8.75,0,0,1,2.52-2.36,7.06,7.06,0,0,1,3.72-1c3.76,0,6.6,2.64,6.6,8.48V58.69h-5.92V48.06c0-2.84-.92-4.48-2.88-4.48a3,3,0,0,0-2.8,2.12,5.09,5.09,0,0,0-.24,1.56V58.69H122.1V47.74c0-2.48-.88-4.16-2.8-4.16a3.09,3.09,0,0,0-2.84,2.2,4,4,0,0,0-.24,1.52V58.69H110.3Z"/><path class="cls-2" d="M164,48.7c0,7.15-5.08,10.43-10.32,10.43-5.71,0-10.11-3.76-10.11-10.07S147.74,38.7,154,38.7C160,38.7,164,42.82,164,48.7Zm-14.15.2c0,3.35,1.4,5.87,4,5.87,2.36,0,3.88-2.36,3.88-5.87,0-2.92-1.12-5.88-3.88-5.88S149.86,46,149.86,48.9Z"/><path class="cls-2" d="M167.78,45.58c0-2.88-.08-4.76-.16-6.44h5.23l.21,3.6h.16a5.72,5.72,0,0,1,5.27-4,6.27,6.27,0,0,1,1.28.08V44.5a8.72,8.72,0,0,0-1.64-.16A3.91,3.91,0,0,0,174,47.42a7.17,7.17,0,0,0-.12,1.36v9.91h-6.07Z"/><path class="cls-2" d="M187.33,50.86c.2,2.51,2.68,3.72,5.52,3.72a17.52,17.52,0,0,0,5.4-.8l.8,4.11a19.31,19.31,0,0,1-7.08,1.2c-6.63,0-10.43-3.84-10.43-10,0-5,3.08-10.44,9.87-10.44,6.32,0,8.72,4.92,8.72,9.76a14.55,14.55,0,0,1-.2,2.4Zm7.16-4.16c0-1.48-.64-4-3.44-4-2.56,0-3.6,2.32-3.76,4Z"/><path class="cls-2" d="M212.26,52.41A15.51,15.51,0,0,0,219,54.09c2.8,0,4.28-1.15,4.28-2.91s-1.28-2.64-4.52-3.8c-4.47-1.56-7.39-4-7.39-8,0-4.6,3.83-8.12,10.19-8.12a16.52,16.52,0,0,1,6.88,1.36l-1.36,4.92a12.82,12.82,0,0,0-5.64-1.28c-2.64,0-3.92,1.2-3.92,2.6,0,1.72,1.52,2.48,5,3.8,4.76,1.76,7,4.24,7,8,0,4.51-3.48,8.35-10.88,8.35A17.63,17.63,0,0,1,211,57.45Z"/><path class="cls-2" d="M256.69,63.33a93.1,93.1,0,0,1-10.64-3.8,6.08,6.08,0,0,0-1.88-.4c-6.08-.4-11.75-4.88-11.75-13.67,0-8.08,5.11-14.16,13.15-14.16,8.24,0,12.76,6.24,12.76,13.6,0,6.12-2.84,10.43-6.4,12v.16c2.08.6,4.4,1.08,6.52,1.52Zm-4.8-18.19c0-4.92-2.32-9-6.48-9s-6.56,4.08-6.56,9.12,2.44,9,6.52,9S251.89,50.41,251.89,45.14Z"/><path class="cls-2" d="M262.34,31.74h6.11V53.58h10.72v5.11H262.34Z"/><path class="cls-2" d="M280.78,60.29l8.55-29h4l-8.56,29Z"/><path class="cls-2" d="M296,32.1a54.42,54.42,0,0,1,8.24-.56c5.12,0,8.44.92,11,2.88,2.8,2.08,4.56,5.4,4.56,10.16,0,5.16-1.88,8.71-4.48,10.92-2.84,2.35-7.16,3.47-12.44,3.47a52.79,52.79,0,0,1-6.92-.4Zm6.12,22a11.22,11.22,0,0,0,2.12.12c5.52,0,9.12-3,9.12-9.43,0-5.6-3.24-8.56-8.48-8.56a12.68,12.68,0,0,0-2.76.24Z"/><path class="cls-2" d="M334.77,58.69l-.36-2h-.12a7,7,0,0,1-5.6,2.4,6,6,0,0,1-6.32-6c0-5.07,4.56-7.51,11.48-7.47v-.28c0-1-.56-2.52-3.56-2.52a11,11,0,0,0-5.4,1.48l-1.12-3.92a16.15,16.15,0,0,1,7.6-1.72c6.52,0,8.6,3.84,8.6,8.44v6.79a30.31,30.31,0,0,0,.28,4.76Zm-.72-9.23c-3.2,0-5.68.72-5.68,3.08a2.18,2.18,0,0,0,2.4,2.31,3.33,3.33,0,0,0,3.16-2.23,4.42,4.42,0,0,0,.12-1Z"/><path class="cls-2" d="M351.25,33.54v5.6h4.36v4.48h-4.36V50.7c0,2.35.56,3.43,2.4,3.43a9.93,9.93,0,0,0,1.8-.16l0,4.6a11.93,11.93,0,0,1-4,.52A6.32,6.32,0,0,1,347,57.41c-1.12-1.16-1.68-3-1.68-5.79v-8h-2.6V39.14h2.6V34.9Z"/><path class="cls-2" d="M370.25,58.69l-.36-2h-.12a7,7,0,0,1-5.6,2.4,6,6,0,0,1-6.32-6c0-5.07,4.56-7.51,11.48-7.47v-.28c0-1-.56-2.52-3.56-2.52a11,11,0,0,0-5.4,1.48l-1.12-3.92a16.15,16.15,0,0,1,7.6-1.72c6.52,0,8.6,3.84,8.6,8.44v6.79a30.31,30.31,0,0,0,.28,4.76Zm-.72-9.23c-3.2,0-5.68.72-5.68,3.08a2.18,2.18,0,0,0,2.4,2.31,3.33,3.33,0,0,0,3.16-2.23,4.42,4.42,0,0,0,.12-1Z"/><path class="cls-2" d="M380.09,58.69c.08-1.28.16-3.64.16-5.83V30.3h6.08V41.46h.08a6.89,6.89,0,0,1,5.92-2.76c4.68,0,8.12,3.88,8.08,9.88,0,7-4.48,10.55-9,10.55A6.49,6.49,0,0,1,385.57,56h-.08l-.24,2.72Zm6.24-8.31a4.46,4.46,0,0,0,.12,1.08A3.68,3.68,0,0,0,390,54.33c2.6,0,4.2-2,4.2-5.51,0-3-1.36-5.44-4.2-5.44a3.77,3.77,0,0,0-3.56,3,5.06,5.06,0,0,0-.12,1.12Z"/><path class="cls-2" d="M415.29,58.69l-.36-2h-.12a7,7,0,0,1-5.6,2.4,6,6,0,0,1-6.32-6c0-5.07,4.56-7.51,11.48-7.47v-.28c0-1-.56-2.52-3.56-2.52a11,11,0,0,0-5.4,1.48l-1.12-3.92a16.15,16.15,0,0,1,7.6-1.72c6.52,0,8.6,3.84,8.6,8.44v6.79a30.31,30.31,0,0,0,.28,4.76Zm-.72-9.23c-3.2,0-5.68.72-5.68,3.08a2.18,2.18,0,0,0,2.4,2.31,3.33,3.33,0,0,0,3.16-2.23,4.42,4.42,0,0,0,.12-1Z"/><path class="cls-2" d="M425.25,53.37a11.89,11.89,0,0,0,5.24,1.48c1.84,0,2.6-.64,2.6-1.64s-.6-1.47-2.88-2.23c-4-1.36-5.6-3.56-5.56-5.88,0-3.64,3.12-6.4,8-6.4a13.12,13.12,0,0,1,5.52,1.12L437.05,44a9.6,9.6,0,0,0-4.24-1.12c-1.48,0-2.32.6-2.32,1.6s.76,1.4,3.16,2.24c3.72,1.28,5.28,3.16,5.32,6,0,3.63-2.88,6.31-8.48,6.31a13.85,13.85,0,0,1-6.32-1.36Z"/><path class="cls-2" d="M447.33,50.86c.2,2.51,2.68,3.72,5.52,3.72a17.52,17.52,0,0,0,5.4-.8l.8,4.11a19.31,19.31,0,0,1-7.08,1.2c-6.64,0-10.44-3.84-10.44-10,0-5,3.08-10.44,9.88-10.44,6.32,0,8.72,4.92,8.72,9.76a14.55,14.55,0,0,1-.2,2.4Zm7.16-4.16c0-1.48-.64-4-3.44-4-2.56,0-3.6,2.32-3.76,4Z"/><path class="cls-2" d="M476.05,39.14l1.56,8c.4,2,.8,4.19,1.12,6.44h.08c.4-2.25,1-4.48,1.44-6.4l2.08-8h4.8l2,7.8c.52,2.2,1,4.39,1.44,6.64h.08c.28-2.25.68-4.44,1.12-6.68l1.68-7.76h6l-6,19.55h-5.72l-1.84-6.87c-.48-1.92-.84-3.68-1.24-6.08h-.08a45.78,45.78,0,0,1-1.28,6.08l-2,6.87h-5.72l-5.68-19.55Z"/><path class="cls-2" d="M520.93,48.7c0,7.15-5.08,10.43-10.32,10.43-5.72,0-10.12-3.76-10.12-10.07s4.16-10.36,10.44-10.36C516.93,38.7,520.93,42.82,520.93,48.7Zm-14.16.2c0,3.35,1.4,5.87,4,5.87,2.36,0,3.88-2.36,3.88-5.87,0-2.92-1.12-5.88-3.88-5.88C507.85,43,506.77,46,506.77,48.9Z"/><path class="cls-2" d="M524.69,45.58c0-2.88-.08-4.76-.16-6.44h5.24l.2,3.6h.16a5.75,5.75,0,0,1,5.28-4,6.27,6.27,0,0,1,1.28.08V44.5a8.72,8.72,0,0,0-1.64-.16,3.91,3.91,0,0,0-4.16,3.08,7.17,7.17,0,0,0-.12,1.36v9.91h-6.08Z"/><path class="cls-2" d="M545.85,47.38h.08c.44-.8.92-1.6,1.4-2.36l4-5.88h7.32l-7,7.92,8,11.63h-7.48l-4.72-8-1.56,1.92v6.11h-6.08V30.3h6.08Z"/><line class="cls-3" x1="591.93" y1="59.6" x2="606.95" y2="44.59"/><line class="cls-3" x1="606.95" y1="44.59" x2="591.93" y2="29.57"/><path class="cls-2" d="M38.5,52.41a15.55,15.55,0,0,0,6.76,1.68c2.8,0,4.28-1.15,4.28-2.91s-1.28-2.64-4.52-3.8c-4.48-1.56-7.4-4-7.4-8,0-4.6,3.84-8.12,10.2-8.12a16.43,16.43,0,0,1,6.87,1.36l-1.35,4.92A12.82,12.82,0,0,0,47.7,36.3c-2.64,0-3.92,1.2-3.92,2.6,0,1.72,1.52,2.48,5,3.8,4.75,1.76,7,4.24,7,8,0,4.51-3.47,8.35-10.87,8.35a17.64,17.64,0,0,1-7.64-1.64Z"/><path class="cls-2" d="M64.66,50.86c.2,2.51,2.68,3.72,5.52,3.72a17.5,17.5,0,0,0,5.39-.8l.8,4.11a19.29,19.29,0,0,1-7.07,1.2c-6.64,0-10.44-3.84-10.44-10,0-5,3.08-10.44,9.88-10.44,6.31,0,8.71,4.92,8.71,9.76a14.55,14.55,0,0,1-.2,2.4Zm7.16-4.16c0-1.48-.64-4-3.44-4-2.56,0-3.6,2.32-3.76,4Z"/><path class="cls-2" d="M85.78,50.86c.2,2.51,2.68,3.72,5.51,3.72a17.52,17.52,0,0,0,5.4-.8l.8,4.11a19.31,19.31,0,0,1-7.08,1.2c-6.63,0-10.43-3.84-10.43-10,0-5,3.08-10.44,9.88-10.44,6.31,0,8.71,4.92,8.71,9.76a14.55,14.55,0,0,1-.2,2.4Zm7.15-4.16c0-1.48-.64-4-3.43-4-2.56,0-3.6,2.32-3.76,4Z"/><path class="cls-2" d="M110.3,45.38c0-2.44-.08-4.52-.16-6.24h5.12l.28,2.64h.12a6.78,6.78,0,0,1,5.92-3.08A5.54,5.54,0,0,1,126.93,42H127a8.75,8.75,0,0,1,2.52-2.36,7.06,7.06,0,0,1,3.72-1c3.76,0,6.6,2.64,6.6,8.48V58.69h-5.92V48.06c0-2.84-.92-4.48-2.88-4.48a3,3,0,0,0-2.8,2.12,5.09,5.09,0,0,0-.24,1.56V58.69H122.1V47.74c0-2.48-.88-4.16-2.8-4.16a3.09,3.09,0,0,0-2.84,2.2,4,4,0,0,0-.24,1.52V58.69H110.3Z"/><path class="cls-2" d="M164,48.7c0,7.15-5.08,10.43-10.32,10.43-5.71,0-10.11-3.76-10.11-10.07S147.74,38.7,154,38.7C160,38.7,164,42.82,164,48.7Zm-14.15.2c0,3.35,1.4,5.87,4,5.87,2.36,0,3.88-2.36,3.88-5.87,0-2.92-1.12-5.88-3.88-5.88S149.86,46,149.86,48.9Z"/><path class="cls-2" d="M167.78,45.58c0-2.88-.08-4.76-.16-6.44h5.23l.21,3.6h.16a5.72,5.72,0,0,1,5.27-4,6.27,6.27,0,0,1,1.28.08V44.5a8.72,8.72,0,0,0-1.64-.16A3.91,3.91,0,0,0,174,47.42a7.17,7.17,0,0,0-.12,1.36v9.91h-6.07Z"/><path class="cls-2" d="M187.33,50.86c.2,2.51,2.68,3.72,5.52,3.72a17.52,17.52,0,0,0,5.4-.8l.8,4.11a19.31,19.31,0,0,1-7.08,1.2c-6.63,0-10.43-3.84-10.43-10,0-5,3.08-10.44,9.87-10.44,6.32,0,8.72,4.92,8.72,9.76a14.55,14.55,0,0,1-.2,2.4Zm7.16-4.16c0-1.48-.64-4-3.44-4-2.56,0-3.6,2.32-3.76,4Z"/><path class="cls-2" d="M212.26,52.41A15.51,15.51,0,0,0,219,54.09c2.8,0,4.28-1.15,4.28-2.91s-1.28-2.64-4.52-3.8c-4.47-1.56-7.39-4-7.39-8,0-4.6,3.83-8.12,10.19-8.12a16.52,16.52,0,0,1,6.88,1.36l-1.36,4.92a12.82,12.82,0,0,0-5.64-1.28c-2.64,0-3.92,1.2-3.92,2.6,0,1.72,1.52,2.48,5,3.8,4.76,1.76,7,4.24,7,8,0,4.51-3.48,8.35-10.88,8.35A17.63,17.63,0,0,1,211,57.45Z"/><path class="cls-2" d="M256.69,63.33a93.1,93.1,0,0,1-10.64-3.8,6.08,6.08,0,0,0-1.88-.4c-6.08-.4-11.75-4.88-11.75-13.67,0-8.08,5.11-14.16,13.15-14.16,8.24,0,12.76,6.24,12.76,13.6,0,6.12-2.84,10.43-6.4,12v.16c2.08.6,4.4,1.08,6.52,1.52Zm-4.8-18.19c0-4.92-2.32-9-6.48-9s-6.56,4.08-6.56,9.12,2.44,9,6.52,9S251.89,50.41,251.89,45.14Z"/><path class="cls-2" d="M262.34,31.74h6.11V53.58h10.72v5.11H262.34Z"/><path class="cls-2" d="M280.78,60.29l8.55-29h4l-8.56,29Z"/><path class="cls-2" d="M296,32.1a54.42,54.42,0,0,1,8.24-.56c5.12,0,8.44.92,11,2.88,2.8,2.08,4.56,5.4,4.56,10.16,0,5.16-1.88,8.71-4.48,10.92-2.84,2.35-7.16,3.47-12.44,3.47a52.79,52.79,0,0,1-6.92-.4Zm6.12,22a11.22,11.22,0,0,0,2.12.12c5.52,0,9.12-3,9.12-9.43,0-5.6-3.24-8.56-8.48-8.56a12.68,12.68,0,0,0-2.76.24Z"/><path class="cls-2" d="M334.77,58.69l-.36-2h-.12a7,7,0,0,1-5.6,2.4,6,6,0,0,1-6.32-6c0-5.07,4.56-7.51,11.48-7.47v-.28c0-1-.56-2.52-3.56-2.52a11,11,0,0,0-5.4,1.48l-1.12-3.92a16.15,16.15,0,0,1,7.6-1.72c6.52,0,8.6,3.84,8.6,8.44v6.79a30.31,30.31,0,0,0,.28,4.76Zm-.72-9.23c-3.2,0-5.68.72-5.68,3.08a2.18,2.18,0,0,0,2.4,2.31,3.33,3.33,0,0,0,3.16-2.23,4.42,4.42,0,0,0,.12-1Z"/><path class="cls-2" d="M351.25,33.54v5.6h4.36v4.48h-4.36V50.7c0,2.35.56,3.43,2.4,3.43a9.93,9.93,0,0,0,1.8-.16l0,4.6a11.93,11.93,0,0,1-4,.52A6.32,6.32,0,0,1,347,57.41c-1.12-1.16-1.68-3-1.68-5.79v-8h-2.6V39.14h2.6V34.9Z"/><path class="cls-2" d="M370.25,58.69l-.36-2h-.12a7,7,0,0,1-5.6,2.4,6,6,0,0,1-6.32-6c0-5.07,4.56-7.51,11.48-7.47v-.28c0-1-.56-2.52-3.56-2.52a11,11,0,0,0-5.4,1.48l-1.12-3.92a16.15,16.15,0,0,1,7.6-1.72c6.52,0,8.6,3.84,8.6,8.44v6.79a30.31,30.31,0,0,0,.28,4.76Zm-.72-9.23c-3.2,0-5.68.72-5.68,3.08a2.18,2.18,0,0,0,2.4,2.31,3.33,3.33,0,0,0,3.16-2.23,4.42,4.42,0,0,0,.12-1Z"/><path class="cls-2" d="M380.09,58.69c.08-1.28.16-3.64.16-5.83V30.3h6.08V41.46h.08a6.89,6.89,0,0,1,5.92-2.76c4.68,0,8.12,3.88,8.08,9.88,0,7-4.48,10.55-9,10.55A6.49,6.49,0,0,1,385.57,56h-.08l-.24,2.72Zm6.24-8.31a4.46,4.46,0,0,0,.12,1.08A3.68,3.68,0,0,0,390,54.33c2.6,0,4.2-2,4.2-5.51,0-3-1.36-5.44-4.2-5.44a3.77,3.77,0,0,0-3.56,3,5.06,5.06,0,0,0-.12,1.12Z"/><path class="cls-2" d="M415.29,58.69l-.36-2h-.12a7,7,0,0,1-5.6,2.4,6,6,0,0,1-6.32-6c0-5.07,4.56-7.51,11.48-7.47v-.28c0-1-.56-2.52-3.56-2.52a11,11,0,0,0-5.4,1.48l-1.12-3.92a16.15,16.15,0,0,1,7.6-1.72c6.52,0,8.6,3.84,8.6,8.44v6.79a30.31,30.31,0,0,0,.28,4.76Zm-.72-9.23c-3.2,0-5.68.72-5.68,3.08a2.18,2.18,0,0,0,2.4,2.31,3.33,3.33,0,0,0,3.16-2.23,4.42,4.42,0,0,0,.12-1Z"/><path class="cls-2" d="M425.25,53.37a11.89,11.89,0,0,0,5.24,1.48c1.84,0,2.6-.64,2.6-1.64s-.6-1.47-2.88-2.23c-4-1.36-5.6-3.56-5.56-5.88,0-3.64,3.12-6.4,8-6.4a13.12,13.12,0,0,1,5.52,1.12L437.05,44a9.6,9.6,0,0,0-4.24-1.12c-1.48,0-2.32.6-2.32,1.6s.76,1.4,3.16,2.24c3.72,1.28,5.28,3.16,5.32,6,0,3.63-2.88,6.31-8.48,6.31a13.85,13.85,0,0,1-6.32-1.36Z"/><path class="cls-2" d="M447.33,50.86c.2,2.51,2.68,3.72,5.52,3.72a17.52,17.52,0,0,0,5.4-.8l.8,4.11a19.31,19.31,0,0,1-7.08,1.2c-6.64,0-10.44-3.84-10.44-10,0-5,3.08-10.44,9.88-10.44,6.32,0,8.72,4.92,8.72,9.76a14.55,14.55,0,0,1-.2,2.4Zm7.16-4.16c0-1.48-.64-4-3.44-4-2.56,0-3.6,2.32-3.76,4Z"/><path class="cls-2" d="M476.05,39.14l1.56,8c.4,2,.8,4.19,1.12,6.44h.08c.4-2.25,1-4.48,1.44-6.4l2.08-8h4.8l2,7.8c.52,2.2,1,4.39,1.44,6.64h.08c.28-2.25.68-4.44,1.12-6.68l1.68-7.76h6l-6,19.55h-5.72l-1.84-6.87c-.48-1.92-.84-3.68-1.24-6.08h-.08a45.78,45.78,0,0,1-1.28,6.08l-2,6.87h-5.72l-5.68-19.55Z"/><path class="cls-2" d="M520.93,48.7c0,7.15-5.08,10.43-10.32,10.43-5.72,0-10.12-3.76-10.12-10.07s4.16-10.36,10.44-10.36C516.93,38.7,520.93,42.82,520.93,48.7Zm-14.16.2c0,3.35,1.4,5.87,4,5.87,2.36,0,3.88-2.36,3.88-5.87,0-2.92-1.12-5.88-3.88-5.88C507.85,43,506.77,46,506.77,48.9Z"/><path class="cls-2" d="M524.69,45.58c0-2.88-.08-4.76-.16-6.44h5.24l.2,3.6h.16a5.75,5.75,0,0,1,5.28-4,6.27,6.27,0,0,1,1.28.08V44.5a8.72,8.72,0,0,0-1.64-.16,3.91,3.91,0,0,0-4.16,3.08,7.17,7.17,0,0,0-.12,1.36v9.91h-6.08Z"/><path class="cls-2" d="M545.85,47.38h.08c.44-.8.92-1.6,1.4-2.36l4-5.88h7.32l-7,7.92,8,11.63h-7.48l-4.72-8-1.56,1.92v6.11h-6.08V30.3h6.08Z"/></svg>