<svg id="Layer_1" data-name="Layer 1" xmlns="http://www.w3.org/2000/svg" viewBox="0 0 582.2 88.92"><defs><style>.cls-1{fill:#8f4071;}.cls-2{fill:#f9f5d8;}.cls-3{fill:none;stroke:#f9f5d8;stroke-linecap:round;stroke-miterlimit:10;stroke-width:6px;}</style></defs><rect class="cls-1" width="582.2" height="88.92" rx="16.1"/><path class="cls-2" d="M38.5,52.42a15.56,15.56,0,0,0,6.76,1.67c2.8,0,4.28-1.15,4.28-2.91s-1.28-2.64-4.52-3.8c-4.48-1.56-7.4-4-7.4-8,0-4.6,3.84-8.12,10.2-8.12a16.43,16.43,0,0,1,6.87,1.36l-1.35,4.92A12.82,12.82,0,0,0,47.7,36.3c-2.64,0-3.92,1.2-3.92,2.6,0,1.72,1.52,2.48,5,3.8,4.75,1.76,7,4.24,7,8,0,4.52-3.47,8.35-10.87,8.35a17.64,17.64,0,0,1-7.64-1.64Z"/><path class="cls-2" d="M64.66,50.86c.2,2.52,2.68,3.72,5.52,3.72a17.21,17.21,0,0,0,5.39-.8l.8,4.11a19.29,19.29,0,0,1-7.07,1.2c-6.64,0-10.44-3.83-10.44-10,0-5,3.08-10.44,9.88-10.44,6.31,0,8.71,4.92,8.71,9.76a14.44,14.44,0,0,1-.2,2.4Zm7.16-4.16c0-1.48-.64-4-3.44-4-2.56,0-3.6,2.32-3.76,4Z"/><path class="cls-2" d="M85.78,50.86c.2,2.52,2.68,3.72,5.51,3.72a17.23,17.23,0,0,0,5.4-.8l.8,4.11a19.31,19.31,0,0,1-7.08,1.2c-6.63,0-10.43-3.83-10.43-10,0-5,3.08-10.44,9.88-10.44,6.31,0,8.71,4.92,8.71,9.76a14.44,14.44,0,0,1-.2,2.4Zm7.15-4.16c0-1.48-.64-4-3.43-4-2.56,0-3.6,2.32-3.76,4Z"/><path class="cls-2" d="M110.3,45.38c0-2.44-.08-4.52-.16-6.24h5.12l.28,2.64h.12a6.78,6.78,0,0,1,5.92-3.08A5.54,5.54,0,0,1,126.93,42H127a8.75,8.75,0,0,1,2.52-2.36,7.06,7.06,0,0,1,3.72-1c3.76,0,6.6,2.64,6.6,8.48V58.69h-5.92V48.06c0-2.84-.92-4.48-2.88-4.48a3,3,0,0,0-2.8,2.12,5.09,5.09,0,0,0-.24,1.56V58.69H122.1V47.74c0-2.48-.88-4.16-2.8-4.16a3.09,3.09,0,0,0-2.84,2.2,4,4,0,0,0-.24,1.52V58.69H110.3Z"/><path class="cls-2" d="M164,48.7c0,7.15-5.08,10.43-10.32,10.43-5.71,0-10.11-3.75-10.11-10.07S147.74,38.7,154,38.7C160,38.7,164,42.82,164,48.7Zm-14.15.2c0,3.36,1.4,5.87,4,5.87,2.36,0,3.88-2.35,3.88-5.87,0-2.92-1.12-5.88-3.88-5.88S149.86,46,149.86,48.9Z"/><path class="cls-2" d="M167.78,45.58c0-2.88-.08-4.76-.16-6.44h5.23l.21,3.6h.16a5.72,5.72,0,0,1,5.27-4,6.27,6.27,0,0,1,1.28.08V44.5a8.72,8.72,0,0,0-1.64-.16A3.91,3.91,0,0,0,174,47.42a7.17,7.17,0,0,0-.12,1.36v9.91h-6.07Z"/><path class="cls-2" d="M187.33,50.86c.2,2.52,2.68,3.72,5.52,3.72a17.23,17.23,0,0,0,5.4-.8l.8,4.11a19.31,19.31,0,0,1-7.08,1.2c-6.63,0-10.43-3.83-10.43-10,0-5,3.08-10.44,9.87-10.44,6.32,0,8.72,4.92,8.72,9.76a14.44,14.44,0,0,1-.2,2.4Zm7.16-4.16c0-1.48-.64-4-3.44-4-2.56,0-3.6,2.32-3.76,4Z"/><path class="cls-2" d="M212.06,32.1a49.67,49.67,0,0,1,8.23-.56c3.76,0,6.44.72,8.24,2.16a7.88,7.88,0,0,1,2.88,6.24,8.62,8.62,0,0,1-2.48,6.4c-2.08,2-5.16,2.84-8.76,2.84a15.35,15.35,0,0,1-2.08-.12v9.63h-6Zm6,12.24a9.32,9.32,0,0,0,2,.16c3.24,0,5.24-1.64,5.24-4.4,0-2.48-1.72-4-4.76-4a10.39,10.39,0,0,0-2.52.24Z"/><path class="cls-2" d="M240,39.14l2.92,9.6c.32,1.16.72,2.6,1,3.64H244c.28-1,.6-2.52.88-3.64l2.4-9.6h6.52L249.21,52c-2.8,7.75-4.68,10.87-6.88,12.83a11.21,11.21,0,0,1-5.88,2.68l-1.27-5.16a7.7,7.7,0,0,0,2.63-1,7,7,0,0,0,2.52-2.44,1.59,1.59,0,0,0,.32-.88,2.21,2.21,0,0,0-.28-1l-7.15-17.87Z"/><path class="cls-2" d="M263.13,33.54v5.6h4.36v4.48h-4.36V50.7c0,2.35.56,3.43,2.4,3.43a9.93,9.93,0,0,0,1.8-.16l0,4.6a11.93,11.93,0,0,1-4,.52,6.32,6.32,0,0,1-4.56-1.68c-1.12-1.15-1.68-3-1.68-5.79v-8h-2.59V39.14h2.59V34.9Z"/><path class="cls-2" d="M271,30.3h6.08V41.46h.08a7.3,7.3,0,0,1,2.4-2,6.83,6.83,0,0,1,3.16-.76c3.88,0,6.84,2.68,6.84,8.56V58.69h-6.08V47.94c0-2.56-.88-4.32-3.16-4.32a3.23,3.23,0,0,0-3,2.12,3.87,3.87,0,0,0-.2,1.36V58.69H271Z"/><path class="cls-2" d="M313.77,48.7c0,7.15-5.08,10.43-10.32,10.43-5.72,0-10.11-3.75-10.11-10.07s4.15-10.36,10.43-10.36C309.77,38.7,313.77,42.82,313.77,48.7Zm-14.16.2c0,3.36,1.4,5.87,4,5.87,2.36,0,3.88-2.35,3.88-5.87,0-2.92-1.12-5.88-3.88-5.88C300.69,43,299.61,46,299.61,48.9Z"/><path class="cls-2" d="M317.53,45.38c0-2.44-.08-4.52-.16-6.24h5.28l.28,2.68h.12a7.16,7.16,0,0,1,6-3.12c4,0,7,2.64,7,8.4V58.69H330V47.86c0-2.52-.88-4.24-3.08-4.24a3.25,3.25,0,0,0-3.08,2.28,4.18,4.18,0,0,0-.24,1.52V58.69h-6.08Z"/><path class="cls-2" d="M349.05,45.7c0-2.56-.08-4.76-.16-6.56h5.28l.28,2.72h.08a7.51,7.51,0,0,1,6.52-3.16c4.28,0,8.12,3.72,8.12,10,0,7.11-4.52,10.47-8.88,10.47a6.08,6.08,0,0,1-5.08-2.24h-.08v9.72h-6.08Zm6.08,4.6a6.06,6.06,0,0,0,.12,1.28,3.69,3.69,0,0,0,3.56,2.88c2.64,0,4.2-2.2,4.2-5.52,0-3.12-1.4-5.48-4.12-5.48a3.82,3.82,0,0,0-3.64,3.08,4.7,4.7,0,0,0-.12,1.08Z"/><path class="cls-2" d="M373,45.58c0-2.88-.08-4.76-.16-6.44h5.24l.2,3.6h.16a5.75,5.75,0,0,1,5.28-4,6.27,6.27,0,0,1,1.28.08V44.5a8.72,8.72,0,0,0-1.64-.16,3.91,3.91,0,0,0-4.16,3.08,7.17,7.17,0,0,0-.12,1.36v9.91H373Z"/><path class="cls-2" d="M407.17,48.7c0,7.15-5.08,10.43-10.32,10.43-5.72,0-10.12-3.75-10.12-10.07s4.16-10.36,10.44-10.36C403.17,38.7,407.17,42.82,407.17,48.7ZM393,48.9c0,3.36,1.4,5.87,4,5.87,2.36,0,3.88-2.35,3.88-5.87C400.89,46,399.77,43,397,43,394.09,43,393,46,393,48.9Z"/><path class="cls-2" d="M406.89,62.29a5.39,5.39,0,0,0,3.6-1.28c.88-.92,1.2-2.48,1.2-6.36V39.14h6.12v17c0,4.28-1,6.88-2.76,8.56s-4.64,2.4-7.56,2.4ZM418,33.7a3,3,0,0,1-3.28,3,3.07,3.07,0,1,1,3.28-3Z"/><path class="cls-2" d="M427.25,50.86c.2,2.52,2.68,3.72,5.52,3.72a17.23,17.23,0,0,0,5.4-.8l.8,4.11a19.31,19.31,0,0,1-7.08,1.2c-6.64,0-10.44-3.83-10.44-10,0-5,3.08-10.44,9.88-10.44,6.32,0,8.72,4.92,8.72,9.76a14.44,14.44,0,0,1-.2,2.4Zm7.16-4.16c0-1.48-.64-4-3.44-4-2.56,0-3.6,2.32-3.76,4Z"/><path class="cls-2" d="M458.37,58.21a14.83,14.83,0,0,1-5.44.88c-6.32,0-10.36-3.83-10.36-10,0-5.72,3.92-10.4,11.2-10.4a14.1,14.1,0,0,1,4.64.76l-1,4.52a8.32,8.32,0,0,0-3.4-.6,5.06,5.06,0,0,0-5.24,5.48,5.09,5.09,0,0,0,5.36,5.48,9.59,9.59,0,0,0,3.48-.6Z"/><path class="cls-2" d="M469.17,33.54v5.6h4.36v4.48h-4.36V50.7c0,2.35.56,3.43,2.4,3.43a9.93,9.93,0,0,0,1.8-.16l0,4.6a11.93,11.93,0,0,1-4,.52,6.32,6.32,0,0,1-4.56-1.68c-1.12-1.15-1.68-3-1.68-5.79v-8h-2.6V39.14h2.6V34.9Z"/><path class="cls-2" d="M477,53.38a12,12,0,0,0,5.24,1.47c1.84,0,2.6-.64,2.6-1.64s-.6-1.47-2.88-2.23c-4-1.36-5.6-3.56-5.56-5.88,0-3.64,3.12-6.4,8-6.4a13.12,13.12,0,0,1,5.52,1.12L488.81,44a9.6,9.6,0,0,0-4.24-1.12c-1.48,0-2.32.6-2.32,1.6s.76,1.4,3.16,2.24c3.72,1.28,5.28,3.16,5.32,6,0,3.63-2.88,6.31-8.48,6.31a13.85,13.85,0,0,1-6.32-1.36Z"/><line class="cls-3" x1="524.08" y1="61.2" x2="539.1" y2="46.19"/><line class="cls-3" x1="539.1" y1="46.19" x2="524.08" y2="31.17"/><path class="cls-2" d="M38.5,52.42a15.56,15.56,0,0,0,6.76,1.67c2.8,0,4.28-1.15,4.28-2.91s-1.28-2.64-4.52-3.8c-4.48-1.56-7.4-4-7.4-8,0-4.6,3.84-8.12,10.2-8.12a16.43,16.43,0,0,1,6.87,1.36l-1.35,4.92A12.82,12.82,0,0,0,47.7,36.3c-2.64,0-3.92,1.2-3.92,2.6,0,1.72,1.52,2.48,5,3.8,4.75,1.76,7,4.24,7,8,0,4.52-3.47,8.35-10.87,8.35a17.64,17.64,0,0,1-7.64-1.64Z"/><path class="cls-2" d="M64.66,50.86c.2,2.52,2.68,3.72,5.52,3.72a17.21,17.21,0,0,0,5.39-.8l.8,4.11a19.29,19.29,0,0,1-7.07,1.2c-6.64,0-10.44-3.83-10.44-10,0-5,3.08-10.44,9.88-10.44,6.31,0,8.71,4.92,8.71,9.76a14.44,14.44,0,0,1-.2,2.4Zm7.16-4.16c0-1.48-.64-4-3.44-4-2.56,0-3.6,2.32-3.76,4Z"/><path class="cls-2" d="M85.78,50.86c.2,2.52,2.68,3.72,5.51,3.72a17.23,17.23,0,0,0,5.4-.8l.8,4.11a19.31,19.31,0,0,1-7.08,1.2c-6.63,0-10.43-3.83-10.43-10,0-5,3.08-10.44,9.88-10.44,6.31,0,8.71,4.92,8.71,9.76a14.44,14.44,0,0,1-.2,2.4Zm7.15-4.16c0-1.48-.64-4-3.43-4-2.56,0-3.6,2.32-3.76,4Z"/><path class="cls-2" d="M110.3,45.38c0-2.44-.08-4.52-.16-6.24h5.12l.28,2.64h.12a6.78,6.78,0,0,1,5.92-3.08A5.54,5.54,0,0,1,126.93,42H127a8.75,8.75,0,0,1,2.52-2.36,7.06,7.06,0,0,1,3.72-1c3.76,0,6.6,2.64,6.6,8.48V58.69h-5.92V48.06c0-2.84-.92-4.48-2.88-4.48a3,3,0,0,0-2.8,2.12,5.09,5.09,0,0,0-.24,1.56V58.69H122.1V47.74c0-2.48-.88-4.16-2.8-4.16a3.09,3.09,0,0,0-2.84,2.2,4,4,0,0,0-.24,1.52V58.69H110.3Z"/><path class="cls-2" d="M164,48.7c0,7.15-5.08,10.43-10.32,10.43-5.71,0-10.11-3.75-10.11-10.07S147.74,38.7,154,38.7C160,38.7,164,42.82,164,48.7Zm-14.15.2c0,3.36,1.4,5.87,4,5.87,2.36,0,3.88-2.35,3.88-5.87,0-2.92-1.12-5.88-3.88-5.88S149.86,46,149.86,48.9Z"/><path class="cls-2" d="M167.78,45.58c0-2.88-.08-4.76-.16-6.44h5.23l.21,3.6h.16a5.72,5.72,0,0,1,5.27-4,6.27,6.27,0,0,1,1.28.08V44.5a8.72,8.72,0,0,0-1.64-.16A3.91,3.91,0,0,0,174,47.42a7.17,7.17,0,0,0-.12,1.36v9.91h-6.07Z"/><path class="cls-2" d="M187.33,50.86c.2,2.52,2.68,3.72,5.52,3.72a17.23,17.23,0,0,0,5.4-.8l.8,4.11a19.31,19.31,0,0,1-7.08,1.2c-6.63,0-10.43-3.83-10.43-10,0-5,3.08-10.44,9.87-10.44,6.32,0,8.72,4.92,8.72,9.76a14.44,14.44,0,0,1-.2,2.4Zm7.16-4.16c0-1.48-.64-4-3.44-4-2.56,0-3.6,2.32-3.76,4Z"/><path class="cls-2" d="M212.06,32.1a49.67,49.67,0,0,1,8.23-.56c3.76,0,6.44.72,8.24,2.16a7.88,7.88,0,0,1,2.88,6.24,8.62,8.62,0,0,1-2.48,6.4c-2.08,2-5.16,2.84-8.76,2.84a15.35,15.35,0,0,1-2.08-.12v9.63h-6Zm6,12.24a9.32,9.32,0,0,0,2,.16c3.24,0,5.24-1.64,5.24-4.4,0-2.48-1.72-4-4.76-4a10.39,10.39,0,0,0-2.52.24Z"/><path class="cls-2" d="M240,39.14l2.92,9.6c.32,1.16.72,2.6,1,3.64H244c.28-1,.6-2.52.88-3.64l2.4-9.6h6.52L249.21,52c-2.8,7.75-4.68,10.87-6.88,12.83a11.21,11.21,0,0,1-5.88,2.68l-1.27-5.16a7.7,7.7,0,0,0,2.63-1,7,7,0,0,0,2.52-2.44,1.59,1.59,0,0,0,.32-.88,2.21,2.21,0,0,0-.28-1l-7.15-17.87Z"/><path class="cls-2" d="M263.13,33.54v5.6h4.36v4.48h-4.36V50.7c0,2.35.56,3.43,2.4,3.43a9.93,9.93,0,0,0,1.8-.16l0,4.6a11.93,11.93,0,0,1-4,.52,6.32,6.32,0,0,1-4.56-1.68c-1.12-1.15-1.68-3-1.68-5.79v-8h-2.59V39.14h2.59V34.9Z"/><path class="cls-2" d="M271,30.3h6.08V41.46h.08a7.3,7.3,0,0,1,2.4-2,6.83,6.83,0,0,1,3.16-.76c3.88,0,6.84,2.68,6.84,8.56V58.69h-6.08V47.94c0-2.56-.88-4.32-3.16-4.32a3.23,3.23,0,0,0-3,2.12,3.87,3.87,0,0,0-.2,1.36V58.69H271Z"/><path class="cls-2" d="M313.77,48.7c0,7.15-5.08,10.43-10.32,10.43-5.72,0-10.11-3.75-10.11-10.07s4.15-10.36,10.43-10.36C309.77,38.7,313.77,42.82,313.77,48.7Zm-14.16.2c0,3.36,1.4,5.87,4,5.87,2.36,0,3.88-2.35,3.88-5.87,0-2.92-1.12-5.88-3.88-5.88C300.69,43,299.61,46,299.61,48.9Z"/><path class="cls-2" d="M317.53,45.38c0-2.44-.08-4.52-.16-6.24h5.28l.28,2.68h.12a7.16,7.16,0,0,1,6-3.12c4,0,7,2.64,7,8.4V58.69H330V47.86c0-2.52-.88-4.24-3.08-4.24a3.25,3.25,0,0,0-3.08,2.28,4.18,4.18,0,0,0-.24,1.52V58.69h-6.08Z"/><path class="cls-2" d="M349.05,45.7c0-2.56-.08-4.76-.16-6.56h5.28l.28,2.72h.08a7.51,7.51,0,0,1,6.52-3.16c4.28,0,8.12,3.72,8.12,10,0,7.11-4.52,10.47-8.88,10.47a6.08,6.08,0,0,1-5.08-2.24h-.08v9.72h-6.08Zm6.08,4.6a6.06,6.06,0,0,0,.12,1.28,3.69,3.69,0,0,0,3.56,2.88c2.64,0,4.2-2.2,4.2-5.52,0-3.12-1.4-5.48-4.12-5.48a3.82,3.82,0,0,0-3.64,3.08,4.7,4.7,0,0,0-.12,1.08Z"/><path class="cls-2" d="M373,45.58c0-2.88-.08-4.76-.16-6.44h5.24l.2,3.6h.16a5.75,5.75,0,0,1,5.28-4,6.27,6.27,0,0,1,1.28.08V44.5a8.72,8.72,0,0,0-1.64-.16,3.91,3.91,0,0,0-4.16,3.08,7.17,7.17,0,0,0-.12,1.36v9.91H373Z"/><path class="cls-2" d="M407.17,48.7c0,7.15-5.08,10.43-10.32,10.43-5.72,0-10.12-3.75-10.12-10.07s4.16-10.36,10.44-10.36C403.17,38.7,407.17,42.82,407.17,48.7ZM393,48.9c0,3.36,1.4,5.87,4,5.87,2.36,0,3.88-2.35,3.88-5.87C400.89,46,399.77,43,397,43,394.09,43,393,46,393,48.9Z"/><path class="cls-2" d="M406.89,62.29a5.39,5.39,0,0,0,3.6-1.28c.88-.92,1.2-2.48,1.2-6.36V39.14h6.12v17c0,4.28-1,6.88-2.76,8.56s-4.64,2.4-7.56,2.4ZM418,33.7a3,3,0,0,1-3.28,3,3.07,3.07,0,1,1,3.28-3Z"/><path class="cls-2" d="M427.25,50.86c.2,2.52,2.68,3.72,5.52,3.72a17.23,17.23,0,0,0,5.4-.8l.8,4.11a19.31,19.31,0,0,1-7.08,1.2c-6.64,0-10.44-3.83-10.44-10,0-5,3.08-10.44,9.88-10.44,6.32,0,8.72,4.92,8.72,9.76a14.44,14.44,0,0,1-.2,2.4Zm7.16-4.16c0-1.48-.64-4-3.44-4-2.56,0-3.6,2.32-3.76,4Z"/><path class="cls-2" d="M458.37,58.21a14.83,14.83,0,0,1-5.44.88c-6.32,0-10.36-3.83-10.36-10,0-5.72,3.92-10.4,11.2-10.4a14.1,14.1,0,0,1,4.64.76l-1,4.52a8.32,8.32,0,0,0-3.4-.6,5.06,5.06,0,0,0-5.24,5.48,5.09,5.09,0,0,0,5.36,5.48,9.59,9.59,0,0,0,3.48-.6Z"/><path class="cls-2" d="M469.17,33.54v5.6h4.36v4.48h-4.36V50.7c0,2.35.56,3.43,2.4,3.43a9.93,9.93,0,0,0,1.8-.16l0,4.6a11.93,11.93,0,0,1-4,.52,6.32,6.32,0,0,1-4.56-1.68c-1.12-1.15-1.68-3-1.68-5.79v-8h-2.6V39.14h2.6V34.9Z"/><path class="cls-2" d="M477,53.38a12,12,0,0,0,5.24,1.47c1.84,0,2.6-.64,2.6-1.64s-.6-1.47-2.88-2.23c-4-1.36-5.6-3.56-5.56-5.88,0-3.64,3.12-6.4,8-6.4a13.12,13.12,0,0,1,5.52,1.12L488.81,44a9.6,9.6,0,0,0-4.24-1.12c-1.48,0-2.32.6-2.32,1.6s.76,1.4,3.16,2.24c3.72,1.28,5.28,3.16,5.32,6,0,3.63-2.88,6.31-8.48,6.31a13.85,13.85,0,0,1-6.32-1.36Z"/></svg>