<svg id="Layer_1" data-name="Layer 1" xmlns="http://www.w3.org/2000/svg" viewBox="0 0 531.59 88.92"><defs><style>.cls-1{fill:#b4772a;}.cls-2{fill:none;stroke:#f9f5d8;stroke-linecap:round;stroke-miterlimit:10;stroke-width:6px;}.cls-3{fill:#f9f5d8;}</style></defs><rect class="cls-1" width="531.59" height="88.92" rx="16.1"/><line class="cls-2" x1="472.91" y1="60.65" x2="487.93" y2="45.63"/><line class="cls-2" x1="487.93" y1="45.63" x2="472.91" y2="30.61"/><path class="cls-3" d="M38.5,52.42a15.55,15.55,0,0,0,6.76,1.68c2.8,0,4.28-1.16,4.28-2.92s-1.28-2.64-4.52-3.8c-4.48-1.56-7.4-4-7.4-8,0-4.6,3.84-8.12,10.2-8.12a16.43,16.43,0,0,1,6.87,1.36l-1.35,4.92A12.82,12.82,0,0,0,47.7,36.3c-2.64,0-3.92,1.2-3.92,2.6,0,1.72,1.52,2.48,5,3.8,4.75,1.76,7,4.24,7,8,0,4.51-3.47,8.35-10.87,8.35a17.64,17.64,0,0,1-7.64-1.64Z"/><path class="cls-3" d="M64.66,50.86c.2,2.51,2.68,3.71,5.52,3.71a17.21,17.21,0,0,0,5.39-.8l.8,4.12a19.29,19.29,0,0,1-7.07,1.2c-6.64,0-10.44-3.84-10.44-10,0-5,3.08-10.44,9.88-10.44,6.31,0,8.71,4.92,8.71,9.76a14.44,14.44,0,0,1-.2,2.4Zm7.16-4.16c0-1.48-.64-4-3.44-4-2.56,0-3.6,2.32-3.76,4Z"/><path class="cls-3" d="M85.78,50.86c.2,2.51,2.68,3.71,5.51,3.71a17.23,17.23,0,0,0,5.4-.8l.8,4.12a19.31,19.31,0,0,1-7.08,1.2c-6.63,0-10.43-3.84-10.43-10,0-5,3.08-10.44,9.88-10.44,6.31,0,8.71,4.92,8.71,9.76a14.44,14.44,0,0,1-.2,2.4Zm7.15-4.16c0-1.48-.64-4-3.43-4-2.56,0-3.6,2.32-3.76,4Z"/><path class="cls-3" d="M110.3,45.38c0-2.44-.08-4.52-.16-6.24h5.12l.28,2.64h.12a6.78,6.78,0,0,1,5.92-3.08A5.54,5.54,0,0,1,126.93,42H127a8.75,8.75,0,0,1,2.52-2.36,7.06,7.06,0,0,1,3.72-1c3.76,0,6.6,2.64,6.6,8.48V58.69h-5.92V48.06c0-2.84-.92-4.48-2.88-4.48a3,3,0,0,0-2.8,2.12,5.09,5.09,0,0,0-.24,1.56V58.69H122.1V47.74c0-2.48-.88-4.16-2.8-4.16a3.09,3.09,0,0,0-2.84,2.2,4,4,0,0,0-.24,1.52V58.69H110.3Z"/><path class="cls-3" d="M164,48.7c0,7.16-5.08,10.43-10.32,10.43-5.71,0-10.11-3.76-10.11-10.07S147.74,38.7,154,38.7C160,38.7,164,42.82,164,48.7Zm-14.15.2c0,3.36,1.4,5.87,4,5.87,2.36,0,3.88-2.35,3.88-5.87,0-2.92-1.12-5.88-3.88-5.88S149.86,46,149.86,48.9Z"/><path class="cls-3" d="M167.78,45.58c0-2.88-.08-4.76-.16-6.44h5.23l.21,3.6h.16a5.72,5.72,0,0,1,5.27-4,6.27,6.27,0,0,1,1.28.08V44.5a8.72,8.72,0,0,0-1.64-.16A3.91,3.91,0,0,0,174,47.42a7.17,7.17,0,0,0-.12,1.36v9.91h-6.07Z"/><path class="cls-3" d="M187.33,50.86c.2,2.51,2.68,3.71,5.52,3.71a17.23,17.23,0,0,0,5.4-.8l.8,4.12a19.31,19.31,0,0,1-7.08,1.2c-6.63,0-10.43-3.84-10.43-10,0-5,3.08-10.44,9.87-10.44,6.32,0,8.72,4.92,8.72,9.76a14.44,14.44,0,0,1-.2,2.4Zm7.16-4.16c0-1.48-.64-4-3.44-4-2.56,0-3.6,2.32-3.76,4Z"/><path class="cls-3" d="M217.33,31.74h6.08v17c0,7.67-3.68,10.35-9.59,10.35a15.87,15.87,0,0,1-4.44-.64l.68-4.92a9.72,9.72,0,0,0,3.12.49c2.55,0,4.15-1.16,4.15-5.36Z"/><path class="cls-3" d="M239.21,58.69l-.36-2h-.12a7,7,0,0,1-5.6,2.4,6,6,0,0,1-6.31-6c0-5.08,4.56-7.52,11.47-7.48v-.28c0-1-.56-2.52-3.56-2.52a11,11,0,0,0-5.39,1.48l-1.12-3.92a16.13,16.13,0,0,1,7.59-1.72c6.52,0,8.6,3.84,8.6,8.44v6.8a30.25,30.25,0,0,0,.28,4.75Zm-.72-9.23c-3.2,0-5.68.72-5.68,3.07a2.19,2.19,0,0,0,2.4,2.33,3.32,3.32,0,0,0,3.16-2.25,4.22,4.22,0,0,0,.12-1Z"/><path class="cls-3" d="M253.26,39.14l2.64,9.08A45.11,45.11,0,0,1,257,53h.13c.31-1.6.63-3.08,1.07-4.76l2.52-9.08h6.4l-7.28,19.55h-6.07l-7.12-19.55Z"/><path class="cls-3" d="M280.77,58.69l-.36-2h-.12a7,7,0,0,1-5.59,2.4,6,6,0,0,1-6.32-6c0-5.08,4.56-7.52,11.47-7.48v-.28c0-1-.56-2.52-3.55-2.52a11,11,0,0,0-5.4,1.48l-1.12-3.92a16.13,16.13,0,0,1,7.59-1.72c6.52,0,8.6,3.84,8.6,8.44v6.8a30.25,30.25,0,0,0,.28,4.75Zm-.72-9.23c-3.2,0-5.67.72-5.67,3.07a2.19,2.19,0,0,0,2.4,2.33,3.31,3.31,0,0,0,3.15-2.25,4.22,4.22,0,0,0,.12-1Z"/><path class="cls-3" d="M298.86,45.7c0-2.56-.08-4.76-.16-6.56H304l.28,2.72h.08a7.48,7.48,0,0,1,6.51-3.16c4.28,0,8.12,3.72,8.12,10,0,7.11-4.52,10.47-8.87,10.47A6.1,6.1,0,0,1,305,56.89h-.08v9.72h-6.07Zm6.07,4.6a6,6,0,0,0,.13,1.28,3.66,3.66,0,0,0,3.55,2.87c2.64,0,4.2-2.19,4.2-5.51,0-3.12-1.4-5.48-4.12-5.48a3.81,3.81,0,0,0-3.63,3.08,4.7,4.7,0,0,0-.13,1.08Z"/><path class="cls-3" d="M322.78,45.58c0-2.88-.08-4.76-.16-6.44h5.23l.21,3.6h.16a5.72,5.72,0,0,1,5.27-4,6.27,6.27,0,0,1,1.28.08V44.5a8.72,8.72,0,0,0-1.64-.16A3.91,3.91,0,0,0,329,47.42a7.17,7.17,0,0,0-.12,1.36v9.91h-6.07Z"/><path class="cls-3" d="M357,48.7c0,7.16-5.08,10.43-10.32,10.43-5.72,0-10.11-3.76-10.11-10.07S340.69,38.7,347,38.7C353,38.7,357,42.82,357,48.7Zm-14.16.2c0,3.36,1.4,5.87,4,5.87,2.36,0,3.88-2.35,3.88-5.87,0-2.92-1.12-5.88-3.88-5.88C343.89,43,342.81,46,342.81,48.9Z"/><path class="cls-3" d="M356.7,62.29A5.39,5.39,0,0,0,360.3,61c.88-.92,1.2-2.48,1.2-6.36V39.14h6.11v17c0,4.28-1,6.88-2.76,8.56s-4.63,2.4-7.55,2.4ZM367.77,33.7a3,3,0,0,1-3.28,3,3.07,3.07,0,1,1,3.28-3Z"/><path class="cls-3" d="M377.05,50.86c.2,2.51,2.68,3.71,5.52,3.71a17.23,17.23,0,0,0,5.4-.8l.8,4.12a19.31,19.31,0,0,1-7.08,1.2c-6.64,0-10.43-3.84-10.43-10,0-5,3.08-10.44,9.87-10.44,6.32,0,8.72,4.92,8.72,9.76a14.44,14.44,0,0,1-.2,2.4Zm7.16-4.16c0-1.48-.64-4-3.44-4-2.56,0-3.6,2.32-3.76,4Z"/><path class="cls-3" d="M408.17,58.21a14.83,14.83,0,0,1-5.44.88c-6.32,0-10.35-3.84-10.35-10,0-5.72,3.91-10.4,11.19-10.4a14.1,14.1,0,0,1,4.64.76l-1,4.52a8.32,8.32,0,0,0-3.4-.6,5.06,5.06,0,0,0-5.24,5.48A5.08,5.08,0,0,0,404,54.33a9.18,9.18,0,0,0,3.48-.6Z"/><path class="cls-3" d="M419,33.54v5.6h4.36v4.48H419V50.7c0,2.36.56,3.44,2.4,3.44a9.93,9.93,0,0,0,1.8-.16l0,4.59a11.93,11.93,0,0,1-4,.52,6.32,6.32,0,0,1-4.56-1.68c-1.12-1.16-1.68-3-1.68-5.79v-8h-2.6V39.14H413V34.9Z"/><path class="cls-3" d="M426.81,53.37a11.76,11.76,0,0,0,5.24,1.49c1.84,0,2.6-.65,2.6-1.64s-.6-1.49-2.88-2.24c-4-1.36-5.6-3.56-5.56-5.88,0-3.64,3.12-6.4,8-6.4a13.12,13.12,0,0,1,5.52,1.12L438.61,44a9.6,9.6,0,0,0-4.24-1.12c-1.48,0-2.32.6-2.32,1.6s.76,1.4,3.16,2.24c3.72,1.28,5.28,3.16,5.32,6,0,3.64-2.88,6.32-8.48,6.32a13.85,13.85,0,0,1-6.32-1.36Z"/></svg>