<svg id="Layer_1" data-name="Layer 1" xmlns="http://www.w3.org/2000/svg" viewBox="0 0 403.5 88.92"><defs><style>.cls-1{fill:#d69929;}.cls-2{fill:none;stroke:#f9f5d8;stroke-linecap:round;stroke-miterlimit:10;stroke-width:6px;}.cls-3{fill:#f9f5d8;}</style></defs><rect class="cls-1" width="403.5" height="88.92" rx="16.1"/><line class="cls-2" x1="348.1" y1="61.2" x2="363.12" y2="46.19"/><line class="cls-2" x1="363.12" y1="46.19" x2="348.1" y2="31.17"/><path class="cls-3" d="M38.5,52.41a15.55,15.55,0,0,0,6.76,1.68c2.8,0,4.28-1.16,4.28-2.91s-1.28-2.64-4.52-3.8c-4.48-1.56-7.4-4-7.4-8,0-4.6,3.84-8.12,10.2-8.12a16.43,16.43,0,0,1,6.87,1.36l-1.35,4.92A12.82,12.82,0,0,0,47.7,36.3c-2.64,0-3.92,1.2-3.92,2.6,0,1.72,1.52,2.48,5,3.8,4.75,1.76,7,4.24,7,8,0,4.52-3.47,8.36-10.87,8.36a17.64,17.64,0,0,1-7.64-1.64Z"/><path class="cls-3" d="M64.66,50.85c.2,2.52,2.68,3.72,5.52,3.72a17.21,17.21,0,0,0,5.39-.8l.8,4.12a19.29,19.29,0,0,1-7.07,1.2c-6.64,0-10.44-3.84-10.44-10,0-5,3.08-10.44,9.88-10.44,6.31,0,8.71,4.92,8.71,9.76a14.3,14.3,0,0,1-.2,2.39Zm7.16-4.15c0-1.48-.64-4-3.44-4-2.56,0-3.6,2.32-3.76,4Z"/><path class="cls-3" d="M85.78,50.85c.2,2.52,2.68,3.72,5.51,3.72a17.23,17.23,0,0,0,5.4-.8l.8,4.12a19.31,19.31,0,0,1-7.08,1.2c-6.63,0-10.43-3.84-10.43-10,0-5,3.08-10.44,9.88-10.44,6.31,0,8.71,4.92,8.71,9.76a14.3,14.3,0,0,1-.2,2.39Zm7.15-4.15c0-1.48-.64-4-3.43-4-2.56,0-3.6,2.32-3.76,4Z"/><path class="cls-3" d="M117.1,33.54v5.6h4.35v4.48H117.1V50.7c0,2.35.56,3.44,2.4,3.44a9.57,9.57,0,0,0,1.79-.17l0,4.6a11.86,11.86,0,0,1-4,.52,6.32,6.32,0,0,1-4.56-1.68c-1.12-1.16-1.68-3-1.68-5.79v-8h-2.6V39.14h2.6V34.9Z"/><path class="cls-3" d="M125,30.3h6.08V41.46h.08a7.37,7.37,0,0,1,2.39-2,6.83,6.83,0,0,1,3.16-.76c3.88,0,6.84,2.68,6.84,8.56V58.69h-6.08V47.94c0-2.56-.88-4.32-3.16-4.32a3.23,3.23,0,0,0-3,2.12,3.87,3.87,0,0,0-.2,1.36V58.69H125Z"/><path class="cls-3" d="M153.1,50.85c.2,2.52,2.67,3.72,5.51,3.72a17.23,17.23,0,0,0,5.4-.8l.8,4.12a19.31,19.31,0,0,1-7.08,1.2c-6.63,0-10.43-3.84-10.43-10,0-5,3.08-10.44,9.87-10.44,6.32,0,8.72,4.92,8.72,9.76a14.3,14.3,0,0,1-.2,2.39Zm7.15-4.15c0-1.48-.64-4-3.44-4-2.55,0-3.59,2.32-3.75,4Z"/><path class="cls-3" d="M184.41,33.54v5.6h4.36v4.48h-4.36V50.7c0,2.35.56,3.44,2.4,3.44a9.79,9.79,0,0,0,1.8-.17l0,4.6a11.9,11.9,0,0,1-4,.52,6.32,6.32,0,0,1-4.56-1.68c-1.12-1.16-1.68-3-1.68-5.79v-8h-2.6V39.14h2.6V34.9Z"/><path class="cls-3" d="M210.73,52.41c0,2.56.08,4.64.16,6.28h-5.28l-.28-2.76h-.12a7,7,0,0,1-6.12,3.2c-4,0-6.87-2.48-6.87-8.51V39.14h6.11V49.65c0,2.84.92,4.56,3,4.56a3.27,3.27,0,0,0,3-2.12,3.37,3.37,0,0,0,.2-1.31V39.14h6.12Z"/><path class="cls-3" d="M222.41,33.54v5.6h4.36v4.48h-4.36V50.7c0,2.35.56,3.44,2.4,3.44a9.79,9.79,0,0,0,1.8-.17l0,4.6a11.93,11.93,0,0,1-4,.52,6.32,6.32,0,0,1-4.56-1.68c-1.12-1.16-1.68-3-1.68-5.79v-8h-2.59V39.14h2.59V34.9Z"/><path class="cls-3" d="M249.41,48.7c0,7.15-5.08,10.43-10.32,10.43-5.72,0-10.11-3.76-10.11-10.08s4.15-10.35,10.43-10.35C245.41,38.7,249.41,42.82,249.41,48.7Zm-14.16.19c0,3.36,1.4,5.88,4,5.88,2.36,0,3.88-2.36,3.88-5.88C243.13,46,242,43,239.25,43,236.33,43,235.25,46,235.25,48.89Z"/><path class="cls-3" d="M253.18,45.58c0-2.88-.08-4.76-.16-6.44h5.23l.2,3.6h.16a5.75,5.75,0,0,1,5.28-4,6.27,6.27,0,0,1,1.28.08V44.5a8.72,8.72,0,0,0-1.64-.16,3.91,3.91,0,0,0-4.16,3.08,7.17,7.17,0,0,0-.12,1.36v9.91h-6.07Z"/><path class="cls-3" d="M274.65,33.7a3.05,3.05,0,0,1-3.28,3,3.06,3.06,0,1,1,0-6.12A3,3,0,0,1,274.65,33.7Zm-6.28,25V39.14h6.08V58.69Z"/><path class="cls-3" d="M290.45,58.69l-.36-2H290a7,7,0,0,1-5.6,2.4,6,6,0,0,1-6.32-6c0-5.09,4.56-7.52,11.48-7.48v-.28c0-1-.56-2.52-3.56-2.52a11,11,0,0,0-5.4,1.48l-1.12-3.92a16.15,16.15,0,0,1,7.6-1.72c6.52,0,8.6,3.84,8.6,8.44v6.79a30.31,30.31,0,0,0,.28,4.76Zm-.72-9.23c-3.2,0-5.68.72-5.68,3.07a2.18,2.18,0,0,0,2.4,2.32,3.32,3.32,0,0,0,3.16-2.24,4.3,4.3,0,0,0,.12-1Z"/><path class="cls-3" d="M300.45,30.3h6.08V58.69h-6.08Z"/></svg>