<svg id="Layer_1" data-name="Layer 1" xmlns="http://www.w3.org/2000/svg" viewBox="0 0 667.02 88.92"><defs><style>.cls-1{fill:#086778;}.cls-2{fill:none;stroke:#f9f5d8;stroke-linecap:round;stroke-miterlimit:10;stroke-width:6px;}.cls-3{fill:#f9f5d8;}</style></defs><rect class="cls-1" width="667.02" height="88.92" rx="16.1"/><line class="cls-2" x1="606.95" y1="59.48" x2="621.97" y2="44.46"/><line class="cls-2" x1="621.97" y1="44.46" x2="606.95" y2="29.44"/><path class="cls-3" d="M38.5,52.41a15.55,15.55,0,0,0,6.76,1.68c2.8,0,4.28-1.16,4.28-2.91s-1.28-2.64-4.52-3.8c-4.48-1.56-7.4-4-7.4-8,0-4.6,3.84-8.12,10.2-8.12a16.43,16.43,0,0,1,6.87,1.36l-1.35,4.92A12.82,12.82,0,0,0,47.7,36.3c-2.64,0-3.92,1.2-3.92,2.6,0,1.72,1.52,2.48,5,3.8,4.75,1.76,7,4.24,7,8,0,4.51-3.47,8.35-10.87,8.35a17.64,17.64,0,0,1-7.64-1.64Z"/><path class="cls-3" d="M64.66,50.85c.2,2.52,2.68,3.72,5.52,3.72a17.21,17.21,0,0,0,5.39-.8l.8,4.12a19.29,19.29,0,0,1-7.07,1.2c-6.64,0-10.44-3.84-10.44-10,0-5,3.08-10.44,9.88-10.44,6.31,0,8.71,4.92,8.71,9.76a14.3,14.3,0,0,1-.2,2.39Zm7.16-4.15c0-1.48-.64-4-3.44-4-2.56,0-3.6,2.32-3.76,4Z"/><path class="cls-3" d="M85.78,50.85c.2,2.52,2.68,3.72,5.51,3.72a17.23,17.23,0,0,0,5.4-.8l.8,4.12a19.31,19.31,0,0,1-7.08,1.2c-6.63,0-10.43-3.84-10.43-10,0-5,3.08-10.44,9.88-10.44,6.31,0,8.71,4.92,8.71,9.76a14.3,14.3,0,0,1-.2,2.39Zm7.15-4.15c0-1.48-.64-4-3.43-4-2.56,0-3.6,2.32-3.76,4Z"/><path class="cls-3" d="M110.3,45.38c0-2.44-.08-4.52-.16-6.24h5.12l.28,2.64h.12a6.78,6.78,0,0,1,5.92-3.08A5.54,5.54,0,0,1,126.93,42H127a8.75,8.75,0,0,1,2.52-2.36,7.06,7.06,0,0,1,3.72-1c3.76,0,6.6,2.64,6.6,8.48V58.69h-5.92V48.06c0-2.84-.92-4.48-2.88-4.48a3,3,0,0,0-2.8,2.12,5.09,5.09,0,0,0-.24,1.56V58.69H122.1V47.74c0-2.48-.88-4.16-2.8-4.16a3.09,3.09,0,0,0-2.84,2.2,4,4,0,0,0-.24,1.52V58.69H110.3Z"/><path class="cls-3" d="M164,48.7c0,7.15-5.08,10.43-10.32,10.43-5.71,0-10.11-3.76-10.11-10.07S147.74,38.7,154,38.7C160,38.7,164,42.82,164,48.7Zm-14.15.2c0,3.35,1.4,5.87,4,5.87,2.36,0,3.88-2.36,3.88-5.87,0-2.92-1.12-5.88-3.88-5.88S149.86,46,149.86,48.9Z"/><path class="cls-3" d="M167.78,45.58c0-2.88-.08-4.76-.16-6.44h5.23l.21,3.6h.16a5.72,5.72,0,0,1,5.27-4,6.27,6.27,0,0,1,1.28.08V44.5a8.72,8.72,0,0,0-1.64-.16A3.91,3.91,0,0,0,174,47.42a7.17,7.17,0,0,0-.12,1.36v9.91h-6.07Z"/><path class="cls-3" d="M187.33,50.85c.2,2.52,2.68,3.72,5.52,3.72a17.23,17.23,0,0,0,5.4-.8l.8,4.12a19.31,19.31,0,0,1-7.08,1.2c-6.63,0-10.43-3.84-10.43-10,0-5,3.08-10.44,9.87-10.44,6.32,0,8.72,4.92,8.72,9.76a14.3,14.3,0,0,1-.2,2.39Zm7.16-4.15c0-1.48-.64-4-3.44-4-2.56,0-3.6,2.32-3.76,4Z"/><path class="cls-3" d="M230.53,39.14c-.08,1.24-.16,2.88-.16,5.8V55.85c0,3.76-.76,6.84-3,8.8s-5.08,2.4-8,2.4a15.2,15.2,0,0,1-7-1.52l1.2-4.6a12,12,0,0,0,5.67,1.48c2.88,0,5.08-1.56,5.08-5.16V56h-.08A6.25,6.25,0,0,1,219,58.53c-4.83,0-8.27-3.92-8.27-9.55,0-6.28,4.07-10.28,8.87-10.28A5.9,5.9,0,0,1,225,41.46h.08l.2-2.32Zm-6.24,8a4.81,4.81,0,0,0-.12-1.12,3.33,3.33,0,0,0-3.28-2.68c-2.2,0-4,2-4,5.56,0,2.91,1.44,5.19,4,5.19a3.3,3.3,0,0,0,3.2-2.47,5.23,5.23,0,0,0,.2-1.61Z"/><path class="cls-3" d="M235.26,45.58c0-2.88-.08-4.76-.16-6.44h5.23l.2,3.6h.16a5.75,5.75,0,0,1,5.28-4,6.27,6.27,0,0,1,1.28.08V44.5a8.72,8.72,0,0,0-1.64-.16,3.91,3.91,0,0,0-4.16,3.08,7.17,7.17,0,0,0-.12,1.36v9.91h-6.07Z"/><path class="cls-3" d="M261.13,58.69l-.36-2h-.12a7,7,0,0,1-5.6,2.4,6,6,0,0,1-6.31-6c0-5.07,4.56-7.51,11.47-7.47v-.28c0-1-.56-2.52-3.56-2.52a10.93,10.93,0,0,0-5.39,1.48l-1.12-3.92a16.13,16.13,0,0,1,7.59-1.72c6.52,0,8.6,3.84,8.6,8.44v6.79a30.31,30.31,0,0,0,.28,4.76Zm-.72-9.23c-3.2,0-5.68.72-5.68,3.07a2.18,2.18,0,0,0,2.4,2.32,3.32,3.32,0,0,0,3.16-2.24,4.34,4.34,0,0,0,.12-1Z"/><path class="cls-3" d="M271.14,45.7c0-2.56-.08-4.76-.16-6.56h5.27l.28,2.72h.08a7.51,7.51,0,0,1,6.52-3.16c4.28,0,8.12,3.72,8.12,10,0,7.11-4.52,10.47-8.88,10.47a6.08,6.08,0,0,1-5.08-2.24h-.08v9.72h-6.07Zm6.07,4.6a6.06,6.06,0,0,0,.12,1.28,3.68,3.68,0,0,0,3.56,2.87c2.64,0,4.2-2.2,4.2-5.51,0-3.12-1.4-5.48-4.12-5.48a3.82,3.82,0,0,0-3.64,3.08,4.7,4.7,0,0,0-.12,1.08Z"/><path class="cls-3" d="M295.06,30.3h6.07V41.46h.08a7.3,7.3,0,0,1,2.4-2,6.83,6.83,0,0,1,3.16-.76c3.88,0,6.84,2.68,6.84,8.56V58.69h-6.08V47.94c0-2.56-.88-4.32-3.16-4.32a3.23,3.23,0,0,0-3,2.12,3.87,3.87,0,0,0-.2,1.36V58.69h-6.07Z"/><path class="cls-3" d="M324.77,33.7a3.05,3.05,0,0,1-3.28,3,3.06,3.06,0,1,1,0-6.12A3,3,0,0,1,324.77,33.7Zm-6.27,25V39.14h6.07V58.69Z"/><path class="cls-3" d="M344.13,58.21a14.83,14.83,0,0,1-5.44.88c-6.32,0-10.35-3.84-10.35-10,0-5.72,3.91-10.4,11.19-10.4a14.1,14.1,0,0,1,4.64.76l-1,4.52a8.32,8.32,0,0,0-3.4-.6,5.06,5.06,0,0,0-5.24,5.48,5.09,5.09,0,0,0,5.36,5.47,9.38,9.38,0,0,0,3.48-.6Z"/><path class="cls-3" d="M374.53,30.3V52.85c0,2.2.08,4.52.16,5.84h-5.4L369,55.81h-.08a6.83,6.83,0,0,1-6.12,3.32c-4.64,0-8.36-4-8.36-10,0-6.6,4.08-10.4,8.76-10.4,2.4,0,4.28.84,5.16,2.2h.08V30.3Zm-6.08,17.12a9.81,9.81,0,0,0-.08-1.08,3.65,3.65,0,0,0-3.56-3c-2.76,0-4.2,2.48-4.2,5.56,0,3.31,1.64,5.39,4.16,5.39a3.56,3.56,0,0,0,3.52-2.92,5.18,5.18,0,0,0,.16-1.4Z"/><path class="cls-3" d="M384.09,50.85c.2,2.52,2.68,3.72,5.52,3.72a17.23,17.23,0,0,0,5.4-.8l.8,4.12a19.31,19.31,0,0,1-7.08,1.2c-6.64,0-10.44-3.84-10.44-10,0-5,3.08-10.44,9.88-10.44,6.32,0,8.72,4.92,8.72,9.76a14.3,14.3,0,0,1-.2,2.39Zm7.16-4.15c0-1.48-.64-4-3.44-4-2.56,0-3.6,2.32-3.76,4Z"/><path class="cls-3" d="M400.49,53.37a11.89,11.89,0,0,0,5.24,1.48c1.84,0,2.6-.64,2.6-1.64s-.6-1.48-2.88-2.24c-4-1.35-5.6-3.55-5.56-5.87,0-3.64,3.12-6.4,8-6.4a13.12,13.12,0,0,1,5.52,1.12L412.29,44a9.6,9.6,0,0,0-4.24-1.12c-1.48,0-2.32.6-2.32,1.6s.76,1.4,3.16,2.24c3.72,1.28,5.28,3.16,5.32,6,0,3.64-2.88,6.32-8.48,6.32a13.85,13.85,0,0,1-6.32-1.36Z"/><path class="cls-3" d="M424.17,33.7a3.05,3.05,0,0,1-3.28,3,3.06,3.06,0,1,1,0-6.12A3,3,0,0,1,424.17,33.7Zm-6.28,25V39.14H424V58.69Z"/><path class="cls-3" d="M447.53,39.14c-.08,1.24-.16,2.88-.16,5.8V55.85c0,3.76-.76,6.84-3,8.8s-5.08,2.4-8,2.4a15.25,15.25,0,0,1-7-1.52l1.2-4.6a12,12,0,0,0,5.68,1.48c2.88,0,5.08-1.56,5.08-5.16V56h-.08A6.25,6.25,0,0,1,436,58.53c-4.84,0-8.28-3.92-8.28-9.55,0-6.28,4.08-10.28,8.88-10.28A5.9,5.9,0,0,1,442,41.46h.08l.2-2.32Zm-6.24,8a4.81,4.81,0,0,0-.12-1.12,3.33,3.33,0,0,0-3.28-2.68c-2.2,0-4,2-4,5.56,0,2.91,1.44,5.19,4,5.19a3.3,3.3,0,0,0,3.2-2.47,5.23,5.23,0,0,0,.2-1.61Z"/><path class="cls-3" d="M452.25,45.38c0-2.44-.08-4.52-.16-6.24h5.28l.28,2.68h.12a7.16,7.16,0,0,1,6-3.12c4,0,7,2.64,7,8.4V58.69h-6.08V47.86c0-2.52-.88-4.24-3.08-4.24a3.25,3.25,0,0,0-3.08,2.28,4.18,4.18,0,0,0-.24,1.52V58.69h-6.08Z"/><path class="cls-3" d="M488,39.14l1.56,8c.4,2,.8,4.19,1.12,6.43h.08c.4-2.24,1-4.47,1.44-6.39l2.08-8h4.8l2,7.8c.52,2.2,1,4.39,1.44,6.63h.08c.28-2.24.68-4.43,1.12-6.67l1.68-7.76h6l-6,19.55h-5.72l-1.84-6.88c-.48-1.91-.84-3.67-1.24-6.07h-.08a45.6,45.6,0,0,1-1.28,6.07l-2,6.88h-5.72l-5.68-19.55Z"/><path class="cls-3" d="M532.85,48.7c0,7.15-5.08,10.43-10.32,10.43-5.72,0-10.12-3.76-10.12-10.07s4.16-10.36,10.44-10.36C528.85,38.7,532.85,42.82,532.85,48.7Zm-14.16.2c0,3.35,1.4,5.87,4,5.87,2.36,0,3.88-2.36,3.88-5.87,0-2.92-1.12-5.88-3.88-5.88C519.77,43,518.69,46,518.69,48.9Z"/><path class="cls-3" d="M536.61,45.58c0-2.88-.08-4.76-.16-6.44h5.24l.2,3.6h.16a5.75,5.75,0,0,1,5.28-4,6.27,6.27,0,0,1,1.28.08V44.5a8.72,8.72,0,0,0-1.64-.16,3.91,3.91,0,0,0-4.16,3.08,7.17,7.17,0,0,0-.12,1.36v9.91h-6.08Z"/><path class="cls-3" d="M557.77,47.38h.08c.44-.8.92-1.6,1.4-2.36l4-5.88h7.32l-7,7.92,8,11.63h-7.48l-4.72-8-1.56,1.91v6.12h-6.08V30.3h6.08Z"/></svg>