<svg id="Layer_1" data-name="Layer 1" xmlns="http://www.w3.org/2000/svg" viewBox="0 0 466.62 88.92"><defs><style>.cls-1{fill:#ae3d24;}.cls-2{fill:#f9f5d8;}.cls-3{fill:none;stroke:#f9f5d8;stroke-linecap:round;stroke-miterlimit:10;stroke-width:6px;}</style></defs><rect class="cls-1" width="466.62" height="88.92" rx="16.1"/><path class="cls-2" d="M38.5,52.42a15.55,15.55,0,0,0,6.76,1.68c2.8,0,4.28-1.16,4.28-2.92s-1.28-2.64-4.52-3.8c-4.48-1.56-7.4-4-7.4-8,0-4.6,3.84-8.12,10.2-8.12a16.43,16.43,0,0,1,6.87,1.36l-1.35,4.92A12.82,12.82,0,0,0,47.7,36.3c-2.64,0-3.92,1.2-3.92,2.6,0,1.72,1.52,2.48,5,3.8,4.75,1.76,7,4.24,7,8,0,4.51-3.47,8.35-10.87,8.35a17.64,17.64,0,0,1-7.64-1.64Z"/><path class="cls-2" d="M64.66,50.86c.2,2.51,2.68,3.72,5.52,3.72a17.5,17.5,0,0,0,5.39-.8l.8,4.11a19.29,19.29,0,0,1-7.07,1.2c-6.64,0-10.44-3.84-10.44-10,0-5,3.08-10.44,9.88-10.44,6.31,0,8.71,4.92,8.71,9.76a14.44,14.44,0,0,1-.2,2.4Zm7.16-4.16c0-1.48-.64-4-3.44-4-2.56,0-3.6,2.32-3.76,4Z"/><path class="cls-2" d="M85.78,50.86c.2,2.51,2.68,3.72,5.51,3.72a17.52,17.52,0,0,0,5.4-.8l.8,4.11a19.31,19.31,0,0,1-7.08,1.2c-6.63,0-10.43-3.84-10.43-10,0-5,3.08-10.44,9.88-10.44,6.31,0,8.71,4.92,8.71,9.76a14.44,14.44,0,0,1-.2,2.4Zm7.15-4.16c0-1.48-.64-4-3.43-4-2.56,0-3.6,2.32-3.76,4Z"/><path class="cls-2" d="M117.1,33.54v5.6h4.35v4.48H117.1V50.7c0,2.35.56,3.43,2.4,3.43a9.71,9.71,0,0,0,1.79-.16l0,4.6a11.86,11.86,0,0,1-4,.52,6.32,6.32,0,0,1-4.56-1.68c-1.12-1.16-1.68-3-1.68-5.79v-8h-2.6V39.14h2.6V34.9Z"/><path class="cls-2" d="M125,30.3h6.08V41.46h.08a7.37,7.37,0,0,1,2.39-2,6.83,6.83,0,0,1,3.16-.76c3.88,0,6.84,2.68,6.84,8.56V58.69h-6.08V47.94c0-2.56-.88-4.32-3.16-4.32a3.23,3.23,0,0,0-3,2.12,3.87,3.87,0,0,0-.2,1.36V58.69H125Z"/><path class="cls-2" d="M153.1,50.86c.2,2.51,2.67,3.72,5.51,3.72a17.52,17.52,0,0,0,5.4-.8l.8,4.11a19.31,19.31,0,0,1-7.08,1.2c-6.63,0-10.43-3.84-10.43-10,0-5,3.08-10.44,9.87-10.44,6.32,0,8.72,4.92,8.72,9.76a14.44,14.44,0,0,1-.2,2.4Zm7.15-4.16c0-1.48-.64-4-3.44-4-2.55,0-3.59,2.32-3.75,4Z"/><path class="cls-2" d="M178.3,58.69V43.62h-2.56V39.14h2.56v-.76a8.92,8.92,0,0,1,2.48-6.56,7.9,7.9,0,0,1,5.39-2,11.68,11.68,0,0,1,3.24.4l-.24,4.68a6.58,6.58,0,0,0-2-.28c-2,0-2.84,1.56-2.84,3.48v1h3.92v4.48h-3.88V58.69Z"/><path class="cls-2" d="M209.69,52.42c0,2.55.08,4.63.16,6.27h-5.28l-.28-2.76h-.12a7,7,0,0,1-6.12,3.2c-4,0-6.87-2.48-6.87-8.51V39.14h6.11V49.66c0,2.84.92,4.55,3,4.55a3.28,3.28,0,0,0,3-2.11,3.4,3.4,0,0,0,.2-1.32V39.14h6.12Z"/><path class="cls-2" d="M214.58,30.3h6.07V58.69h-6.07Z"/><path class="cls-2" d="M225.58,30.3h6.07V58.69h-6.07Z"/><path class="cls-2" d="M244.65,45.7c0-2.56-.08-4.76-.16-6.56h5.28l.28,2.72h.08a7.51,7.51,0,0,1,6.52-3.16c4.28,0,8.12,3.72,8.12,10,0,7.12-4.52,10.47-8.88,10.47a6.08,6.08,0,0,1-5.08-2.24h-.08v9.72h-6.08Zm6.08,4.6a6.06,6.06,0,0,0,.12,1.28,3.68,3.68,0,0,0,3.56,2.87c2.64,0,4.2-2.19,4.2-5.51,0-3.12-1.4-5.48-4.12-5.48a3.82,3.82,0,0,0-3.64,3.08,4.7,4.7,0,0,0-.12,1.08Z"/><path class="cls-2" d="M268.57,45.58c0-2.88-.08-4.76-.16-6.44h5.24l.2,3.6H274a5.75,5.75,0,0,1,5.28-4,6.27,6.27,0,0,1,1.28.08V44.5a8.72,8.72,0,0,0-1.64-.16,3.91,3.91,0,0,0-4.16,3.08,7.17,7.17,0,0,0-.12,1.36v9.91h-6.08Z"/><path class="cls-2" d="M302.77,48.7c0,7.16-5.08,10.43-10.32,10.43-5.72,0-10.12-3.76-10.12-10.07s4.16-10.36,10.44-10.36C298.77,38.7,302.77,42.82,302.77,48.7Zm-14.16.2c0,3.36,1.4,5.88,4,5.88,2.36,0,3.88-2.36,3.88-5.88,0-2.92-1.12-5.88-3.88-5.88C289.69,43,288.61,46,288.61,48.9Z"/><path class="cls-2" d="M302.5,62.29A5.36,5.36,0,0,0,306.09,61c.88-.92,1.2-2.48,1.2-6.36V39.14h6.12v17c0,4.28-1,6.88-2.76,8.56s-4.64,2.4-7.55,2.4ZM313.57,33.7a3,3,0,0,1-3.28,3,3.07,3.07,0,1,1,3.28-3Z"/><path class="cls-2" d="M322.85,50.86c.2,2.51,2.68,3.72,5.52,3.72a17.52,17.52,0,0,0,5.4-.8l.8,4.11a19.31,19.31,0,0,1-7.08,1.2c-6.64,0-10.44-3.84-10.44-10,0-5,3.08-10.44,9.88-10.44,6.32,0,8.72,4.92,8.72,9.76a14.44,14.44,0,0,1-.2,2.4ZM330,46.7c0-1.48-.64-4-3.44-4-2.56,0-3.6,2.32-3.76,4Z"/><path class="cls-2" d="M354,58.21a14.83,14.83,0,0,1-5.44.88c-6.32,0-10.36-3.84-10.36-10,0-5.72,3.92-10.4,11.2-10.4a14.1,14.1,0,0,1,4.64.76l-1,4.52a8.32,8.32,0,0,0-3.4-.6,5.06,5.06,0,0,0-5.24,5.48,5.09,5.09,0,0,0,5.36,5.47,9.4,9.4,0,0,0,3.48-.59Z"/><path class="cls-2" d="M364.77,33.54v5.6h4.36v4.48h-4.36V50.7c0,2.35.56,3.43,2.4,3.43A9.93,9.93,0,0,0,369,54l0,4.6a11.93,11.93,0,0,1-4,.52,6.32,6.32,0,0,1-4.56-1.68c-1.12-1.16-1.68-3-1.68-5.79v-8h-2.6V39.14h2.6V34.9Z"/><line class="cls-3" x1="408.08" y1="61.2" x2="423.1" y2="46.19"/><line class="cls-3" x1="423.1" y1="46.19" x2="408.08" y2="31.17"/><path class="cls-2" d="M38.5,52.42a15.55,15.55,0,0,0,6.76,1.68c2.8,0,4.28-1.16,4.28-2.92s-1.28-2.64-4.52-3.8c-4.48-1.56-7.4-4-7.4-8,0-4.6,3.84-8.12,10.2-8.12a16.43,16.43,0,0,1,6.87,1.36l-1.35,4.92A12.82,12.82,0,0,0,47.7,36.3c-2.64,0-3.92,1.2-3.92,2.6,0,1.72,1.52,2.48,5,3.8,4.75,1.76,7,4.24,7,8,0,4.51-3.47,8.35-10.87,8.35a17.64,17.64,0,0,1-7.64-1.64Z"/><path class="cls-2" d="M64.66,50.86c.2,2.51,2.68,3.72,5.52,3.72a17.5,17.5,0,0,0,5.39-.8l.8,4.11a19.29,19.29,0,0,1-7.07,1.2c-6.64,0-10.44-3.84-10.44-10,0-5,3.08-10.44,9.88-10.44,6.31,0,8.71,4.92,8.71,9.76a14.44,14.44,0,0,1-.2,2.4Zm7.16-4.16c0-1.48-.64-4-3.44-4-2.56,0-3.6,2.32-3.76,4Z"/><path class="cls-2" d="M85.78,50.86c.2,2.51,2.68,3.72,5.51,3.72a17.52,17.52,0,0,0,5.4-.8l.8,4.11a19.31,19.31,0,0,1-7.08,1.2c-6.63,0-10.43-3.84-10.43-10,0-5,3.08-10.44,9.88-10.44,6.31,0,8.71,4.92,8.71,9.76a14.44,14.44,0,0,1-.2,2.4Zm7.15-4.16c0-1.48-.64-4-3.43-4-2.56,0-3.6,2.32-3.76,4Z"/><path class="cls-2" d="M117.1,33.54v5.6h4.35v4.48H117.1V50.7c0,2.35.56,3.43,2.4,3.43a9.71,9.71,0,0,0,1.79-.16l0,4.6a11.86,11.86,0,0,1-4,.52,6.32,6.32,0,0,1-4.56-1.68c-1.12-1.16-1.68-3-1.68-5.79v-8h-2.6V39.14h2.6V34.9Z"/><path class="cls-2" d="M125,30.3h6.08V41.46h.08a7.37,7.37,0,0,1,2.39-2,6.83,6.83,0,0,1,3.16-.76c3.88,0,6.84,2.68,6.84,8.56V58.69h-6.08V47.94c0-2.56-.88-4.32-3.16-4.32a3.23,3.23,0,0,0-3,2.12,3.87,3.87,0,0,0-.2,1.36V58.69H125Z"/><path class="cls-2" d="M153.1,50.86c.2,2.51,2.67,3.72,5.51,3.72a17.52,17.52,0,0,0,5.4-.8l.8,4.11a19.31,19.31,0,0,1-7.08,1.2c-6.63,0-10.43-3.84-10.43-10,0-5,3.08-10.44,9.87-10.44,6.32,0,8.72,4.92,8.72,9.76a14.44,14.44,0,0,1-.2,2.4Zm7.15-4.16c0-1.48-.64-4-3.44-4-2.55,0-3.59,2.32-3.75,4Z"/><path class="cls-2" d="M178.3,58.69V43.62h-2.56V39.14h2.56v-.76a8.92,8.92,0,0,1,2.48-6.56,7.9,7.9,0,0,1,5.39-2,11.68,11.68,0,0,1,3.24.4l-.24,4.68a6.58,6.58,0,0,0-2-.28c-2,0-2.84,1.56-2.84,3.48v1h3.92v4.48h-3.88V58.69Z"/><path class="cls-2" d="M209.69,52.42c0,2.55.08,4.63.16,6.27h-5.28l-.28-2.76h-.12a7,7,0,0,1-6.12,3.2c-4,0-6.87-2.48-6.87-8.51V39.14h6.11V49.66c0,2.84.92,4.55,3,4.55a3.28,3.28,0,0,0,3-2.11,3.4,3.4,0,0,0,.2-1.32V39.14h6.12Z"/><path class="cls-2" d="M214.58,30.3h6.07V58.69h-6.07Z"/><path class="cls-2" d="M225.58,30.3h6.07V58.69h-6.07Z"/><path class="cls-2" d="M244.65,45.7c0-2.56-.08-4.76-.16-6.56h5.28l.28,2.72h.08a7.51,7.51,0,0,1,6.52-3.16c4.28,0,8.12,3.72,8.12,10,0,7.12-4.52,10.47-8.88,10.47a6.08,6.08,0,0,1-5.08-2.24h-.08v9.72h-6.08Zm6.08,4.6a6.06,6.06,0,0,0,.12,1.28,3.68,3.68,0,0,0,3.56,2.87c2.64,0,4.2-2.19,4.2-5.51,0-3.12-1.4-5.48-4.12-5.48a3.82,3.82,0,0,0-3.64,3.08,4.7,4.7,0,0,0-.12,1.08Z"/><path class="cls-2" d="M268.57,45.58c0-2.88-.08-4.76-.16-6.44h5.24l.2,3.6H274a5.75,5.75,0,0,1,5.28-4,6.27,6.27,0,0,1,1.28.08V44.5a8.72,8.72,0,0,0-1.64-.16,3.91,3.91,0,0,0-4.16,3.08,7.17,7.17,0,0,0-.12,1.36v9.91h-6.08Z"/><path class="cls-2" d="M302.77,48.7c0,7.16-5.08,10.43-10.32,10.43-5.72,0-10.12-3.76-10.12-10.07s4.16-10.36,10.44-10.36C298.77,38.7,302.77,42.82,302.77,48.7Zm-14.16.2c0,3.36,1.4,5.88,4,5.88,2.36,0,3.88-2.36,3.88-5.88,0-2.92-1.12-5.88-3.88-5.88C289.69,43,288.61,46,288.61,48.9Z"/><path class="cls-2" d="M302.5,62.29A5.36,5.36,0,0,0,306.09,61c.88-.92,1.2-2.48,1.2-6.36V39.14h6.12v17c0,4.28-1,6.88-2.76,8.56s-4.64,2.4-7.55,2.4ZM313.57,33.7a3,3,0,0,1-3.28,3,3.07,3.07,0,1,1,3.28-3Z"/><path class="cls-2" d="M322.85,50.86c.2,2.51,2.68,3.72,5.52,3.72a17.52,17.52,0,0,0,5.4-.8l.8,4.11a19.31,19.31,0,0,1-7.08,1.2c-6.64,0-10.44-3.84-10.44-10,0-5,3.08-10.44,9.88-10.44,6.32,0,8.72,4.92,8.72,9.76a14.44,14.44,0,0,1-.2,2.4ZM330,46.7c0-1.48-.64-4-3.44-4-2.56,0-3.6,2.32-3.76,4Z"/><path class="cls-2" d="M354,58.21a14.83,14.83,0,0,1-5.44.88c-6.32,0-10.36-3.84-10.36-10,0-5.72,3.92-10.4,11.2-10.4a14.1,14.1,0,0,1,4.64.76l-1,4.52a8.32,8.32,0,0,0-3.4-.6,5.06,5.06,0,0,0-5.24,5.48,5.09,5.09,0,0,0,5.36,5.47,9.4,9.4,0,0,0,3.48-.59Z"/><path class="cls-2" d="M364.77,33.54v5.6h4.36v4.48h-4.36V50.7c0,2.35.56,3.43,2.4,3.43A9.93,9.93,0,0,0,369,54l0,4.6a11.93,11.93,0,0,1-4,.52,6.32,6.32,0,0,1-4.56-1.68c-1.12-1.16-1.68-3-1.68-5.79v-8h-2.6V39.14h2.6V34.9Z"/></svg>