<svg id="Layer_1" data-name="Layer 1" xmlns="http://www.w3.org/2000/svg" viewBox="0 0 587.2 88.92"><defs><style>.cls-1{fill:#437b58;}.cls-2{fill:#f9f5d8;}.cls-3{fill:none;stroke:#f9f5d8;stroke-linecap:round;stroke-miterlimit:10;stroke-width:6px;}</style></defs><rect class="cls-1" width="587.2" height="88.92" rx="16.1"/><path class="cls-2" d="M38.5,52.42a15.55,15.55,0,0,0,6.76,1.68c2.8,0,4.28-1.17,4.28-2.92s-1.28-2.64-4.52-3.8c-4.48-1.56-7.4-4-7.4-8,0-4.6,3.84-8.12,10.2-8.12a16.43,16.43,0,0,1,6.87,1.36l-1.35,4.92A12.82,12.82,0,0,0,47.7,36.3c-2.64,0-3.92,1.2-3.92,2.6,0,1.72,1.52,2.48,5,3.8,4.75,1.76,7,4.24,7,8,0,4.51-3.47,8.35-10.87,8.35a17.64,17.64,0,0,1-7.64-1.64Z"/><path class="cls-2" d="M64.66,50.85c.2,2.52,2.68,3.72,5.52,3.72a17.21,17.21,0,0,0,5.39-.8l.8,4.12a19.29,19.29,0,0,1-7.07,1.2c-6.64,0-10.44-3.84-10.44-10,0-5,3.08-10.44,9.88-10.44,6.31,0,8.71,4.92,8.71,9.76a14.19,14.19,0,0,1-.2,2.39Zm7.16-4.15c0-1.48-.64-4-3.44-4-2.56,0-3.6,2.32-3.76,4Z"/><path class="cls-2" d="M85.78,50.85c.2,2.52,2.68,3.72,5.51,3.72a17.23,17.23,0,0,0,5.4-.8l.8,4.12a19.31,19.31,0,0,1-7.08,1.2c-6.63,0-10.43-3.84-10.43-10,0-5,3.08-10.44,9.88-10.44,6.31,0,8.71,4.92,8.71,9.76a14.19,14.19,0,0,1-.2,2.39Zm7.15-4.15c0-1.48-.64-4-3.43-4-2.56,0-3.6,2.32-3.76,4Z"/><path class="cls-2" d="M111,58.69V43.62h-2.56V39.14H111v-.76a8.92,8.92,0,0,1,2.48-6.56,7.92,7.92,0,0,1,5.4-2,11.68,11.68,0,0,1,3.24.4l-.25,4.68a6.5,6.5,0,0,0-1.95-.28c-2,0-2.84,1.56-2.84,3.48v1H121v4.48H117.1V58.69Z"/><path class="cls-2" d="M142.37,52.42c0,2.55.08,4.63.16,6.27h-5.28L137,55.93h-.12a7,7,0,0,1-6.11,3.2c-4,0-6.88-2.48-6.88-8.51V39.14H130V49.66c0,2.84.92,4.55,3,4.55a3.26,3.26,0,0,0,3-2.11,3.43,3.43,0,0,0,.2-1.32V39.14h6.12Z"/><path class="cls-2" d="M147.26,30.3h6.07V58.69h-6.07Z"/><path class="cls-2" d="M158.26,30.3h6.07V58.69h-6.07Z"/><path class="cls-2" d="M182.41,58.69l-8.63-26.95h6.67l3.28,11.4c.92,3.2,1.76,6.28,2.4,9.63h.12c.68-3.23,1.52-6.43,2.44-9.51l3.44-11.52h6.48l-9.08,27Z"/><path class="cls-2" d="M206.49,33.7a3,3,0,0,1-3.27,3,3.06,3.06,0,1,1,0-6.12A3,3,0,0,1,206.49,33.7Zm-6.27,25V39.14h6.07V58.69Z"/><path class="cls-2" d="M211.17,45.38c0-2.44-.08-4.52-.16-6.24h5.12l.28,2.64h.12a6.78,6.78,0,0,1,5.92-3.08A5.54,5.54,0,0,1,227.81,42h.08a8.75,8.75,0,0,1,2.52-2.36,7.06,7.06,0,0,1,3.72-1c3.76,0,6.6,2.64,6.6,8.48V58.69h-5.92V48.06c0-2.84-.92-4.48-2.88-4.48a3,3,0,0,0-2.8,2.12,5.09,5.09,0,0,0-.24,1.56V58.69H223V47.74c0-2.48-.88-4.16-2.8-4.16a3.09,3.09,0,0,0-2.84,2.2,4,4,0,0,0-.24,1.52V58.69h-5.92Z"/><path class="cls-2" d="M268.33,58.21a14.83,14.83,0,0,1-5.44.88c-6.32,0-10.36-3.84-10.36-10,0-5.72,3.92-10.4,11.2-10.4a14.1,14.1,0,0,1,4.64.76l-1,4.52a8.32,8.32,0,0,0-3.4-.6,5.06,5.06,0,0,0-5.24,5.48,5.08,5.08,0,0,0,5.36,5.47,9.18,9.18,0,0,0,3.48-.6Z"/><path class="cls-2" d="M290.57,48.7c0,7.15-5.08,10.43-10.32,10.43-5.72,0-10.12-3.76-10.12-10.07s4.16-10.36,10.44-10.36C286.57,38.7,290.57,42.82,290.57,48.7Zm-14.16.2c0,3.36,1.4,5.87,4,5.87,2.36,0,3.88-2.35,3.88-5.87,0-2.92-1.12-5.88-3.88-5.88C277.49,43,276.41,46,276.41,48.9Z"/><path class="cls-2" d="M294.33,45.38c0-2.44-.08-4.52-.16-6.24h5.28l.28,2.68h.12a7.16,7.16,0,0,1,6-3.12c4,0,7,2.64,7,8.4V58.69h-6.08V47.86c0-2.52-.88-4.24-3.08-4.24a3.25,3.25,0,0,0-3.08,2.28,4.18,4.18,0,0,0-.24,1.52V58.69h-6.08Z"/><path class="cls-2" d="M318.45,58.69V43.62h-2.56V39.14h2.56V38.3c0-5.4,4.2-8.44,10.24-8.44a13.11,13.11,0,0,1,5.76,1.2l-1.16,4.6a9.58,9.58,0,0,0-4.44-1c-3.2,0-4.32,1.64-4.32,3.8v.68h11.88V58.69h-6.08V43.62h-5.76V58.69Z"/><path class="cls-2" d="M360,39.14c-.08,1.24-.16,2.88-.16,5.8V55.85c0,3.76-.76,6.84-3,8.8s-5.08,2.4-8,2.4a15.25,15.25,0,0,1-7-1.52l1.2-4.6a12,12,0,0,0,5.68,1.48c2.88,0,5.08-1.56,5.08-5.16V56h-.08a6.25,6.25,0,0,1-5.28,2.56c-4.84,0-8.28-3.92-8.28-9.55,0-6.28,4.08-10.28,8.88-10.28a5.9,5.9,0,0,1,5.36,2.76h.08l.2-2.32Zm-6.24,8a4.81,4.81,0,0,0-.12-1.12,3.33,3.33,0,0,0-3.28-2.68c-2.2,0-4,2-4,5.56,0,2.91,1.44,5.2,4,5.2a3.31,3.31,0,0,0,3.2-2.48,5.19,5.19,0,0,0,.2-1.61Z"/><path class="cls-2" d="M383.13,52.42c0,2.55.08,4.63.16,6.27H378l-.28-2.76h-.12a7,7,0,0,1-6.12,3.2c-4,0-6.88-2.48-6.88-8.51V39.14h6.12V49.66c0,2.84.92,4.55,3,4.55a3.26,3.26,0,0,0,3-2.11,3.43,3.43,0,0,0,.2-1.32V39.14h6.12Z"/><path class="cls-2" d="M388,45.58c0-2.88-.08-4.76-.16-6.44h5.24l.2,3.6h.16a5.75,5.75,0,0,1,5.28-4,6.27,6.27,0,0,1,1.28.08V44.5a8.72,8.72,0,0,0-1.64-.16,3.91,3.91,0,0,0-4.16,3.08,7.17,7.17,0,0,0-.12,1.36v9.91H388Z"/><path class="cls-2" d="M413.89,58.69l-.36-2h-.12a7,7,0,0,1-5.6,2.4,6,6,0,0,1-6.32-6c0-5.08,4.56-7.52,11.48-7.48v-.28c0-1-.56-2.52-3.56-2.52a11,11,0,0,0-5.4,1.48l-1.12-3.92a16.15,16.15,0,0,1,7.6-1.72c6.52,0,8.6,3.84,8.6,8.44v6.79a30.31,30.31,0,0,0,.28,4.76Zm-.72-9.23c-3.2,0-5.68.72-5.68,3.07a2.18,2.18,0,0,0,2.4,2.32,3.32,3.32,0,0,0,3.16-2.24,4.28,4.28,0,0,0,.12-1Z"/><path class="cls-2" d="M430.37,33.54v5.6h4.36v4.48h-4.36V50.7c0,2.36.56,3.44,2.4,3.44a9,9,0,0,0,1.8-.17l0,4.6a11.93,11.93,0,0,1-4,.52,6.32,6.32,0,0,1-4.56-1.68c-1.12-1.16-1.68-3-1.68-5.79v-8h-2.6V39.14h2.6V34.9Z"/><path class="cls-2" d="M444.53,33.7a3.05,3.05,0,0,1-3.28,3,3.06,3.06,0,1,1,0-6.12A3,3,0,0,1,444.53,33.7Zm-6.28,25V39.14h6.08V58.69Z"/><path class="cls-2" d="M468.53,48.7c0,7.15-5.08,10.43-10.32,10.43-5.72,0-10.12-3.76-10.12-10.07s4.16-10.36,10.44-10.36C464.53,38.7,468.53,42.82,468.53,48.7Zm-14.16.2c0,3.36,1.4,5.87,4,5.87,2.36,0,3.88-2.35,3.88-5.87,0-2.92-1.12-5.88-3.88-5.88C455.45,43,454.37,46,454.37,48.9Z"/><path class="cls-2" d="M472.29,45.38c0-2.44-.08-4.52-.16-6.24h5.28l.28,2.68h.12a7.16,7.16,0,0,1,6-3.12c4,0,7,2.64,7,8.4V58.69h-6.08V47.86c0-2.52-.88-4.24-3.08-4.24a3.25,3.25,0,0,0-3.08,2.28,4.18,4.18,0,0,0-.24,1.52V58.69h-6.08Z"/><line class="cls-3" x1="527.57" y1="61.83" x2="542.59" y2="46.81"/><line class="cls-3" x1="542.59" y1="46.81" x2="527.57" y2="31.79"/><path class="cls-2" d="M38.5,52.42a15.55,15.55,0,0,0,6.76,1.68c2.8,0,4.28-1.17,4.28-2.92s-1.28-2.64-4.52-3.8c-4.48-1.56-7.4-4-7.4-8,0-4.6,3.84-8.12,10.2-8.12a16.43,16.43,0,0,1,6.87,1.36l-1.35,4.92A12.82,12.82,0,0,0,47.7,36.3c-2.64,0-3.92,1.2-3.92,2.6,0,1.72,1.52,2.48,5,3.8,4.75,1.76,7,4.24,7,8,0,4.51-3.47,8.35-10.87,8.35a17.64,17.64,0,0,1-7.64-1.64Z"/><path class="cls-2" d="M64.66,50.85c.2,2.52,2.68,3.72,5.52,3.72a17.21,17.21,0,0,0,5.39-.8l.8,4.12a19.29,19.29,0,0,1-7.07,1.2c-6.64,0-10.44-3.84-10.44-10,0-5,3.08-10.44,9.88-10.44,6.31,0,8.71,4.92,8.71,9.76a14.19,14.19,0,0,1-.2,2.39Zm7.16-4.15c0-1.48-.64-4-3.44-4-2.56,0-3.6,2.32-3.76,4Z"/><path class="cls-2" d="M85.78,50.85c.2,2.52,2.68,3.72,5.51,3.72a17.23,17.23,0,0,0,5.4-.8l.8,4.12a19.31,19.31,0,0,1-7.08,1.2c-6.63,0-10.43-3.84-10.43-10,0-5,3.08-10.44,9.88-10.44,6.31,0,8.71,4.92,8.71,9.76a14.19,14.19,0,0,1-.2,2.39Zm7.15-4.15c0-1.48-.64-4-3.43-4-2.56,0-3.6,2.32-3.76,4Z"/><path class="cls-2" d="M111,58.69V43.62h-2.56V39.14H111v-.76a8.92,8.92,0,0,1,2.48-6.56,7.92,7.92,0,0,1,5.4-2,11.68,11.68,0,0,1,3.24.4l-.25,4.68a6.5,6.5,0,0,0-1.95-.28c-2,0-2.84,1.56-2.84,3.48v1H121v4.48H117.1V58.69Z"/><path class="cls-2" d="M142.37,52.42c0,2.55.08,4.63.16,6.27h-5.28L137,55.93h-.12a7,7,0,0,1-6.11,3.2c-4,0-6.88-2.48-6.88-8.51V39.14H130V49.66c0,2.84.92,4.55,3,4.55a3.26,3.26,0,0,0,3-2.11,3.43,3.43,0,0,0,.2-1.32V39.14h6.12Z"/><path class="cls-2" d="M147.26,30.3h6.07V58.69h-6.07Z"/><path class="cls-2" d="M158.26,30.3h6.07V58.69h-6.07Z"/><path class="cls-2" d="M182.41,58.69l-8.63-26.95h6.67l3.28,11.4c.92,3.2,1.76,6.28,2.4,9.63h.12c.68-3.23,1.52-6.43,2.44-9.51l3.44-11.52h6.48l-9.08,27Z"/><path class="cls-2" d="M206.49,33.7a3,3,0,0,1-3.27,3,3.06,3.06,0,1,1,0-6.12A3,3,0,0,1,206.49,33.7Zm-6.27,25V39.14h6.07V58.69Z"/><path class="cls-2" d="M211.17,45.38c0-2.44-.08-4.52-.16-6.24h5.12l.28,2.64h.12a6.78,6.78,0,0,1,5.92-3.08A5.54,5.54,0,0,1,227.81,42h.08a8.75,8.75,0,0,1,2.52-2.36,7.06,7.06,0,0,1,3.72-1c3.76,0,6.6,2.64,6.6,8.48V58.69h-5.92V48.06c0-2.84-.92-4.48-2.88-4.48a3,3,0,0,0-2.8,2.12,5.09,5.09,0,0,0-.24,1.56V58.69H223V47.74c0-2.48-.88-4.16-2.8-4.16a3.09,3.09,0,0,0-2.84,2.2,4,4,0,0,0-.24,1.52V58.69h-5.92Z"/><path class="cls-2" d="M268.33,58.21a14.83,14.83,0,0,1-5.44.88c-6.32,0-10.36-3.84-10.36-10,0-5.72,3.92-10.4,11.2-10.4a14.1,14.1,0,0,1,4.64.76l-1,4.52a8.32,8.32,0,0,0-3.4-.6,5.06,5.06,0,0,0-5.24,5.48,5.08,5.08,0,0,0,5.36,5.47,9.18,9.18,0,0,0,3.48-.6Z"/><path class="cls-2" d="M290.57,48.7c0,7.15-5.08,10.43-10.32,10.43-5.72,0-10.12-3.76-10.12-10.07s4.16-10.36,10.44-10.36C286.57,38.7,290.57,42.82,290.57,48.7Zm-14.16.2c0,3.36,1.4,5.87,4,5.87,2.36,0,3.88-2.35,3.88-5.87,0-2.92-1.12-5.88-3.88-5.88C277.49,43,276.41,46,276.41,48.9Z"/><path class="cls-2" d="M294.33,45.38c0-2.44-.08-4.52-.16-6.24h5.28l.28,2.68h.12a7.16,7.16,0,0,1,6-3.12c4,0,7,2.64,7,8.4V58.69h-6.08V47.86c0-2.52-.88-4.24-3.08-4.24a3.25,3.25,0,0,0-3.08,2.28,4.18,4.18,0,0,0-.24,1.52V58.69h-6.08Z"/><path class="cls-2" d="M318.45,58.69V43.62h-2.56V39.14h2.56V38.3c0-5.4,4.2-8.44,10.24-8.44a13.11,13.11,0,0,1,5.76,1.2l-1.16,4.6a9.58,9.58,0,0,0-4.44-1c-3.2,0-4.32,1.64-4.32,3.8v.68h11.88V58.69h-6.08V43.62h-5.76V58.69Z"/><path class="cls-2" d="M360,39.14c-.08,1.24-.16,2.88-.16,5.8V55.85c0,3.76-.76,6.84-3,8.8s-5.08,2.4-8,2.4a15.25,15.25,0,0,1-7-1.52l1.2-4.6a12,12,0,0,0,5.68,1.48c2.88,0,5.08-1.56,5.08-5.16V56h-.08a6.25,6.25,0,0,1-5.28,2.56c-4.84,0-8.28-3.92-8.28-9.55,0-6.28,4.08-10.28,8.88-10.28a5.9,5.9,0,0,1,5.36,2.76h.08l.2-2.32Zm-6.24,8a4.81,4.81,0,0,0-.12-1.12,3.33,3.33,0,0,0-3.28-2.68c-2.2,0-4,2-4,5.56,0,2.91,1.44,5.2,4,5.2a3.31,3.31,0,0,0,3.2-2.48,5.19,5.19,0,0,0,.2-1.61Z"/><path class="cls-2" d="M383.13,52.42c0,2.55.08,4.63.16,6.27H378l-.28-2.76h-.12a7,7,0,0,1-6.12,3.2c-4,0-6.88-2.48-6.88-8.51V39.14h6.12V49.66c0,2.84.92,4.55,3,4.55a3.26,3.26,0,0,0,3-2.11,3.43,3.43,0,0,0,.2-1.32V39.14h6.12Z"/><path class="cls-2" d="M388,45.58c0-2.88-.08-4.76-.16-6.44h5.24l.2,3.6h.16a5.75,5.75,0,0,1,5.28-4,6.27,6.27,0,0,1,1.28.08V44.5a8.72,8.72,0,0,0-1.64-.16,3.91,3.91,0,0,0-4.16,3.08,7.17,7.17,0,0,0-.12,1.36v9.91H388Z"/><path class="cls-2" d="M413.89,58.69l-.36-2h-.12a7,7,0,0,1-5.6,2.4,6,6,0,0,1-6.32-6c0-5.08,4.56-7.52,11.48-7.48v-.28c0-1-.56-2.52-3.56-2.52a11,11,0,0,0-5.4,1.48l-1.12-3.92a16.15,16.15,0,0,1,7.6-1.72c6.52,0,8.6,3.84,8.6,8.44v6.79a30.31,30.31,0,0,0,.28,4.76Zm-.72-9.23c-3.2,0-5.68.72-5.68,3.07a2.18,2.18,0,0,0,2.4,2.32,3.32,3.32,0,0,0,3.16-2.24,4.28,4.28,0,0,0,.12-1Z"/><path class="cls-2" d="M430.37,33.54v5.6h4.36v4.48h-4.36V50.7c0,2.36.56,3.44,2.4,3.44a9,9,0,0,0,1.8-.17l0,4.6a11.93,11.93,0,0,1-4,.52,6.32,6.32,0,0,1-4.56-1.68c-1.12-1.16-1.68-3-1.68-5.79v-8h-2.6V39.14h2.6V34.9Z"/><path class="cls-2" d="M444.53,33.7a3.05,3.05,0,0,1-3.28,3,3.06,3.06,0,1,1,0-6.12A3,3,0,0,1,444.53,33.7Zm-6.28,25V39.14h6.08V58.69Z"/><path class="cls-2" d="M468.53,48.7c0,7.15-5.08,10.43-10.32,10.43-5.72,0-10.12-3.76-10.12-10.07s4.16-10.36,10.44-10.36C464.53,38.7,468.53,42.82,468.53,48.7Zm-14.16.2c0,3.36,1.4,5.87,4,5.87,2.36,0,3.88-2.35,3.88-5.87,0-2.92-1.12-5.88-3.88-5.88C455.45,43,454.37,46,454.37,48.9Z"/><path class="cls-2" d="M472.29,45.38c0-2.44-.08-4.52-.16-6.24h5.28l.28,2.68h.12a7.16,7.16,0,0,1,6-3.12c4,0,7,2.64,7,8.4V58.69h-6.08V47.86c0-2.52-.88-4.24-3.08-4.24a3.25,3.25,0,0,0-3.08,2.28,4.18,4.18,0,0,0-.24,1.52V58.69h-6.08Z"/></svg>