<svg id="Layer_1" data-name="Layer 1" xmlns="http://www.w3.org/2000/svg" viewBox="0 0 319.66 88.92"><defs><style>.cls-1{fill:#79752f;}.cls-2{fill:#f9f5d8;}</style></defs><rect class="cls-1" width="319.66" height="88.92" rx="16.1"/><path class="cls-2" d="M38.5,52.42a15.55,15.55,0,0,0,6.76,1.68c2.8,0,4.28-1.16,4.28-2.92s-1.28-2.64-4.52-3.8c-4.48-1.56-7.4-4-7.4-8,0-4.6,3.84-8.12,10.2-8.12a16.47,16.47,0,0,1,6.87,1.36l-1.35,4.92A12.82,12.82,0,0,0,47.7,36.3c-2.64,0-3.92,1.2-3.92,2.6,0,1.72,1.52,2.48,5,3.8,4.75,1.76,7,4.24,7,8,0,4.51-3.47,8.35-10.87,8.35a17.64,17.64,0,0,1-7.64-1.64Z"/><path class="cls-2" d="M82.93,63.33a92.27,92.27,0,0,1-10.63-3.8,6.08,6.08,0,0,0-1.88-.4c-6.08-.4-11.76-4.88-11.76-13.67,0-8.08,5.12-14.16,13.16-14.16,8.23,0,12.75,6.24,12.75,13.6,0,6.12-2.84,10.43-6.4,12v.16c2.08.6,4.4,1.08,6.52,1.52Zm-4.8-18.19c0-4.92-2.32-9-6.47-9s-6.56,4.08-6.56,9.12,2.44,9,6.51,9S78.13,50.42,78.13,45.14Z"/><path class="cls-2" d="M88.58,31.74H94.7V53.57h10.71v5.12H88.58Z"/><path class="cls-2" d="M117.1,32.1a54.38,54.38,0,0,1,8.23-.56c5.12,0,8.44.92,11,2.88,2.8,2.08,4.56,5.4,4.56,10.16,0,5.16-1.88,8.72-4.48,10.91C133.61,57.85,129.29,59,124,59a52.79,52.79,0,0,1-6.92-.4Zm6.12,22a12.1,12.1,0,0,0,2.11.11c5.52,0,9.12-3,9.12-9.43,0-5.6-3.24-8.56-8.48-8.56a12.56,12.56,0,0,0-2.75.24Z"/><path class="cls-2" d="M155.85,58.69l-.36-2h-.12a7,7,0,0,1-5.59,2.4,6,6,0,0,1-6.32-6c0-5.08,4.56-7.52,11.47-7.48v-.28c0-1-.56-2.52-3.55-2.52a11,11,0,0,0-5.4,1.48l-1.12-3.92a16.13,16.13,0,0,1,7.59-1.72c6.52,0,8.6,3.84,8.6,8.44v6.8a30.25,30.25,0,0,0,.28,4.75Zm-.72-9.23c-3.2,0-5.67.72-5.67,3.07a2.18,2.18,0,0,0,2.4,2.32A3.32,3.32,0,0,0,155,52.61a4.22,4.22,0,0,0,.12-1Z"/><path class="cls-2" d="M172.34,33.54v5.6h4.35v4.48h-4.35V50.7c0,2.36.56,3.44,2.4,3.44a9.9,9.9,0,0,0,1.79-.16l0,4.59a11.86,11.86,0,0,1-3.95.52,6.32,6.32,0,0,1-4.56-1.68c-1.12-1.16-1.68-3-1.68-5.79v-8h-2.6V39.14h2.6V34.9Z"/><path class="cls-2" d="M191.33,58.69l-.36-2h-.12a7,7,0,0,1-5.59,2.4,6,6,0,0,1-6.32-6c0-5.08,4.56-7.52,11.47-7.48v-.28c0-1-.56-2.52-3.55-2.52a11,11,0,0,0-5.4,1.48l-1.12-3.92a16.13,16.13,0,0,1,7.59-1.72c6.52,0,8.6,3.84,8.6,8.44v6.8a30.25,30.25,0,0,0,.28,4.75Zm-.72-9.23c-3.2,0-5.67.72-5.67,3.07a2.18,2.18,0,0,0,2.4,2.32,3.32,3.32,0,0,0,3.15-2.24,4.22,4.22,0,0,0,.12-1Z"/><path class="cls-2" d="M201.18,58.69c.08-1.28.16-3.63.16-5.84V30.3h6.07V41.46h.08a6.89,6.89,0,0,1,5.92-2.76c4.68,0,8.12,3.88,8.08,9.88,0,7-4.48,10.55-9,10.55A6.47,6.47,0,0,1,206.66,56h-.09l-.23,2.72Zm6.23-8.31a4.46,4.46,0,0,0,.12,1.08,3.67,3.67,0,0,0,3.56,2.87c2.6,0,4.2-2,4.2-5.51,0-3-1.36-5.44-4.2-5.44a3.77,3.77,0,0,0-3.56,3,5.06,5.06,0,0,0-.12,1.12Z"/><path class="cls-2" d="M236.37,58.69l-.36-2h-.12a7,7,0,0,1-5.6,2.4,6,6,0,0,1-6.31-6c0-5.08,4.56-7.52,11.47-7.48v-.28c0-1-.56-2.52-3.56-2.52a11,11,0,0,0-5.39,1.48l-1.12-3.92A16.13,16.13,0,0,1,233,38.7c6.52,0,8.6,3.84,8.6,8.44v6.8a30.25,30.25,0,0,0,.28,4.75Zm-.72-9.23c-3.2,0-5.68.72-5.68,3.07a2.18,2.18,0,0,0,2.4,2.32,3.32,3.32,0,0,0,3.16-2.24,4.22,4.22,0,0,0,.12-1Z"/><path class="cls-2" d="M246.34,53.37a11.75,11.75,0,0,0,5.23,1.48c1.84,0,2.6-.64,2.6-1.63s-.6-1.49-2.87-2.24c-4-1.36-5.6-3.56-5.56-5.88,0-3.64,3.12-6.4,7.95-6.4a13.12,13.12,0,0,1,5.52,1.12L258.13,44a9.6,9.6,0,0,0-4.24-1.12c-1.48,0-2.32.6-2.32,1.6s.76,1.4,3.16,2.24c3.72,1.28,5.28,3.16,5.32,6,0,3.64-2.88,6.32-8.48,6.32a13.83,13.83,0,0,1-6.31-1.36Z"/><path class="cls-2" d="M268.41,50.85c.2,2.52,2.68,3.72,5.52,3.72a17.23,17.23,0,0,0,5.4-.8l.8,4.12a19.31,19.31,0,0,1-7.08,1.2c-6.64,0-10.43-3.84-10.43-10,0-5,3.08-10.44,9.87-10.44,6.32,0,8.72,4.92,8.72,9.76a14.19,14.19,0,0,1-.2,2.39Zm7.16-4.15c0-1.48-.64-4-3.44-4-2.56,0-3.6,2.32-3.76,4Z"/></svg>