<svg id="Layer_1" data-name="Layer 1" xmlns="http://www.w3.org/2000/svg" viewBox="0 0 207.73 88.92"><defs><style>.cls-1{fill:#ae3d24;}.cls-2{fill:#f9f5d8;}</style></defs><rect class="cls-1" width="207.73" height="88.92" rx="16.1"/><path class="cls-2" d="M44.66,58.7,36,31.74H42.7L46,43.14c.92,3.2,1.76,6.28,2.4,9.64h.12c.68-3.24,1.52-6.44,2.44-9.52l3.43-11.52h6.48l-9.07,27Z"/><path class="cls-2" d="M63.74,32.1a48.57,48.57,0,0,1,7.88-.56c3.72,0,6,.36,7.95,1.52a5.87,5.87,0,0,1,3.24,5.28c0,2.4-1.4,4.64-4.44,5.76v.08a6.75,6.75,0,0,1,5.36,6.64,7.18,7.18,0,0,1-2.8,5.72C79,58.09,75.7,59,70.34,59a45.65,45.65,0,0,1-6.6-.4Zm6,10.32h2c3.19,0,4.91-1.32,4.91-3.32S75.14,36,72.38,36a16.65,16.65,0,0,0-2.6.16Zm0,11.95a19.23,19.23,0,0,0,2.36.08c2.76,0,5.19-1,5.19-3.87s-2.43-3.8-5.47-3.8H69.78Z"/><path class="cls-2" d="M86.66,55.45a3.52,3.52,0,0,1,3.6-3.71,3.7,3.7,0,1,1-3.6,3.71Z"/><path class="cls-2" d="M97.7,58.7v-27h7.12l5.59,9.88a78.17,78.17,0,0,1,4.4,9.24h.12a100,100,0,0,1-.52-11.24V31.74H120v27h-6.4l-5.76-10.4a102.54,102.54,0,0,1-4.67-9.52l-.12,0c.16,3.56.24,7.36.24,11.76V58.7Z"/><path class="cls-2" d="M141.33,47.3h-9.92v6.4h11.08v5H125.3v-27h16.63v5H131.41v5.6h9.92Z"/><path class="cls-2" d="M152.05,36.86h-7.23V31.74h20.71v5.12h-7.36V58.7h-6.12Z"/><path class="cls-2" d="M44.66,58.7,36,31.74H42.7L46,43.14c.92,3.2,1.76,6.28,2.4,9.64h.12c.68-3.24,1.52-6.44,2.44-9.52l3.43-11.52h6.48l-9.07,27Z"/><path class="cls-2" d="M63.74,32.1a48.57,48.57,0,0,1,7.88-.56c3.72,0,6,.36,7.95,1.52a5.87,5.87,0,0,1,3.24,5.28c0,2.4-1.4,4.64-4.44,5.76v.08a6.75,6.75,0,0,1,5.36,6.64,7.18,7.18,0,0,1-2.8,5.72C79,58.09,75.7,59,70.34,59a45.65,45.65,0,0,1-6.6-.4Zm6,10.32h2c3.19,0,4.91-1.32,4.91-3.32S75.14,36,72.38,36a16.65,16.65,0,0,0-2.6.16Zm0,11.95a19.23,19.23,0,0,0,2.36.08c2.76,0,5.19-1,5.19-3.87s-2.43-3.8-5.47-3.8H69.78Z"/><path class="cls-2" d="M86.66,55.45a3.52,3.52,0,0,1,3.6-3.71,3.7,3.7,0,1,1-3.6,3.71Z"/><path class="cls-2" d="M97.7,58.7v-27h7.12l5.59,9.88a78.17,78.17,0,0,1,4.4,9.24h.12a100,100,0,0,1-.52-11.24V31.74H120v27h-6.4l-5.76-10.4a102.54,102.54,0,0,1-4.67-9.52l-.12,0c.16,3.56.24,7.36.24,11.76V58.7Z"/><path class="cls-2" d="M141.33,47.3h-9.92v6.4h11.08v5H125.3v-27h16.63v5H131.41v5.6h9.92Z"/><path class="cls-2" d="M152.05,36.86h-7.23V31.74h20.71v5.12h-7.36V58.7h-6.12Z"/></svg>