<svg id="Layer_1" data-name="Layer 1" xmlns="http://www.w3.org/2000/svg" viewBox="0 0 143.85 88.92"><defs><style>.cls-1{fill:#437b58;}.cls-2{fill:#f9f5d8;}</style></defs><rect class="cls-1" width="143.85" height="88.92" rx="16.1"/><path class="cls-2" d="M44.66,58.69,36,31.74H42.7L46,43.14c.92,3.2,1.76,6.28,2.4,9.63h.12c.68-3.23,1.52-6.43,2.44-9.51l3.44-11.52h6.47l-9.07,27Z"/><path class="cls-2" d="M68.74,33.7a3.05,3.05,0,0,1-3.28,3,3.06,3.06,0,1,1,0-6.12A3,3,0,0,1,68.74,33.7Zm-6.28,25V39.14h6.08V58.69Z"/><path class="cls-2" d="M73.42,45.38c0-2.44-.08-4.52-.16-6.24h5.12l.28,2.64h.12A6.78,6.78,0,0,1,84.7,38.7,5.53,5.53,0,0,1,90.05,42h.08a8.75,8.75,0,0,1,2.52-2.36,7.06,7.06,0,0,1,3.72-1c3.76,0,6.6,2.64,6.6,8.48V58.69H97.05V48.06c0-2.84-.92-4.48-2.88-4.48a3,3,0,0,0-2.8,2.12,5.09,5.09,0,0,0-.24,1.56V58.69H85.22V47.74c0-2.48-.88-4.16-2.8-4.16a3.09,3.09,0,0,0-2.84,2.2,4,4,0,0,0-.24,1.52V58.69H73.42Z"/><path class="cls-2" d="M44.66,58.69,36,31.74H42.7L46,43.14c.92,3.2,1.76,6.28,2.4,9.63h.12c.68-3.23,1.52-6.43,2.44-9.51l3.44-11.52h6.47l-9.07,27Z"/><path class="cls-2" d="M68.74,33.7a3.05,3.05,0,0,1-3.28,3,3.06,3.06,0,1,1,0-6.12A3,3,0,0,1,68.74,33.7Zm-6.28,25V39.14h6.08V58.69Z"/><path class="cls-2" d="M73.42,45.38c0-2.44-.08-4.52-.16-6.24h5.12l.28,2.64h.12A6.78,6.78,0,0,1,84.7,38.7,5.53,5.53,0,0,1,90.05,42h.08a8.75,8.75,0,0,1,2.52-2.36,7.06,7.06,0,0,1,3.72-1c3.76,0,6.6,2.64,6.6,8.48V58.69H97.05V48.06c0-2.84-.92-4.48-2.88-4.48a3,3,0,0,0-2.8,2.12,5.09,5.09,0,0,0-.24,1.56V58.69H85.22V47.74c0-2.48-.88-4.16-2.8-4.16a3.09,3.09,0,0,0-2.84,2.2,4,4,0,0,0-.24,1.52V58.69H73.42Z"/></svg>