<svg id="Layer_1" data-name="Layer 1" xmlns="http://www.w3.org/2000/svg" viewBox="0 0 75 75"><defs><style>.cls-1{fill:#06c;stroke:#06c;stroke-linejoin:round;stroke-width:5px;}</style></defs><path class="cls-1" d="M5,36.18a.77.77,0,0,0,.25.6L29.43,61.14a.79.79,0,0,0,.6.24.83.83,0,0,0,.87-.8,1.08,1.08,0,0,0-.21-.63L14.91,44.16,7.59,36.92l7.35.07H69.19a.81.81,0,1,0,0-1.61H14.94l-7.35.07,7.32-7.25L30.69,12.41a1,1,0,0,0,.21-.66.83.83,0,0,0-.87-.81c-.25,0-.53.11-1,.63l-23.8,24A.75.75,0,0,0,5,36.18Z"/></svg>