<svg id="Layer_1" data-name="Layer 1" xmlns="http://www.w3.org/2000/svg" viewBox="0 0 75 75"><defs><style>.cls-1{fill:#989898;stroke:#989898;stroke-miterlimit:10;}</style></defs><g id="Regular-S"><path class="cls-1" d="M2.5,35.31A3.83,3.83,0,0,0,3.85,38.2L28.67,63a4,4,0,0,0,2.84,1.2,3.65,3.65,0,0,0,2.67-1.06,3.61,3.61,0,0,0,1.08-2.69,4.51,4.51,0,0,0-.26-1.5,3,3,0,0,0-.8-1.2l-6.63-6.88L11.3,36.23l-.86,2.07,12.8.91H68.65a3.66,3.66,0,0,0,2.79-1.11,4.2,4.2,0,0,0,0-5.58,3.65,3.65,0,0,0-2.79-1.1H23.24l-12.8.91.86,2.12L27.57,19.77l6.63-6.88a3,3,0,0,0,.8-1.2,4.45,4.45,0,0,0,.26-1.49,3.63,3.63,0,0,0-1.08-2.7,3.68,3.68,0,0,0-2.67-1,4,4,0,0,0-2.84,1.2L3.85,32.43A3.81,3.81,0,0,0,2.5,35.31Z"/></g></svg>