<svg id="Layer_1" data-name="Layer 1" xmlns="http://www.w3.org/2000/svg" viewBox="0 0 75 75"><defs><style>.cls-1{fill:#06c;}</style></defs><path class="cls-1" d="M50.62,11.25A4.37,4.37,0,0,1,55,6.88h8.75a4.36,4.36,0,0,1,4.37,4.37v52.5h2.19a2.19,2.19,0,1,1,0,4.37H4.69a2.19,2.19,0,1,1,0-4.37H6.88V50.62a4.37,4.37,0,0,1,4.37-4.37H20a4.38,4.38,0,0,1,4.38,4.37V63.75h4.37V33.12a4.37,4.37,0,0,1,4.37-4.37h8.76a4.37,4.37,0,0,1,4.37,4.37V63.75h4.37ZM55,63.75h8.75V11.25H55Zm-13.12,0V33.12H33.12V63.75ZM20,63.75V50.62H11.25V63.75Z"/></svg>