<svg id="Layer_1" data-name="Layer 1" xmlns="http://www.w3.org/2000/svg" viewBox="0 0 75 75"><defs><style>.cls-1{fill:#999;stroke:#999;stroke-miterlimit:10;}</style></defs><g id="Ultralight-S"><path class="cls-1" d="M42.24,72.5q7.6,0,12.06-2.51c3-1.67,4.46-3.92,4.46-6.73V47.31a19.14,19.14,0,0,0,5.65-7.52,25.29,25.29,0,0,0,2-10.14,29.53,29.53,0,0,0-3.3-14.26,23.54,23.54,0,0,0-9.24-9.5A27.49,27.49,0,0,0,40,2.5,27.64,27.64,0,0,0,26.26,5.82a23.19,23.19,0,0,0-9.18,9.29A28.47,28.47,0,0,0,13.8,29.05c0,.59,0,1.11,0,1.56s0,.9.09,1.35L9.85,39.29a9.19,9.19,0,0,0-1.28,4.47,5.46,5.46,0,0,0,5.3,5.56v6.43a6,6,0,0,0,1.8,4.72,6.16,6.16,0,0,0,5,1.27l5.84-.63-.79-1v3.18q0,4.18,4.49,6.71T42.24,72.5Zm0-1.68q-6.7,0-10.75-2.17t-4-5.67v-3a.61.61,0,0,0-.22-.53.73.73,0,0,0-.54-.13L20.44,60a4.2,4.2,0,0,1-3.6-.92,4.81,4.81,0,0,1-1.3-3.65v-7.3a.46.46,0,0,0-.13-.37.48.48,0,0,0-.35-.11h-.2a4.84,4.84,0,0,1-3.3-1.06,3.66,3.66,0,0,1-1.2-2.89,7.13,7.13,0,0,1,1-3.53l4.29-7.82a14.92,14.92,0,0,1-.14-1.73c0-.56,0-1.1,0-1.63a26.69,26.69,0,0,1,3.06-13,21.72,21.72,0,0,1,8.58-8.68A26,26,0,0,1,40,4.18,25.78,25.78,0,0,1,53,7.35a22,22,0,0,1,8.64,8.92,27.94,27.94,0,0,1,3.08,13.38,23.14,23.14,0,0,1-2,9.75A17.31,17.31,0,0,1,57,46.47l0,16.51c0,2.33-1.35,4.22-4.07,5.67S46.71,70.82,42.24,70.82Z"/><path class="cls-1" d="M32.2,15.47a.8.8,0,0,0,.22.57.75.75,0,0,0,.58.24c.54,0,.8-.24.8-.73a6,6,0,0,1,6.19-6,4.66,4.66,0,0,1,2.63.74,3.9,3.9,0,0,1,1.56,2.08c.13.39.41.5.86.32a6.09,6.09,0,0,1,2.36-.45A5.5,5.5,0,0,1,51.46,14,6,6,0,0,1,53,18.3a5.88,5.88,0,0,1-1.14,3.75A10.71,10.71,0,0,1,49,24.51l-3.38,2A10.76,10.76,0,0,0,42.81,29a5.63,5.63,0,0,0-1.15,3.65,4.52,4.52,0,0,0,1.76,3.71,7.27,7.27,0,0,0,4.66,1.4h1a7.47,7.47,0,0,0,1.44,4,3.71,3.71,0,0,0,3,1.51c1.63,0,2.92-1,3.85-2.86a18,18,0,0,0,1.41-7.84q0-.9-.06-1.8c0-.59-.08-1.17-.13-1.75L57,29.68c.05.61.1,1.15.14,1.61s.06.91.06,1.35a18.37,18.37,0,0,1-1,6.67c-.64,1.62-1.55,2.42-2.72,2.42a2.39,2.39,0,0,1-2.13-1.36,7.14,7.14,0,0,1-.8-3.62c0-.39-.21-.59-.63-.59l-.92,0-.85,0a6,6,0,0,1-3.58-1,3.08,3.08,0,0,1-1.34-2.62,4.42,4.42,0,0,1,1.15-3.2,11.31,11.31,0,0,1,2.84-2.14c1.13-.62,2.26-1.28,3.38-2a9.93,9.93,0,0,0,2.83-2.69,7.3,7.3,0,0,0,1.15-4.32,7.66,7.66,0,0,0-2-5.48,6.84,6.84,0,0,0-5.21-2.12,7.13,7.13,0,0,0-1,.07,10.83,10.83,0,0,0-1.11.21A5.66,5.66,0,0,0,40,8a7.57,7.57,0,0,0-5.45,2.07A7.72,7.72,0,0,0,32.2,15.47ZM20.34,24.24a8.5,8.5,0,0,0,2.49,6.39A9.08,9.08,0,0,0,29.44,33,9.45,9.45,0,0,0,36,30.92a7.06,7.06,0,0,0,2.5-5.62,6.89,6.89,0,0,0-.55-2.72,5.91,5.91,0,0,0-1.41-2.09,1,1,0,0,0-.64-.26.75.75,0,0,0-.77.76.82.82,0,0,0,.07.37,1.14,1.14,0,0,0,.23.32,4.91,4.91,0,0,1,1.5,3.62,5.53,5.53,0,0,1-2,4.47,8.13,8.13,0,0,1-5.4,1.7,7.7,7.7,0,0,1-5.53-2,7,7,0,0,1-2.07-5.29,8.68,8.68,0,0,1,3.39-6.66L24.86,16a9.16,9.16,0,0,0-3.25,3.49A9.86,9.86,0,0,0,20.34,24.24ZM52,30.77a.8.8,0,0,0,.23.56.68.68,0,0,0,.54.24,8.49,8.49,0,0,0,6-2.05,7,7,0,0,0,2.31-5.47,7.23,7.23,0,0,0-2.19-5.41,8.14,8.14,0,0,0-5.69-2.22V18a6.24,6.24,0,0,1,4.59,1.66,5.78,5.78,0,0,1,1.73,4.36,5.49,5.49,0,0,1-1.85,4.33A7,7,0,0,1,52.82,30a.72.72,0,0,0-.55.24A.77.77,0,0,0,52,30.77ZM23.92,16.05a5.32,5.32,0,0,0,1.71,4.1A6.17,6.17,0,0,0,30,21.73a.88.88,0,0,0,.56-.23.69.69,0,0,0,.28-.54.7.7,0,0,0-.28-.56.84.84,0,0,0-.56-.24A4.63,4.63,0,0,1,26.72,19a3.89,3.89,0,0,1-1.22-3,4.35,4.35,0,0,1,1.42-3.36,5.17,5.17,0,0,1,3.66-1.32,6.67,6.67,0,0,1,3.57,1l.93-1.33A8.44,8.44,0,0,0,30.59,9.8a6.73,6.73,0,0,0-4.76,1.77A5.88,5.88,0,0,0,23.92,16.05ZM42.81,33.88a6.53,6.53,0,0,1-1.56.34,14.27,14.27,0,0,1-1.74.12,9.62,9.62,0,0,1-3.89-.78A5.6,5.6,0,0,1,33,31.47l-1.36,1.09A8.79,8.79,0,0,0,35,35a11.39,11.39,0,0,0,4.5.86c.53,0,1.14,0,1.82-.1a15.09,15.09,0,0,0,1.86-.3ZM37,23.44l.59,1.42a7,7,0,0,0,4.3-2.18,6.73,6.73,0,0,0,1.41-4.56.84.84,0,0,0-.22-.56.77.77,0,0,0-.58-.24.64.64,0,0,0-.53.26.88.88,0,0,0-.21.58,5.25,5.25,0,0,1-1.16,3.62A5.8,5.8,0,0,1,37,23.44Z"/></g></svg>