<svg id="Layer_1" data-name="Layer 1" xmlns="http://www.w3.org/2000/svg" viewBox="0 0 75 75"><defs><style>.cls-1{fill:#989898;stroke:#989898;stroke-miterlimit:10;}</style></defs><path class="cls-1" d="M5,5A2.5,2.5,0,0,1,7.5,2.5h60A2.5,2.5,0,0,1,70,5V15a2.51,2.51,0,0,1-.64,1.67L47.5,41V65a2.5,2.5,0,0,1-1.71,2.37l-15,5a2.49,2.49,0,0,1-3.16-1.58A2.34,2.34,0,0,1,27.5,70V41L5.64,16.67A2.51,2.51,0,0,1,5,15Zm5,2.5V14L31.86,38.33A2.51,2.51,0,0,1,32.5,40V66.53l10-3.33V40a2.51,2.51,0,0,1,.64-1.67L65,14V7.5Z"/></svg>