<svg id="Layer_1" data-name="Layer 1" xmlns="http://www.w3.org/2000/svg" viewBox="0 0 75 75"><defs><style>.cls-1{fill:#999;stroke:#999;stroke-miterlimit:10;}</style></defs><path class="cls-1" d="M68.12,63.75s4.38,0,4.38-4.37-4.38-17.5-21.88-17.5S28.75,55,28.75,59.38s4.37,4.37,4.37,4.37Zm-34.9-4.37-.1,0a13.52,13.52,0,0,1,3.33-7.53c2.42-2.83,6.66-5.58,14.17-5.58S62.38,49,64.8,51.83a13.44,13.44,0,0,1,3.32,7.53H33.22Zm17.4-26.26a8.75,8.75,0,1,0-8.74-8.74A8.75,8.75,0,0,0,50.62,33.12Zm13.13-8.74A13.13,13.13,0,1,1,50.62,11.25,13.13,13.13,0,0,1,63.75,24.38ZM32.84,43.1A25.92,25.92,0,0,0,27.46,42a28.74,28.74,0,0,0-3.08-.14C6.88,41.88,2.5,55,2.5,59.38q0,4.36,4.38,4.37H25.32a9.72,9.72,0,0,1-.94-4.37,20.07,20.07,0,0,1,4.76-12.71A23.67,23.67,0,0,1,32.84,43.1ZM24,46.25a24.05,24.05,0,0,0-4,13.13H6.88a13.41,13.41,0,0,1,3.32-7.55c2.38-2.78,6.53-5.49,13.83-5.58Zm-15-19.69A13.13,13.13,0,1,1,22.19,39.69,13.12,13.12,0,0,1,9.06,26.56Zm13.13-8.75a8.75,8.75,0,1,0,8.75,8.75A8.75,8.75,0,0,0,22.19,17.81Z"/></svg>