<svg id="Layer_1" data-name="Layer 1" xmlns="http://www.w3.org/2000/svg" viewBox="0 0 75 75"><defs><style>.cls-1{fill:#999;stroke:#999;}</style></defs><path class="cls-1" d="M58.65,64.29h9.18c3.1,0,4.67-1.57,4.67-4.85V15.53c0-3.25-1.57-4.82-4.67-4.82H58.65c-3.1,0-4.67,1.57-4.67,4.82V59.44C54,62.72,55.55,64.29,58.65,64.29Zm0-1.45c-2.16,0-3.22-1.15-3.22-3.37V15.53c0-2.25,1.06-3.37,3.22-3.37h9.18c2.16,0,3.22,1.12,3.22,3.37V59.47c0,2.22-1.06,3.37-3.22,3.37ZM32.91,64.29h9.18c3.1,0,4.67-1.57,4.67-4.85V24c0-3.25-1.57-4.82-4.67-4.82H32.91c-3.1,0-4.67,1.57-4.67,4.82V59.44C28.24,62.72,29.81,64.29,32.91,64.29Zm0-1.45c-2.16,0-3.22-1.15-3.22-3.37V24c0-2.22,1.06-3.37,3.22-3.37h9.18c2.16,0,3.22,1.15,3.22,3.37V59.47c0,2.22-1.06,3.37-3.22,3.37ZM7.17,64.29h9.18c3.1,0,4.67-1.57,4.67-4.85V32.34c0-3.26-1.57-4.85-4.67-4.85H7.17c-3.1,0-4.67,1.59-4.67,4.85v27.1C2.5,62.72,4.07,64.29,7.17,64.29Zm0-1.45C5,62.84,4,61.69,4,59.47V32.31C4,30.09,5,29,7.17,29h9.18c2.16,0,3.22,1.13,3.22,3.35V59.47c0,2.22-1.06,3.37-3.22,3.37Z"/></svg>