<svg id="Layer_1" data-name="Layer 1" xmlns="http://www.w3.org/2000/svg" viewBox="0 0 75 75"><defs><style>.cls-1{fill:none;stroke:#989898;stroke-miterlimit:10;stroke-width:2.2px;}</style></defs><g id="Ultralight-S"><path class="cls-1" d="M21.3,61.79A2.28,2.28,0,0,0,22,63.53a2.6,2.6,0,0,0,1.87.67H33a2.62,2.62,0,0,0,1.88-.67,2.27,2.27,0,0,0,.7-1.74V13.21a2.27,2.27,0,0,0-.7-1.76A2.7,2.7,0,0,0,33,10.8H23.88a2.68,2.68,0,0,0-1.87.65,2.28,2.28,0,0,0-.71,1.76Zm18,0A2.24,2.24,0,0,0,40,63.53a2.53,2.53,0,0,0,1.83.67H51a2.6,2.6,0,0,0,1.87-.67,2.28,2.28,0,0,0,.71-1.74V21.1a2.3,2.3,0,0,0-.71-1.75A2.6,2.6,0,0,0,51,18.68H41.86a2.53,2.53,0,0,0-1.83.67,2.26,2.26,0,0,0-.71,1.75Zm-35.95,0a2.3,2.3,0,0,0,.69,1.74A2.58,2.58,0,0,0,6,64.2h9.14a2.62,2.62,0,0,0,1.85-.67,2.22,2.22,0,0,0,.73-1.74V29a2.19,2.19,0,0,0-.73-1.73,2.69,2.69,0,0,0-1.85-.65H6a2.66,2.66,0,0,0-1.89.65A2.26,2.26,0,0,0,3.37,29Zm54,0A2.3,2.3,0,0,0,58,63.53a2.58,2.58,0,0,0,1.89.67h9.14a2.6,2.6,0,0,0,1.85-.67,2.22,2.22,0,0,0,.73-1.74V36.58a2.26,2.26,0,0,0-.73-1.75,2.64,2.64,0,0,0-1.85-.66H59.91a2.62,2.62,0,0,0-1.89.66,2.33,2.33,0,0,0-.69,1.75Z"/></g></svg>