<svg id="Layer_1" data-name="Layer 1" xmlns="http://www.w3.org/2000/svg" viewBox="0 0 75 75"><defs><style>.cls-1{fill:#989898;}</style></defs><path class="cls-1" d="M13.44,20a2.19,2.19,0,1,1,0-4.38H61.56a2.19,2.19,0,0,1,0,4.38Zm8.75-8.75a2.19,2.19,0,1,1,0-4.37H52.81a2.19,2.19,0,1,1,0,4.37ZM2.5,61.56a6.56,6.56,0,0,0,6.56,6.56H65.94a6.56,6.56,0,0,0,6.56-6.56V30.94a6.56,6.56,0,0,0-6.56-6.56H9.06A6.56,6.56,0,0,0,2.5,30.94Zm6.56,2.19a2.18,2.18,0,0,1-2.18-2.19V30.94a2.18,2.18,0,0,1,2.18-2.19H65.94a2.18,2.18,0,0,1,2.18,2.19V61.56a2.18,2.18,0,0,1-2.18,2.19Z"/></svg>