<svg id="Layer_1" data-name="Layer 1" xmlns="http://www.w3.org/2000/svg" viewBox="0 0 75 75"><defs><style>.cls-1{fill:#989898;}</style></defs><path class="cls-1" d="M4.69,46a2.19,2.19,0,0,1,2.19,2.19V59.16a4.37,4.37,0,0,0,4.37,4.37h52.5a4.37,4.37,0,0,0,4.37-4.37V48.22a2.19,2.19,0,0,1,4.38,0V59.16a8.75,8.75,0,0,1-8.75,8.75H11.25A8.75,8.75,0,0,1,2.5,59.16V48.22A2.19,2.19,0,0,1,4.69,46Z"/><path class="cls-1" d="M36,54.58a2.17,2.17,0,0,0,3.09,0h0L52.17,41.46a2.19,2.19,0,1,0-3.09-3.1l-9.39,9.39V9.28a2.19,2.19,0,0,0-4.38,0V47.75l-9.39-9.39a2.19,2.19,0,1,0-3.09,3.1Z"/></svg>