<svg id="Layer_1" data-name="Layer 1" xmlns="http://www.w3.org/2000/svg" viewBox="0 0 75 75"><defs><style>.cls-1{fill:#06c;}</style></defs><path class="cls-1" d="M37.5,2.5A2.27,2.27,0,0,1,39.64,4l2.58,7.51H64.6a4.51,4.51,0,0,1,4.51,4.52V47.66a4.52,4.52,0,0,1-4.51,4.52H56.24l6,17.32A2.26,2.26,0,0,1,57.94,71h0l-6.48-18.8H39.76V65.72a2.26,2.26,0,0,1-4.52,0V52.18H23.54L17.06,71a2.26,2.26,0,0,1-4.28-1.48l6-17.32H10.4a4.52,4.52,0,0,1-4.51-4.52V16.05a4.51,4.51,0,0,1,4.51-4.52H32.78L35.36,4A2.27,2.27,0,0,1,37.5,2.5ZM10.4,16.05V47.66H64.6V16.05Z"/></svg>