<svg id="Layer_1" data-name="Layer 1" xmlns="http://www.w3.org/2000/svg" viewBox="0 0 75 75"><defs><style>.cls-1,.cls-2{fill:#989898;}.cls-1{fill-rule:evenodd;}</style></defs><path class="cls-1" d="M64.16,23.83v28.7H59.74V23.83H50.91a6.62,6.62,0,0,1-6.62-6.63V8.37H20a4.41,4.41,0,0,0-4.41,4.41V52.53H11.16V12.78A8.84,8.84,0,0,1,20,4h24.3Z"/><path class="cls-2" d="M10.37,57h3V71.05h-3Z"/><path class="cls-2" d="M15.26,57h3V71.05h-3Zm1.49,7.34H20.2a2.83,2.83,0,0,0,2-.65,2.37,2.37,0,0,0,.7-1.84v0a2.37,2.37,0,0,0-.7-1.85,2.83,2.83,0,0,0-2-.64H16.75V57h4.18a5.36,5.36,0,0,1,2.59.6,4.33,4.33,0,0,1,1.74,1.68,5.06,5.06,0,0,1,.62,2.54v0a5,5,0,0,1-.62,2.53A4.33,4.33,0,0,1,23.52,66a5.25,5.25,0,0,1-2.59.61H16.75Z"/><path class="cls-2" d="M30.73,65.79,25.83,57H29l3.17,6h.07l3.15-6h3.19l-4.91,8.83v5.26H30.73Z"/><path class="cls-2" d="M39.63,57h2.58l7.65,11-2.47-1.86h1.24V57h2.94V71.05H49L41.34,60l2.47,1.87H42.57v9.22H39.63Z"/><path class="cls-2" d="M53.52,57h2.95V71.05H53.52ZM55,68.85h4a3.18,3.18,0,0,0,1.94-.51,1.75,1.75,0,0,0,.67-1.49v0a1.84,1.84,0,0,0-.31-1.09,1.82,1.82,0,0,0-.91-.67,4.42,4.42,0,0,0-1.51-.22H55v-2h3.54a3.12,3.12,0,0,0,1.9-.5,1.7,1.7,0,0,0,.65-1.42v0a1.59,1.59,0,0,0-.58-1.3,2.55,2.55,0,0,0-1.61-.46H55V57h4.66a5.55,5.55,0,0,1,2.3.43,3.22,3.22,0,0,1,2,3.1v0A3,3,0,0,1,63.62,62a3.2,3.2,0,0,1-1,1.1,3.11,3.11,0,0,1-1.4.54v.06a3.85,3.85,0,0,1,1.75.51,3.34,3.34,0,0,1,1.2,1.19A3.22,3.22,0,0,1,64.63,67v0A3.79,3.79,0,0,1,64,69.16a3.88,3.88,0,0,1-1.68,1.4,6.42,6.42,0,0,1-2.6.49H55Z"/></svg>