<svg id="Layer_1" data-name="Layer 1" xmlns="http://www.w3.org/2000/svg" viewBox="0 0 75 75"><defs><style>.cls-1{fill:#999;stroke:#999;}</style></defs><path class="cls-1" d="M10.65,65.36H64.32c5.33,0,8.18-2.88,8.18-8.15V23.69c0-5.24-2.85-8.12-8.15-8.12H32.82c-2.92,0-4.12-.35-5.93-2L25.3,12c-2.06-2-3.17-2.34-6.43-2.34H9.48c-4.7,0-7,2.28-7,6.91V57.21C2.5,62.54,5.32,65.36,10.65,65.36ZM4.05,16.74c0-3.81,1.84-5.61,5.62-5.61h9c2.76,0,3.91.35,5.81,2.19l1.62,1.52c1.84,1.77,3.23,2.28,6.53,2.28H64.25c4.25,0,6.7,2.25,6.7,6.66v4.09H4.05Zm6.66,47.07c-4.37,0-6.66-2.28-6.66-6.66V29.43H71V57.15c0,4.38-2.45,6.66-6.7,6.66Z"/></svg>