<svg id="Layer_1" data-name="Layer 1" xmlns="http://www.w3.org/2000/svg" viewBox="0 0 75 75"><defs><style>.cls-1{fill:#989898;}</style></defs><path class="cls-1" d="M2.5,15A7.5,7.5,0,0,1,10,7.5H23.82c4.79,0,8.8,2.8,11.55,5.92,2.06,2.32,4.53,4.08,7.13,4.08H65A7.5,7.5,0,0,1,72.5,25V60A7.5,7.5,0,0,1,65,67.5H10A7.5,7.5,0,0,1,2.5,60ZM10,12.5A2.5,2.5,0,0,0,7.5,15V27.5h60V25A2.5,2.5,0,0,0,65,22.5H42.5c-4.82,0-8.55-3.15-10.87-5.77s-5-4.23-7.81-4.23Zm57.5,20H7.5V60A2.5,2.5,0,0,0,10,62.5H65A2.5,2.5,0,0,0,67.5,60Z"/></svg>