<svg id="Layer_1" data-name="Layer 1" xmlns="http://www.w3.org/2000/svg" viewBox="0 0 75 75"><defs><style>.cls-1{fill:#999;stroke:#999;stroke-miterlimit:10;}</style></defs><g id="Ultralight-S"><path class="cls-1" d="M20.71,49.63h3.84a2.57,2.57,0,0,0,1.64-.51A2.41,2.41,0,0,0,27,47.67l.89-3.82.55-.2c.17-.06.34-.14.51-.22l3.35,2a2.59,2.59,0,0,0,1.68.42,2.55,2.55,0,0,0,1.48-.77l2.73-2.7a2.55,2.55,0,0,0,.8-1.53,2.59,2.59,0,0,0-.44-1.67l-2.05-3.31a2.28,2.28,0,0,0,.17-.35,3.59,3.59,0,0,0,.15-.37c0-.12.09-.23.13-.34l3.82-.92a2.42,2.42,0,0,0,1.45-.86,2.57,2.57,0,0,0,.51-1.64V27.65a2.49,2.49,0,0,0-.51-1.6,2.56,2.56,0,0,0-1.45-.89L37,24.27a5.76,5.76,0,0,0-.21-.55l-.24-.55,2.05-3.31A2.59,2.59,0,0,0,39,18.19a2.48,2.48,0,0,0-.8-1.5L35.5,14A2.45,2.45,0,0,0,34,13.19a2.59,2.59,0,0,0-1.68.42L29,15.66l-.34-.15-.35-.14-.37-.13L27,11.45A2.43,2.43,0,0,0,26.19,10a2.62,2.62,0,0,0-1.64-.5H20.71a2.39,2.39,0,0,0-2.49,2l-.88,3.79-.55.19c-.17.07-.35.14-.52.23l-3.35-2.05a2.58,2.58,0,0,0-1.68-.42A2.48,2.48,0,0,0,9.76,14L7,16.69a2.46,2.46,0,0,0-.79,1.51,2.58,2.58,0,0,0,.44,1.66l2.05,3.31-.15.37c-.05.12-.11.24-.16.35l-.15.38-3.81.89A2.59,2.59,0,0,0,3,26.05a2.55,2.55,0,0,0-.5,1.6v3.78A2.62,2.62,0,0,0,3,33.07a2.45,2.45,0,0,0,1.46.86l3.81.92c.07.17.14.35.22.53a5.05,5.05,0,0,0,.24.53L6.68,39.22a2.59,2.59,0,0,0-.44,1.67A2.53,2.53,0,0,0,7,42.42l2.73,2.7a2.57,2.57,0,0,0,1.48.77,2.58,2.58,0,0,0,1.68-.42l3.35-2c.17.08.35.16.52.22l.55.2.88,3.82a2.56,2.56,0,0,0,.89,1.45A2.51,2.51,0,0,0,20.71,49.63Zm.21-1.52a1.35,1.35,0,0,1-.87-.26,1.49,1.49,0,0,1-.43-.82l-1-4.32a12.54,12.54,0,0,1-1.24-.47c-.42-.18-.83-.37-1.22-.56L12.41,44a1.55,1.55,0,0,1-.92.25,1.42,1.42,0,0,1-.78-.41L8.23,41.47a1.29,1.29,0,0,1-.42-.8,1.46,1.46,0,0,1,.29-.89L10.43,36c-.18-.39-.36-.8-.54-1.22a12,12,0,0,1-.49-1.25l-4.28-1a1.41,1.41,0,0,1-.84-.44A1.25,1.25,0,0,1,4,31.24v-3.4A1.28,1.28,0,0,1,4.28,27a1.52,1.52,0,0,1,.84-.44l4.28-1a12.92,12.92,0,0,1,.49-1.25c.18-.42.36-.82.54-1.22L8.1,19.34a1.63,1.63,0,0,1-.29-.93,1.18,1.18,0,0,1,.42-.77l2.48-2.44a1.4,1.4,0,0,1,.78-.4,1.46,1.46,0,0,1,.92.24l3.73,2.36c.39-.19.8-.37,1.22-.55s.83-.34,1.24-.48l1-4.29a1.46,1.46,0,0,1,.43-.84,1.29,1.29,0,0,1,.87-.26h3.43a1.26,1.26,0,0,1,.86.26,1.46,1.46,0,0,1,.44.84l1,4.29c.44.14.86.3,1.28.48s.81.36,1.19.55L32.89,15a1.33,1.33,0,0,1,.88-.24,1.6,1.6,0,0,1,.82.4L37,17.64a1.18,1.18,0,0,1,.42.77,1.49,1.49,0,0,1-.29.93l-2.33,3.72c.18.4.37.8.55,1.22s.34.83.48,1.25l4.28,1A1.59,1.59,0,0,1,41,27a1.34,1.34,0,0,1,.26.86v3.4a1.3,1.3,0,0,1-.26.86,1.47,1.47,0,0,1-.85.44l-4.28,1c-.14.42-.3.84-.48,1.25s-.37.83-.55,1.22l2.33,3.76a1.34,1.34,0,0,1,.29.89,1.29,1.29,0,0,1-.42.8l-2.44,2.41a1.62,1.62,0,0,1-.82.41,1.4,1.4,0,0,1-.88-.25l-3.76-2.36c-.38.19-.77.38-1.19.56a11.52,11.52,0,0,1-1.28.47l-1,4.32a1.5,1.5,0,0,1-.44.82,1.32,1.32,0,0,1-.86.26Zm1.7-10.53a7.68,7.68,0,0,0,4.05-1.09,8.44,8.44,0,0,0,2.9-2.89,8.11,8.11,0,0,0,0-8.09,8.44,8.44,0,0,0-2.9-2.92,8.12,8.12,0,0,0-8.09,0,8.33,8.33,0,0,0-2.92,2.92,8.1,8.1,0,0,0,0,8.08,8.28,8.28,0,0,0,2.92,2.9A7.7,7.7,0,0,0,22.62,37.58Zm0-1.53A6.51,6.51,0,0,1,18,24.94a6.53,6.53,0,0,1,9.21,0,6.52,6.52,0,0,1,0,9.2A6.27,6.27,0,0,1,22.62,36.05ZM54.17,65.54H57a2.58,2.58,0,0,0,1.54-.41,2,2,0,0,0,.74-1.23l.64-3.32.54-.2a3.28,3.28,0,0,0,.5-.22L63.79,62a1.85,1.85,0,0,0,1.37.33,2.67,2.67,0,0,0,1.38-.79l2-2a2.54,2.54,0,0,0,.77-1.36,2.1,2.1,0,0,0-.32-1.4L67.09,54a3.54,3.54,0,0,0,.16-.34,3.45,3.45,0,0,1,.14-.34l.15-.36,3.31-.68a1.85,1.85,0,0,0,1.22-.72,2.45,2.45,0,0,0,.43-1.52V47.22a2.43,2.43,0,0,0-.43-1.54A1.92,1.92,0,0,0,70.85,45l-3.31-.71-.21-.51c-.08-.18-.16-.34-.24-.49L69,40.42a2,2,0,0,0,.32-1.36,2.68,2.68,0,0,0-.77-1.39l-2-2a2.62,2.62,0,0,0-1.38-.77,2,2,0,0,0-1.37.32L61,37.12a2.11,2.11,0,0,0-.34-.16l-.36-.13-.34-.13-.64-3.35a2,2,0,0,0-.74-1.2A2.51,2.51,0,0,0,57,31.73H54.17a2.54,2.54,0,0,0-1.54.42,2,2,0,0,0-.74,1.2l-.64,3.35-.53.19a5,5,0,0,0-.53.23l-2.82-1.89A2,2,0,0,0,46,34.91a2.49,2.49,0,0,0-1.37.77l-2,2a2.7,2.7,0,0,0-.78,1.39,1.92,1.92,0,0,0,.33,1.36l1.86,2.84-.15.32a3.45,3.45,0,0,0-.14.34c0,.12-.09.23-.13.34L40.31,45a1.87,1.87,0,0,0-1.23.71,2.49,2.49,0,0,0-.41,1.54v2.84a2.51,2.51,0,0,0,.41,1.52,1.81,1.81,0,0,0,1.23.72l3.32.68a3.38,3.38,0,0,0,.21.54c.07.16.14.32.21.5l-1.86,2.8a2.05,2.05,0,0,0-.33,1.4,2.56,2.56,0,0,0,.78,1.36l2,2a2.53,2.53,0,0,0,1.37.79A1.86,1.86,0,0,0,47.37,62l2.82-1.86.35.14a3,3,0,0,0,.36.15l.35.13.64,3.32a2,2,0,0,0,.74,1.23A2.6,2.6,0,0,0,54.17,65.54Zm.19-1.5a1.15,1.15,0,0,1-.73-.2.93.93,0,0,1-.33-.59l-.8-3.83a11.13,11.13,0,0,1-2.41-1l-3.25,2.16a.8.8,0,0,1-.63.13,1.36,1.36,0,0,1-.66-.36l-1.68-1.71a1.3,1.3,0,0,1-.39-.65.79.79,0,0,1,.16-.64l2.16-3.25A7,7,0,0,1,45.22,53a8.63,8.63,0,0,1-.43-1.27L41,50.9a.79.79,0,0,1-.58-.33,1.26,1.26,0,0,1-.18-.72V47.4a1.27,1.27,0,0,1,.18-.71.81.81,0,0,1,.58-.35l3.83-.8a8.14,8.14,0,0,1,.43-1.26,7.88,7.88,0,0,1,.58-1.12l-2.16-3.24a.83.83,0,0,1-.16-.66,1.28,1.28,0,0,1,.39-.66l1.68-1.69a1.17,1.17,0,0,1,.66-.37.85.85,0,0,1,.63.15l3.25,2.16a10.32,10.32,0,0,1,2.41-1L53.3,34a.91.91,0,0,1,.33-.56,1.15,1.15,0,0,1,.73-.2H56.8a1.13,1.13,0,0,1,.71.2.82.82,0,0,1,.35.56l.81,3.83a9.7,9.7,0,0,1,2.37,1l3.25-2.16a1,1,0,0,1,.66-.15,1.17,1.17,0,0,1,.66.37l1.68,1.69a1.2,1.2,0,0,1,.38.66,1,1,0,0,1-.15.66l-2.16,3.24c.2.35.39.72.57,1.12a9.45,9.45,0,0,1,.45,1.26l3.82.8a.85.85,0,0,1,.57.35,1.19,1.19,0,0,1,.2.71v2.45a1.18,1.18,0,0,1-.2.72.83.83,0,0,1-.57.33l-3.82.81A10.11,10.11,0,0,1,65.93,53a10.81,10.81,0,0,1-.57,1.13l2.16,3.25a1,1,0,0,1,.15.64,1.21,1.21,0,0,1-.38.65l-1.68,1.71a1.36,1.36,0,0,1-.66.36.89.89,0,0,1-.66-.13L61,58.43a10.44,10.44,0,0,1-2.37,1l-.81,3.83a.84.84,0,0,1-.35.59,1.13,1.13,0,0,1-.71.2Zm1.21-9.69a5.58,5.58,0,0,0,4-1.67,5.72,5.72,0,1,0-4,1.67Zm0-1.49a4.23,4.23,0,1,1,3-1.24A4.06,4.06,0,0,1,55.57,52.86Z"/></g></svg>