<svg id="Layer_1" data-name="Layer 1" xmlns="http://www.w3.org/2000/svg" viewBox="0 0 75 75"><defs><style>.cls-1{fill:#999;stroke:#999;}</style></defs><path class="cls-1" d="M25.12,58.83H45.51c.35,0,.61-.29.61-.77v-4c0-9.06,12.29-13.42,12.29-28.52,0-13.83-9.22-23.08-23.08-23.08S12.22,11.75,12.22,25.58c0,15.1,12.33,19.46,12.33,28.52v4C24.55,58.54,24.77,58.83,25.12,58.83Zm1-4.45c0-9.57-12.32-15.14-12.32-28.77C13.79,12.68,22.4,4.1,35.33,4.1s21.51,8.58,21.51,21.51c0,13.63-12.32,19.2-12.32,28.77v2.85H26.11Zm.42,10.95h17.6a2,2,0,0,0,0-4.06H26.53a2,2,0,0,0,0,4.06Zm8.8,7.17c4.07,0,7-1.89,7.27-4.74H28.07C28.32,70.61,31.2,72.5,35.33,72.5Z"/></svg>