<svg id="Layer_1" data-name="Layer 1" xmlns="http://www.w3.org/2000/svg" viewBox="0 0 75 75"><defs><style>.cls-1{fill:#06c;}</style></defs><path class="cls-1" d="M16.73,31.44,8.06,40.11A19,19,0,1,0,34.88,66.94h0L46.44,55.38a19,19,0,0,0-5.23-30.53L37.5,28.56a6.16,6.16,0,0,0-1,1.25A12.64,12.64,0,0,1,42,50.91L30.42,62.47A12.65,12.65,0,0,1,12.53,44.58l5-5a25.38,25.38,0,0,1-.81-8.14Z"/><path class="cls-1" d="M28.56,19.62a19,19,0,0,0,5.23,30.52l4.9-4.9A12.65,12.65,0,0,1,33,24.08L44.58,12.52a12.65,12.65,0,0,1,17.89,17.9h0l-5,5a25.44,25.44,0,0,1,.81,8.14l8.67-8.67A19,19,0,0,0,40.12,8.06Z"/></svg>