<svg id="Layer_1" data-name="Layer 1" xmlns="http://www.w3.org/2000/svg" viewBox="0 0 75 75"><defs><style>.cls-1{fill:#989898;stroke:#989898;stroke-width:1.5px;}</style></defs><path class="cls-1" d="M15.7,44.51h4.42a7.55,7.55,0,0,1,0-1.26H16c-7.09,0-12.25-5-12.25-12S9,19.29,16,19.29H38c7.07,0,12.25,5.06,12.25,12s-5.16,12-12.25,12H28.14a4.12,4.12,0,0,0,0,1.26H38.28c7.61,0,13.23-5.39,13.23-13.25S45.89,18,38.28,18H15.7C8.13,18,2.5,23.42,2.5,31.26S8.13,44.51,15.7,44.51ZM36.72,57H59.3c7.57,0,13.2-5.39,13.2-13.23S66.87,30.49,59.3,30.49H54.88a7.55,7.55,0,0,1,0,1.26H59c7.09,0,12.25,5,12.25,12s-5.19,12-12.25,12H37c-7.07,0-12.25-5.06-12.25-12s5.16-12,12.25-12h9.86a4.12,4.12,0,0,0,0-1.26H36.72c-7.61,0-13.23,5.39-13.23,13.25S29.11,57,36.72,57Z"/></svg>