<svg id="Layer_1" data-name="Layer 1" xmlns="http://www.w3.org/2000/svg" viewBox="0 0 75 75"><defs><style>.cls-1{fill:#999;stroke:#999;stroke-miterlimit:10;}</style></defs><g id="Ultralight-S"><path class="cls-1" d="M33.51,60.33H68.24c2.84,0,4.26-1.07,4.26-3.23A11,11,0,0,0,71,51.86a18.48,18.48,0,0,0-4.32-5.17,22.82,22.82,0,0,0-6.81-3.92,25.43,25.43,0,0,0-9-1.5,25.23,25.23,0,0,0-8.95,1.5,22.57,22.57,0,0,0-6.81,3.92,18.52,18.52,0,0,0-4.33,5.17,11,11,0,0,0-1.5,5.24C29.28,59.26,30.69,60.33,33.51,60.33ZM50.94,37.21a9.48,9.48,0,0,0,5.23-1.5,10.67,10.67,0,0,0,3.69-4.09,12.38,12.38,0,0,0,1.35-5.81,11.48,11.48,0,0,0-1.38-5.58,11.17,11.17,0,0,0-3.72-4.05,9.59,9.59,0,0,0-10.33,0,11.29,11.29,0,0,0-5.09,9.63,12.49,12.49,0,0,0,1.39,5.81,10.7,10.7,0,0,0,3.67,4.09A9.35,9.35,0,0,0,50.94,37.21ZM33.43,58.86a3.84,3.84,0,0,1-2.08-.4,1.57,1.57,0,0,1-.58-1.4,10.05,10.05,0,0,1,1.36-4.74,16.61,16.61,0,0,1,4-4.69,20.81,20.81,0,0,1,6.32-3.55,24.24,24.24,0,0,1,8.45-1.37,24.31,24.31,0,0,1,8.47,1.37,20.68,20.68,0,0,1,6.34,3.55,16.61,16.61,0,0,1,4,4.69A10.05,10.05,0,0,1,71,57.06a1.57,1.57,0,0,1-.58,1.4,3.89,3.89,0,0,1-2.11.4ZM50.94,35.75a7.9,7.9,0,0,1-4.45-1.31,9.28,9.28,0,0,1-3.15-3.55,10.93,10.93,0,0,1-1.16-5.08A9.75,9.75,0,0,1,43.33,21a9.45,9.45,0,0,1,3.18-3.51,8.11,8.11,0,0,1,8.84,0A9.46,9.46,0,0,1,58.53,21a10.11,10.11,0,0,1,1.19,4.86,11,11,0,0,1-1.16,5.08,9.22,9.22,0,0,1-3.16,3.55A8,8,0,0,1,50.94,35.75Z"/><path class="cls-1" d="M21.35,37.75a8.27,8.27,0,0,0,4.57-1.31,9.36,9.36,0,0,0,3.22-3.55,10.61,10.61,0,0,0,1.19-5.08,10,10,0,0,0-4.47-8.42,8.28,8.28,0,0,0-9,0,9.86,9.86,0,0,0-4.43,8.43,11.09,11.09,0,0,0,1.21,5.07,9.22,9.22,0,0,0,3.19,3.55A8.16,8.16,0,0,0,21.35,37.75ZM6.21,60.33H29.15a3.11,3.11,0,0,1-.75-.56,2.65,2.65,0,0,1-.56-.87H6.19a2.53,2.53,0,0,1-1.73-.46A2.06,2.06,0,0,1,4,56.89a11.91,11.91,0,0,1,2.36-7.13,17,17,0,0,1,6.31-5.22,19.19,19.19,0,0,1,8.66-2,20.37,20.37,0,0,1,6.62,1,16,16,0,0,1,5.43,3.08c.2-.16.38-.32.56-.48l.56-.47a18.72,18.72,0,0,0-6-3.44,21.56,21.56,0,0,0-7.14-1.17,20.45,20.45,0,0,0-7.77,1.41,19.19,19.19,0,0,0-5.93,3.7,16.71,16.71,0,0,0-3.78,5.08A13.08,13.08,0,0,0,2.5,56.91a3.34,3.34,0,0,0,.92,2.58A4,4,0,0,0,6.21,60.33Zm15.14-24A6.82,6.82,0,0,1,16,33.86a8.75,8.75,0,0,1-2.14-6,8.51,8.51,0,0,1,1-4.14,8.29,8.29,0,0,1,2.7-3,6.54,6.54,0,0,1,3.74-1.14,6.7,6.7,0,0,1,3.77,1.12,8.36,8.36,0,0,1,2.73,3,8.57,8.57,0,0,1,1,4.16,8.7,8.7,0,0,1-2.17,6.05A6.92,6.92,0,0,1,21.35,36.28Z"/></g></svg>