<svg id="Layer_1" data-name="Layer 1" xmlns="http://www.w3.org/2000/svg" viewBox="0 0 75 75"><defs><style>.cls-1{fill:#989898;stroke:#989898;}</style></defs><path class="cls-1" d="M16.21,72.5c.41,0,.71-.15,1.08-.71L38,38.08,59,4.32a1.78,1.78,0,0,0,.33-.89.92.92,0,0,0-1-.93c-.52,0-.71.19-1.08.78L36.42,37,15.58,70.68a1.79,1.79,0,0,0-.33,1A.87.87,0,0,0,16.21,72.5ZM14.39,20.92v9.9a.83.83,0,0,0,.93.89.8.8,0,0,0,.82-.89v-9.9H25c.6,0,.93-.3.93-.85s-.33-.82-.93-.82H16.14V9.38c0-.55-.26-1-.82-1a.85.85,0,0,0-.93,1v9.87H5.5c-.56,0-.93.29-.93.82a.82.82,0,0,0,.93.85ZM50.12,57.69c0,.59.37.85,1,.85H69.47c.59,0,1-.26,1-.85s-.37-.78-1-.78H51.08C50.49,56.91,50.12,57.2,50.12,57.69Z"/></svg>