<svg id="Layer_1" data-name="Layer 1" xmlns="http://www.w3.org/2000/svg" viewBox="0 0 75 75"><defs><style>.cls-1{fill:#989898;stroke:#989898;}</style></defs><path class="cls-1" d="M37.5,72.52a35,35,0,1,0-35-35A35.11,35.11,0,0,0,37.5,72.52Zm0-1.77A33.25,33.25,0,1,1,70.73,37.48,33.29,33.29,0,0,1,37.5,70.75Zm-.58-26.12a.88.88,0,0,0,.87-1V42.29c0-2.35,1-3.72,3.94-5.78,3.82-2.64,5.13-4.73,5.13-7.95,0-4.23-3.8-7.44-9.25-7.44s-9,3.39-9.39,7.22a12.72,12.72,0,0,0-.08,1.27.89.89,0,0,0,.94.94.87.87,0,0,0,.94-.94,7.14,7.14,0,0,1,7.48-6.76c4.59,0,7.48,2.46,7.48,5.85,0,2.5-1.2,4.16-4.81,6.65-3.1,2.17-4.19,4-4.19,6.83v1.48A.92.92,0,0,0,36.92,44.63ZM36.85,54a2.31,2.31,0,0,0,2.28-2.27,2.27,2.27,0,0,0-2.28-2.28,2.3,2.3,0,0,0-2.28,2.28A2.34,2.34,0,0,0,36.85,54Z"/></svg>