<svg id="Layer_1" data-name="Layer 1" xmlns="http://www.w3.org/2000/svg" viewBox="0 0 75 75"><defs><style>.cls-1{fill:#989898;stroke:#989898;stroke-miterlimit:10;}</style></defs><g id="Ultralight-S"><path class="cls-1" d="M59.48,24.1a3.35,3.35,0,0,0,2.32-1,3.16,3.16,0,0,0,1-2.31,3.26,3.26,0,0,0-1-2.37,3.13,3.13,0,0,0-2.32-1,3.32,3.32,0,0,0-2.36,5.7A3.2,3.2,0,0,0,59.48,24.1Zm0,16.76a3.26,3.26,0,0,0,2.32-1,3.16,3.16,0,0,0,1-2.31,3.3,3.3,0,0,0-1-2.37,3.13,3.13,0,0,0-2.32-1,3.2,3.2,0,0,0-2.36,1,3.24,3.24,0,0,0-1,2.37,3.4,3.4,0,0,0,3.36,3.33Zm0,16.77a3.35,3.35,0,0,0,2.32-1,3.18,3.18,0,0,0,1-2.32,3.3,3.3,0,0,0-1-2.37,3.17,3.17,0,0,0-2.32-1,3.42,3.42,0,0,0-3.36,3.37,3.42,3.42,0,0,0,3.36,3.34Zm12.2-27.76V28.14h-68v1.73Zm0,17.13V45.27h-68V47ZM10.41,64.08H64.59a7.94,7.94,0,0,0,5.91-2,8,8,0,0,0,2-5.86V18.82a8,8,0,0,0-2-5.86,7.94,7.94,0,0,0-5.91-2H10.41a8.05,8.05,0,0,0-5.91,2,8,8,0,0,0-2,5.9V56.18a8,8,0,0,0,2,5.9A8.05,8.05,0,0,0,10.41,64.08Zm.08-1.76a6.34,6.34,0,0,1-4.67-1.57,6.34,6.34,0,0,1-1.57-4.66V18.91a6.34,6.34,0,0,1,1.57-4.66,6.34,6.34,0,0,1,4.67-1.57h54a6.35,6.35,0,0,1,4.61,1.57,6.2,6.2,0,0,1,1.63,4.66V56.09a6.2,6.2,0,0,1-1.63,4.66,6.35,6.35,0,0,1-4.61,1.57Z"/></g></svg>