<svg id="Layer_1" data-name="Layer 1" xmlns="http://www.w3.org/2000/svg" viewBox="0 0 332.75 88.92"><defs><style>.cls-1{fill:#9c1c1f;}.cls-2{fill:#f9f5d8;}</style></defs><rect class="cls-1" width="332.75" height="88.92" rx="16.1"/><path class="cls-2" d="M38.7,32.1a33.72,33.72,0,0,1,6.36-.56c3.48,0,5.72.6,7.4,2a5.65,5.65,0,0,1,2.24,4.76,6.4,6.4,0,0,1-4.56,5.92v.08A7,7,0,0,1,55.7,51a7.24,7.24,0,0,1-2.28,5.39c-1.88,1.72-4.92,2.52-9.32,2.52a40.68,40.68,0,0,1-5.4-.32Zm3.48,11h3.16c3.68,0,5.84-1.92,5.84-4.52,0-3.16-2.4-4.4-5.92-4.4a14.93,14.93,0,0,0-3.08.24Zm0,12.91a18.6,18.6,0,0,0,2.92.16C48.7,56.21,52,54.89,52,51c0-3.68-3.16-5.2-7-5.2H42.18Z"/><path class="cls-2" d="M77.93,48.86c0,7.15-5,10.27-9.63,10.27-5.24,0-9.28-3.84-9.28-10,0-6.48,4.24-10.28,9.6-10.28C74.18,38.9,77.93,42.94,77.93,48.86Zm-15.35.2c0,4.24,2.44,7.43,5.88,7.43s5.88-3.15,5.88-7.51c0-3.28-1.64-7.44-5.8-7.44S62.58,45.38,62.58,49.06Z"/><path class="cls-2" d="M86.62,33.78v5.56h5V42h-5V52.46c0,2.39.68,3.75,2.64,3.75a7.83,7.83,0,0,0,2-.24l.16,2.64a8.62,8.62,0,0,1-3.12.48,4.88,4.88,0,0,1-3.8-1.48c-1-1-1.36-2.76-1.36-5V42h-3V39.34h3V34.7Z"/><path class="cls-2" d="M99.86,33.78v5.56h5V42h-5V52.46c0,2.39.68,3.75,2.64,3.75a7.83,7.83,0,0,0,2-.24l.16,2.64a8.62,8.62,0,0,1-3.12.48,4.88,4.88,0,0,1-3.8-1.48c-1-1-1.36-2.76-1.36-5V42h-3V39.34h3V34.7Z"/><path class="cls-2" d="M126.13,48.86c0,7.15-4.95,10.27-9.63,10.27-5.24,0-9.28-3.84-9.28-10,0-6.48,4.24-10.28,9.6-10.28C122.37,38.9,126.13,42.94,126.13,48.86Zm-15.35.2c0,4.24,2.44,7.43,5.88,7.43s5.87-3.15,5.87-7.51c0-3.28-1.64-7.44-5.79-7.44S110.78,45.38,110.78,49.06Z"/><path class="cls-2" d="M130.58,44.58c0-2,0-3.64-.16-5.24h3.08l.16,3.12h.12a6.67,6.67,0,0,1,6.08-3.56,5.72,5.72,0,0,1,5.47,3.88h.08a8,8,0,0,1,2.16-2.52,6.61,6.61,0,0,1,4.28-1.36c2.56,0,6.36,1.68,6.36,8.4V58.69h-3.44V47.74c0-3.72-1.36-6-4.2-6a4.56,4.56,0,0,0-4.16,3.2,5.8,5.8,0,0,0-.28,1.76V58.69H142.7V47.1c0-3.08-1.36-5.32-4-5.32A5.25,5.25,0,0,0,134,47V58.69h-3.44Z"/><path class="cls-2" d="M189.93,48.86c0,7.15-5,10.27-9.63,10.27-5.24,0-9.28-3.84-9.28-10,0-6.48,4.24-10.28,9.59-10.28C186.17,38.9,189.93,42.94,189.93,48.86Zm-15.35.2c0,4.24,2.44,7.43,5.87,7.43s5.88-3.15,5.88-7.51c0-3.28-1.64-7.44-5.8-7.44S174.58,45.38,174.58,49.06Z"/><path class="cls-2" d="M194.74,58.69V42H192V39.34h2.72v-.92c0-2.72.6-5.2,2.24-6.76a6.74,6.74,0,0,1,4.72-1.8,8.15,8.15,0,0,1,3,.56l-.48,2.72A5.26,5.26,0,0,0,202,32.7c-3,0-3.75,2.64-3.75,5.6v1h4.67V42h-4.67V58.69Z"/><path class="cls-2" d="M214.66,32.06a40.2,40.2,0,0,1,6.67-.52c3.44,0,6,.8,7.56,2.24a7.25,7.25,0,0,1,2.36,5.64,7.94,7.94,0,0,1-2.08,5.76c-1.84,2-4.84,3-8.24,3a11.84,11.84,0,0,1-2.79-.24V58.69h-3.48Zm3.48,13a11.53,11.53,0,0,0,2.87.28c4.2,0,6.76-2,6.76-5.76,0-3.56-2.52-5.28-6.36-5.28a14.43,14.43,0,0,0-3.27.28Z"/><path class="cls-2" d="M245.49,58.69l-.28-2.44h-.12a7.21,7.21,0,0,1-5.91,2.88,5.52,5.52,0,0,1-5.92-5.56c0-4.67,4.16-7.23,11.63-7.19V46c0-1.6-.44-4.48-4.39-4.48a9.65,9.65,0,0,0-5,1.44l-.8-2.32A12,12,0,0,1,241,38.9c5.91,0,7.35,4,7.35,7.92v7.23a27.26,27.26,0,0,0,.32,4.64ZM245,48.82c-3.83-.08-8.19.6-8.19,4.35a3.11,3.11,0,0,0,3.32,3.36,4.82,4.82,0,0,0,4.67-3.23,3.74,3.74,0,0,0,.2-1.13Z"/><path class="cls-2" d="M270.73,39.34c-.08,1.4-.16,3-.16,5.32V55.89c0,4.44-.88,7.16-2.76,8.84a10.26,10.26,0,0,1-7,2.32,12.48,12.48,0,0,1-6.43-1.6l.88-2.68a10.91,10.91,0,0,0,5.67,1.52c3.6,0,6.24-1.88,6.24-6.76V55.37h-.08a6.91,6.91,0,0,1-6.16,3.24c-4.79,0-8.23-4.08-8.23-9.43,0-6.56,4.28-10.28,8.71-10.28a6.44,6.44,0,0,1,6,3.36h.08l.16-2.92ZM267.09,47a5,5,0,0,0-.2-1.6A5.07,5.07,0,0,0,262,41.66c-3.36,0-5.75,2.84-5.75,7.32,0,3.8,1.92,7,5.71,7a5.15,5.15,0,0,0,4.88-3.59,6.12,6.12,0,0,0,.28-1.88Z"/><path class="cls-2" d="M278.38,49.66c.07,4.75,3.11,6.71,6.63,6.71a12.73,12.73,0,0,0,5.36-1l.6,2.52a15.68,15.68,0,0,1-6.44,1.2c-6,0-9.51-3.92-9.51-9.75s3.43-10.44,9.07-10.44c6.32,0,8,5.56,8,9.12a13.28,13.28,0,0,1-.12,1.64Zm10.31-2.52c0-2.24-.92-5.72-4.88-5.72-3.56,0-5.11,3.28-5.4,5.72Z"/><path class="cls-2" d="M38.7,32.1a33.72,33.72,0,0,1,6.36-.56c3.48,0,5.72.6,7.4,2a5.65,5.65,0,0,1,2.24,4.76,6.4,6.4,0,0,1-4.56,5.92v.08A7,7,0,0,1,55.7,51a7.24,7.24,0,0,1-2.28,5.39c-1.88,1.72-4.92,2.52-9.32,2.52a40.68,40.68,0,0,1-5.4-.32Zm3.48,11h3.16c3.68,0,5.84-1.92,5.84-4.52,0-3.16-2.4-4.4-5.92-4.4a14.93,14.93,0,0,0-3.08.24Zm0,12.91a18.6,18.6,0,0,0,2.92.16C48.7,56.21,52,54.89,52,51c0-3.68-3.16-5.2-7-5.2H42.18Z"/><path class="cls-2" d="M77.93,48.86c0,7.15-5,10.27-9.63,10.27-5.24,0-9.28-3.84-9.28-10,0-6.48,4.24-10.28,9.6-10.28C74.18,38.9,77.93,42.94,77.93,48.86Zm-15.35.2c0,4.24,2.44,7.43,5.88,7.43s5.88-3.15,5.88-7.51c0-3.28-1.64-7.44-5.8-7.44S62.58,45.38,62.58,49.06Z"/><path class="cls-2" d="M86.62,33.78v5.56h5V42h-5V52.46c0,2.39.68,3.75,2.64,3.75a7.83,7.83,0,0,0,2-.24l.16,2.64a8.62,8.62,0,0,1-3.12.48,4.88,4.88,0,0,1-3.8-1.48c-1-1-1.36-2.76-1.36-5V42h-3V39.34h3V34.7Z"/><path class="cls-2" d="M99.86,33.78v5.56h5V42h-5V52.46c0,2.39.68,3.75,2.64,3.75a7.83,7.83,0,0,0,2-.24l.16,2.64a8.62,8.62,0,0,1-3.12.48,4.88,4.88,0,0,1-3.8-1.48c-1-1-1.36-2.76-1.36-5V42h-3V39.34h3V34.7Z"/><path class="cls-2" d="M126.13,48.86c0,7.15-4.95,10.27-9.63,10.27-5.24,0-9.28-3.84-9.28-10,0-6.48,4.24-10.28,9.6-10.28C122.37,38.9,126.13,42.94,126.13,48.86Zm-15.35.2c0,4.24,2.44,7.43,5.88,7.43s5.87-3.15,5.87-7.51c0-3.28-1.64-7.44-5.79-7.44S110.78,45.38,110.78,49.06Z"/><path class="cls-2" d="M130.58,44.58c0-2,0-3.64-.16-5.24h3.08l.16,3.12h.12a6.67,6.67,0,0,1,6.08-3.56,5.72,5.72,0,0,1,5.47,3.88h.08a8,8,0,0,1,2.16-2.52,6.61,6.61,0,0,1,4.28-1.36c2.56,0,6.36,1.68,6.36,8.4V58.69h-3.44V47.74c0-3.72-1.36-6-4.2-6a4.56,4.56,0,0,0-4.16,3.2,5.8,5.8,0,0,0-.28,1.76V58.69H142.7V47.1c0-3.08-1.36-5.32-4-5.32A5.25,5.25,0,0,0,134,47V58.69h-3.44Z"/><path class="cls-2" d="M189.93,48.86c0,7.15-5,10.27-9.63,10.27-5.24,0-9.28-3.84-9.28-10,0-6.48,4.24-10.28,9.59-10.28C186.17,38.9,189.93,42.94,189.93,48.86Zm-15.35.2c0,4.24,2.44,7.43,5.87,7.43s5.88-3.15,5.88-7.51c0-3.28-1.64-7.44-5.8-7.44S174.58,45.38,174.58,49.06Z"/><path class="cls-2" d="M194.74,58.69V42H192V39.34h2.72v-.92c0-2.72.6-5.2,2.24-6.76a6.74,6.74,0,0,1,4.72-1.8,8.15,8.15,0,0,1,3,.56l-.48,2.72A5.26,5.26,0,0,0,202,32.7c-3,0-3.75,2.64-3.75,5.6v1h4.67V42h-4.67V58.69Z"/><path class="cls-2" d="M214.66,32.06a40.2,40.2,0,0,1,6.67-.52c3.44,0,6,.8,7.56,2.24a7.25,7.25,0,0,1,2.36,5.64,7.94,7.94,0,0,1-2.08,5.76c-1.84,2-4.84,3-8.24,3a11.84,11.84,0,0,1-2.79-.24V58.69h-3.48Zm3.48,13a11.53,11.53,0,0,0,2.87.28c4.2,0,6.76-2,6.76-5.76,0-3.56-2.52-5.28-6.36-5.28a14.43,14.43,0,0,0-3.27.28Z"/><path class="cls-2" d="M245.49,58.69l-.28-2.44h-.12a7.21,7.21,0,0,1-5.91,2.88,5.52,5.52,0,0,1-5.92-5.56c0-4.67,4.16-7.23,11.63-7.19V46c0-1.6-.44-4.48-4.39-4.48a9.65,9.65,0,0,0-5,1.44l-.8-2.32A12,12,0,0,1,241,38.9c5.91,0,7.35,4,7.35,7.92v7.23a27.26,27.26,0,0,0,.32,4.64ZM245,48.82c-3.83-.08-8.19.6-8.19,4.35a3.11,3.11,0,0,0,3.32,3.36,4.82,4.82,0,0,0,4.67-3.23,3.74,3.74,0,0,0,.2-1.13Z"/><path class="cls-2" d="M270.73,39.34c-.08,1.4-.16,3-.16,5.32V55.89c0,4.44-.88,7.16-2.76,8.84a10.26,10.26,0,0,1-7,2.32,12.48,12.48,0,0,1-6.43-1.6l.88-2.68a10.91,10.91,0,0,0,5.67,1.52c3.6,0,6.24-1.88,6.24-6.76V55.37h-.08a6.91,6.91,0,0,1-6.16,3.24c-4.79,0-8.23-4.08-8.23-9.43,0-6.56,4.28-10.28,8.71-10.28a6.44,6.44,0,0,1,6,3.36h.08l.16-2.92ZM267.09,47a5,5,0,0,0-.2-1.6A5.07,5.07,0,0,0,262,41.66c-3.36,0-5.75,2.84-5.75,7.32,0,3.8,1.92,7,5.71,7a5.15,5.15,0,0,0,4.88-3.59,6.12,6.12,0,0,0,.28-1.88Z"/><path class="cls-2" d="M278.38,49.66c.07,4.75,3.11,6.71,6.63,6.71a12.73,12.73,0,0,0,5.36-1l.6,2.52a15.68,15.68,0,0,1-6.44,1.2c-6,0-9.51-3.92-9.51-9.75s3.43-10.44,9.07-10.44c6.32,0,8,5.56,8,9.12a13.28,13.28,0,0,1-.12,1.64Zm10.31-2.52c0-2.24-.92-5.72-4.88-5.72-3.56,0-5.11,3.28-5.4,5.72Z"/></svg>