<svg id="Layer_1" data-name="Layer 1" xmlns="http://www.w3.org/2000/svg" viewBox="0 0 354.05 88.92"><defs><style>.cls-1{fill:#086778;}.cls-2{fill:#f9f5d8;}</style></defs><rect class="cls-1" width="354.05" height="88.92" rx="16.1"/><path class="cls-2" d="M60.81,57.45a30.1,30.1,0,0,1-9,1.52c-4.92,0-8.48-1.24-11-3.64a13,13,0,0,1-3.8-9.79c0-9,6.56-14.08,15.4-14.08a18.55,18.55,0,0,1,7.47,1.32l-1.28,4.88a14.85,14.85,0,0,0-6.27-1.16c-5.08,0-8.92,2.88-8.92,8.72,0,5.56,3.48,8.83,8.48,8.83a8.16,8.16,0,0,0,3-.4V48H50.78V43.26h10Z"/><path class="cls-2" d="M65.5,45.58c0-2.88-.08-4.76-.16-6.44h5.24l.2,3.6h.16a5.75,5.75,0,0,1,5.28-4,6.27,6.27,0,0,1,1.28.08V44.5a8.72,8.72,0,0,0-1.64-.16,3.91,3.91,0,0,0-4.16,3.08,7.17,7.17,0,0,0-.12,1.36v9.91H65.5Z"/><path class="cls-2" d="M91.38,58.69l-.36-2H90.9a7,7,0,0,1-5.6,2.4,6,6,0,0,1-6.32-6c0-5.07,4.56-7.51,11.48-7.47v-.28c0-1-.56-2.52-3.56-2.52a11,11,0,0,0-5.4,1.48l-1.12-3.92A16.15,16.15,0,0,1,88,38.7c6.51,0,8.59,3.84,8.59,8.44v6.79a30.31,30.31,0,0,0,.28,4.76Zm-.72-9.23c-3.2,0-5.68.72-5.68,3.07a2.18,2.18,0,0,0,2.4,2.32,3.32,3.32,0,0,0,3.16-2.24,4.22,4.22,0,0,0,.12-1Z"/><path class="cls-2" d="M101.38,45.7c0-2.56-.08-4.76-.16-6.56h5.28l.28,2.72h.08a7.51,7.51,0,0,1,6.52-3.16c4.27,0,8.11,3.72,8.11,10,0,7.11-4.52,10.47-8.87,10.47a6.08,6.08,0,0,1-5.08-2.24h-.08v9.72h-6.08Zm6.08,4.6a6.06,6.06,0,0,0,.12,1.28,3.68,3.68,0,0,0,3.56,2.87c2.64,0,4.2-2.2,4.2-5.51,0-3.12-1.4-5.48-4.12-5.48a3.82,3.82,0,0,0-3.64,3.08,4.7,4.7,0,0,0-.12,1.08Z"/><path class="cls-2" d="M125.3,30.3h6.08V41.46h.08a7.3,7.3,0,0,1,2.4-2A6.83,6.83,0,0,1,137,38.7c3.87,0,6.83,2.68,6.83,8.56V58.69h-6.07V47.94c0-2.56-.88-4.32-3.16-4.32a3.23,3.23,0,0,0-3,2.12,3.87,3.87,0,0,0-.2,1.36V58.69H125.3Z"/><path class="cls-2" d="M155,33.7a3.05,3.05,0,0,1-3.28,3,3.06,3.06,0,1,1,0-6.12A3,3,0,0,1,155,33.7Zm-6.28,25V39.14h6.08V58.69Z"/><path class="cls-2" d="M174.37,58.21a14.81,14.81,0,0,1-5.43.88c-6.32,0-10.36-3.84-10.36-10,0-5.72,3.92-10.4,11.2-10.4a14.09,14.09,0,0,1,4.63.76l-1,4.52a8.32,8.32,0,0,0-3.4-.6,5.06,5.06,0,0,0-5.23,5.48,5.08,5.08,0,0,0,5.36,5.47,9.36,9.36,0,0,0,3.47-.6Z"/><path class="cls-2" d="M186,32.1a54.38,54.38,0,0,1,8.23-.56c5.12,0,8.44.92,11,2.88,2.8,2.08,4.56,5.4,4.56,10.16,0,5.16-1.88,8.72-4.48,10.91-2.84,2.36-7.16,3.48-12.44,3.48a52.74,52.74,0,0,1-6.91-.4Zm6.11,22a11.22,11.22,0,0,0,2.12.12c5.52,0,9.12-3,9.12-9.43,0-5.6-3.24-8.56-8.48-8.56a12.68,12.68,0,0,0-2.76.24Z"/><path class="cls-2" d="M218.33,50.86c.2,2.51,2.68,3.71,5.52,3.71a17.53,17.53,0,0,0,5.4-.79l.8,4.11a19.31,19.31,0,0,1-7.08,1.2c-6.63,0-10.43-3.84-10.43-10,0-5,3.08-10.44,9.87-10.44,6.32,0,8.72,4.92,8.72,9.76a14.44,14.44,0,0,1-.2,2.4Zm7.16-4.16c0-1.48-.64-4-3.44-4-2.56,0-3.6,2.32-3.76,4Z"/><path class="cls-2" d="M234.74,53.37A11.88,11.88,0,0,0,240,54.85c1.84,0,2.6-.64,2.6-1.64S242,51.73,239.7,51c-4-1.36-5.6-3.56-5.56-5.88,0-3.64,3.12-6.4,8-6.4a13.12,13.12,0,0,1,5.52,1.12L246.53,44a9.6,9.6,0,0,0-4.24-1.12c-1.48,0-2.32.6-2.32,1.6s.76,1.4,3.16,2.24c3.72,1.28,5.28,3.16,5.32,6,0,3.63-2.88,6.31-8.48,6.31a13.83,13.83,0,0,1-6.31-1.36Z"/><path class="cls-2" d="M258.41,33.7a3,3,0,0,1-3.27,3,3.06,3.06,0,1,1,0-6.12A3,3,0,0,1,258.41,33.7Zm-6.27,25V39.14h6.07V58.69Z"/><path class="cls-2" d="M281.77,39.14c-.08,1.24-.16,2.88-.16,5.8V55.85c0,3.76-.76,6.84-3,8.8s-5.08,2.4-8,2.4a15.17,15.17,0,0,1-7-1.52l1.19-4.6a12,12,0,0,0,5.68,1.48c2.88,0,5.08-1.56,5.08-5.16V56h-.08a6.25,6.25,0,0,1-5.28,2.56c-4.84,0-8.27-3.92-8.27-9.55,0-6.28,4.07-10.28,8.87-10.28a5.9,5.9,0,0,1,5.36,2.76h.08l.2-2.32Zm-6.24,8a4.81,4.81,0,0,0-.12-1.12,3.33,3.33,0,0,0-3.28-2.68c-2.2,0-4,2-4,5.56,0,2.92,1.44,5.19,4,5.19a3.3,3.3,0,0,0,3.2-2.47,5.17,5.17,0,0,0,.2-1.6Z"/><path class="cls-2" d="M286.49,45.38c0-2.44-.08-4.52-.16-6.24h5.28l.28,2.68H292a7.16,7.16,0,0,1,6-3.12c4,0,7,2.64,7,8.4V58.69H299V47.86c0-2.52-.88-4.24-3.08-4.24a3.25,3.25,0,0,0-3.08,2.28,4.18,4.18,0,0,0-.24,1.52V58.69h-6.08Z"/></svg>