<svg id="Layer_1" data-name="Layer 1" xmlns="http://www.w3.org/2000/svg" viewBox="0 0 323.58 88.92"><defs><style>.cls-1{fill:#b4772a;}.cls-2{fill:#f9f5d8;}</style></defs><rect class="cls-1" width="323.58" height="88.92" rx="16.1"/><path class="cls-2" d="M43.58,31.74h6.08v17c0,7.67-3.68,10.35-9.6,10.35a15.87,15.87,0,0,1-4.44-.64l.68-4.91a10.35,10.35,0,0,0,3.12.47c2.56,0,4.16-1.15,4.16-5.35Z"/><path class="cls-2" d="M65.46,58.69l-.36-2H65a7,7,0,0,1-5.6,2.4,6,6,0,0,1-6.32-6c0-5.07,4.56-7.51,11.48-7.47v-.28c0-1-.56-2.52-3.56-2.52a11,11,0,0,0-5.4,1.48l-1.12-3.92a16.15,16.15,0,0,1,7.6-1.72c6.52,0,8.6,3.84,8.6,8.44v6.79a30.31,30.31,0,0,0,.28,4.76Zm-.72-9.23c-3.2,0-5.68.72-5.68,3.07a2.18,2.18,0,0,0,2.4,2.32,3.33,3.33,0,0,0,3.16-2.23,4.42,4.42,0,0,0,.12-1Z"/><path class="cls-2" d="M79.5,39.14l2.64,9.08A45,45,0,0,1,83.26,53h.12c.32-1.6.64-3.07,1.08-4.75L87,39.14h6.4L86.1,58.69H80L72.9,39.14Z"/><path class="cls-2" d="M107,58.69l-.36-2h-.12a7,7,0,0,1-5.6,2.4,6,6,0,0,1-6.32-6c0-5.07,4.56-7.51,11.48-7.47v-.28c0-1-.56-2.52-3.56-2.52a11,11,0,0,0-5.4,1.48L96,40.42a16.15,16.15,0,0,1,7.6-1.72c6.52,0,8.6,3.84,8.6,8.44v6.79a30.31,30.31,0,0,0,.28,4.76Zm-.72-9.23c-3.2,0-5.68.72-5.68,3.07a2.18,2.18,0,0,0,2.4,2.32,3.33,3.33,0,0,0,3.16-2.23,4.42,4.42,0,0,0,.12-1Z"/><path class="cls-2" d="M125.3,32.1a49.91,49.91,0,0,1,8.24-.56c3.76,0,6.44.72,8.24,2.16a7.88,7.88,0,0,1,2.88,6.24,8.62,8.62,0,0,1-2.48,6.4c-2.08,2-5.16,2.84-8.76,2.84a15.35,15.35,0,0,1-2.08-.12v9.63h-6Zm6,12.24a9.32,9.32,0,0,0,2,.16c3.24,0,5.24-1.64,5.24-4.4,0-2.48-1.72-4-4.76-4a10.39,10.39,0,0,0-2.52.24Z"/><path class="cls-2" d="M148,45.58c0-2.88-.08-4.76-.16-6.44h5.24l.2,3.6h.16a5.75,5.75,0,0,1,5.28-4,6.27,6.27,0,0,1,1.28.08V44.5a8.72,8.72,0,0,0-1.64-.16,3.91,3.91,0,0,0-4.16,3.08,7.17,7.17,0,0,0-.12,1.36v9.91H148Z"/><path class="cls-2" d="M182.18,48.7c0,7.15-5.08,10.43-10.32,10.43-5.72,0-10.12-3.76-10.12-10.07S165.9,38.7,172.18,38.7C178.18,38.7,182.18,42.82,182.18,48.7ZM168,48.9c0,3.35,1.4,5.87,4,5.87,2.36,0,3.88-2.36,3.88-5.87C175.9,46,174.78,43,172,43,169.1,43,168,46,168,48.9Z"/><path class="cls-2" d="M181.9,62.29A5.39,5.39,0,0,0,185.5,61c.88-.92,1.2-2.48,1.2-6.36V39.14h6.12v17c0,4.28-1,6.88-2.76,8.56s-4.64,2.4-7.56,2.4ZM193,33.7a3,3,0,0,1-3.28,3,3.07,3.07,0,1,1,3.28-3Z"/><path class="cls-2" d="M202.26,50.86c.2,2.51,2.68,3.72,5.52,3.72a17.52,17.52,0,0,0,5.4-.8l.8,4.11a19.31,19.31,0,0,1-7.08,1.2c-6.64,0-10.44-3.84-10.44-10,0-5,3.08-10.44,9.88-10.44,6.32,0,8.71,4.92,8.71,9.76a14.82,14.82,0,0,1-.19,2.4Zm7.16-4.16c0-1.48-.64-4-3.44-4-2.56,0-3.6,2.32-3.76,4Z"/><path class="cls-2" d="M233.38,58.21a14.83,14.83,0,0,1-5.44.88c-6.32,0-10.36-3.84-10.36-10,0-5.72,3.92-10.4,11.2-10.4a14.1,14.1,0,0,1,4.64.76l-1,4.52a8.32,8.32,0,0,0-3.4-.6,5.06,5.06,0,0,0-5.24,5.48,5.09,5.09,0,0,0,5.36,5.47,9.61,9.61,0,0,0,3.48-.59Z"/><path class="cls-2" d="M244.18,33.54v5.6h4.36v4.48h-4.36V50.7c0,2.35.56,3.43,2.4,3.43a9.93,9.93,0,0,0,1.8-.16l0,4.6a11.93,11.93,0,0,1-4,.52,6.32,6.32,0,0,1-4.56-1.68c-1.12-1.16-1.68-3-1.68-5.79v-8h-2.6V39.14h2.6V34.9Z"/><path class="cls-2" d="M252,53.37a11.89,11.89,0,0,0,5.24,1.48c1.84,0,2.6-.64,2.6-1.64s-.6-1.47-2.88-2.23c-4-1.36-5.6-3.56-5.56-5.88,0-3.64,3.12-6.4,8-6.4a13,13,0,0,1,5.51,1.12L263.82,44a9.6,9.6,0,0,0-4.24-1.12c-1.48,0-2.32.6-2.32,1.6s.76,1.4,3.16,2.24c3.72,1.28,5.27,3.16,5.31,6,0,3.63-2.87,6.31-8.47,6.31a13.85,13.85,0,0,1-6.32-1.36Z"/><path class="cls-2" d="M43.58,31.74h6.08v17c0,7.67-3.68,10.35-9.6,10.35a15.87,15.87,0,0,1-4.44-.64l.68-4.91a10.35,10.35,0,0,0,3.12.47c2.56,0,4.16-1.15,4.16-5.35Z"/><path class="cls-2" d="M65.46,58.69l-.36-2H65a7,7,0,0,1-5.6,2.4,6,6,0,0,1-6.32-6c0-5.07,4.56-7.51,11.48-7.47v-.28c0-1-.56-2.52-3.56-2.52a11,11,0,0,0-5.4,1.48l-1.12-3.92a16.15,16.15,0,0,1,7.6-1.72c6.52,0,8.6,3.84,8.6,8.44v6.79a30.31,30.31,0,0,0,.28,4.76Zm-.72-9.23c-3.2,0-5.68.72-5.68,3.07a2.18,2.18,0,0,0,2.4,2.32,3.33,3.33,0,0,0,3.16-2.23,4.42,4.42,0,0,0,.12-1Z"/><path class="cls-2" d="M79.5,39.14l2.64,9.08A45,45,0,0,1,83.26,53h.12c.32-1.6.64-3.07,1.08-4.75L87,39.14h6.4L86.1,58.69H80L72.9,39.14Z"/><path class="cls-2" d="M107,58.69l-.36-2h-.12a7,7,0,0,1-5.6,2.4,6,6,0,0,1-6.32-6c0-5.07,4.56-7.51,11.48-7.47v-.28c0-1-.56-2.52-3.56-2.52a11,11,0,0,0-5.4,1.48L96,40.42a16.15,16.15,0,0,1,7.6-1.72c6.52,0,8.6,3.84,8.6,8.44v6.79a30.31,30.31,0,0,0,.28,4.76Zm-.72-9.23c-3.2,0-5.68.72-5.68,3.07a2.18,2.18,0,0,0,2.4,2.32,3.33,3.33,0,0,0,3.16-2.23,4.42,4.42,0,0,0,.12-1Z"/><path class="cls-2" d="M125.3,32.1a49.91,49.91,0,0,1,8.24-.56c3.76,0,6.44.72,8.24,2.16a7.88,7.88,0,0,1,2.88,6.24,8.62,8.62,0,0,1-2.48,6.4c-2.08,2-5.16,2.84-8.76,2.84a15.35,15.35,0,0,1-2.08-.12v9.63h-6Zm6,12.24a9.32,9.32,0,0,0,2,.16c3.24,0,5.24-1.64,5.24-4.4,0-2.48-1.72-4-4.76-4a10.39,10.39,0,0,0-2.52.24Z"/><path class="cls-2" d="M148,45.58c0-2.88-.08-4.76-.16-6.44h5.24l.2,3.6h.16a5.75,5.75,0,0,1,5.28-4,6.27,6.27,0,0,1,1.28.08V44.5a8.72,8.72,0,0,0-1.64-.16,3.91,3.91,0,0,0-4.16,3.08,7.17,7.17,0,0,0-.12,1.36v9.91H148Z"/><path class="cls-2" d="M182.18,48.7c0,7.15-5.08,10.43-10.32,10.43-5.72,0-10.12-3.76-10.12-10.07S165.9,38.7,172.18,38.7C178.18,38.7,182.18,42.82,182.18,48.7ZM168,48.9c0,3.35,1.4,5.87,4,5.87,2.36,0,3.88-2.36,3.88-5.87C175.9,46,174.78,43,172,43,169.1,43,168,46,168,48.9Z"/><path class="cls-2" d="M181.9,62.29A5.39,5.39,0,0,0,185.5,61c.88-.92,1.2-2.48,1.2-6.36V39.14h6.12v17c0,4.28-1,6.88-2.76,8.56s-4.64,2.4-7.56,2.4ZM193,33.7a3,3,0,0,1-3.28,3,3.07,3.07,0,1,1,3.28-3Z"/><path class="cls-2" d="M202.26,50.86c.2,2.51,2.68,3.72,5.52,3.72a17.52,17.52,0,0,0,5.4-.8l.8,4.11a19.31,19.31,0,0,1-7.08,1.2c-6.64,0-10.44-3.84-10.44-10,0-5,3.08-10.44,9.88-10.44,6.32,0,8.71,4.92,8.71,9.76a14.82,14.82,0,0,1-.19,2.4Zm7.16-4.16c0-1.48-.64-4-3.44-4-2.56,0-3.6,2.32-3.76,4Z"/><path class="cls-2" d="M233.38,58.21a14.83,14.83,0,0,1-5.44.88c-6.32,0-10.36-3.84-10.36-10,0-5.72,3.92-10.4,11.2-10.4a14.1,14.1,0,0,1,4.64.76l-1,4.52a8.32,8.32,0,0,0-3.4-.6,5.06,5.06,0,0,0-5.24,5.48,5.09,5.09,0,0,0,5.36,5.47,9.61,9.61,0,0,0,3.48-.59Z"/><path class="cls-2" d="M244.18,33.54v5.6h4.36v4.48h-4.36V50.7c0,2.35.56,3.43,2.4,3.43a9.93,9.93,0,0,0,1.8-.16l0,4.6a11.93,11.93,0,0,1-4,.52,6.32,6.32,0,0,1-4.56-1.68c-1.12-1.16-1.68-3-1.68-5.79v-8h-2.6V39.14h2.6V34.9Z"/><path class="cls-2" d="M252,53.37a11.89,11.89,0,0,0,5.24,1.48c1.84,0,2.6-.64,2.6-1.64s-.6-1.47-2.88-2.23c-4-1.36-5.6-3.56-5.56-5.88,0-3.64,3.12-6.4,8-6.4a13,13,0,0,1,5.51,1.12L263.82,44a9.6,9.6,0,0,0-4.24-1.12c-1.48,0-2.32.6-2.32,1.6s.76,1.4,3.16,2.24c3.72,1.28,5.27,3.16,5.31,6,0,3.63-2.87,6.31-8.47,6.31a13.85,13.85,0,0,1-6.32-1.36Z"/></svg>