<svg id="Layer_1" data-name="Layer 1" xmlns="http://www.w3.org/2000/svg" viewBox="0 0 320.42 88.92"><defs><style>.cls-1{fill:#9c1c1f;}.cls-2{fill:#f9f5d8;}.cls-3{fill:none;stroke:#f9f5d8;stroke-linecap:round;stroke-miterlimit:10;stroke-width:4px;}</style></defs><rect class="cls-1" width="320.42" height="88.92" rx="16.1"/><path class="cls-2" d="M97,34.7h-8.2v-3h20v3h-8.24v24H97Z"/><path class="cls-2" d="M126.33,48.86c0,7.15-5,10.27-9.63,10.27-5.24,0-9.28-3.84-9.28-10,0-6.48,4.24-10.28,9.59-10.28C122.57,38.9,126.33,42.94,126.33,48.86Zm-15.35.2c0,4.23,2.44,7.43,5.87,7.43s5.88-3.16,5.88-7.51c0-3.28-1.64-7.44-5.8-7.44S111,45.38,111,49.06Z"/><path class="cls-2" d="M130.78,45.66c0-2.48-.08-4.48-.16-6.32h3.16l.16,3.32H134a7.58,7.58,0,0,1,6.87-3.76c4.68,0,8.2,4,8.2,9.84,0,6.95-4.24,10.39-8.8,10.39a6.76,6.76,0,0,1-5.95-3h-.08V66.61h-3.48Zm3.48,5.15a7.93,7.93,0,0,0,.16,1.44,5.41,5.41,0,0,0,5.27,4.12c3.72,0,5.88-3,5.88-7.47,0-3.88-2-7.2-5.76-7.2a5.63,5.63,0,0,0-5.32,4.36,6.19,6.19,0,0,0-.23,1.44Z"/><path class="cls-2" d="M179.53,48.86c0,7.15-5,10.27-9.64,10.27-5.24,0-9.28-3.84-9.28-10,0-6.48,4.24-10.28,9.6-10.28C175.77,38.9,179.53,42.94,179.53,48.86Zm-15.36.2c0,4.23,2.44,7.43,5.88,7.43s5.88-3.16,5.88-7.51c0-3.28-1.64-7.44-5.8-7.44S164.17,45.38,164.17,49.06Z"/><path class="cls-2" d="M184.33,58.69V42h-2.72V39.34h2.72v-.92c0-2.72.6-5.2,2.24-6.76a6.74,6.74,0,0,1,4.72-1.8,8.16,8.16,0,0,1,3,.56l-.48,2.72a5.26,5.26,0,0,0-2.24-.44c-3,0-3.76,2.64-3.76,5.6v1h4.68V42h-4.68V58.69Z"/><path class="cls-2" d="M204.25,32.06a40.33,40.33,0,0,1,6.68-.52c3.44,0,6,.8,7.56,2.24a7.25,7.25,0,0,1,2.36,5.64,7.94,7.94,0,0,1-2.08,5.76c-1.84,2-4.84,3-8.24,3a12,12,0,0,1-2.8-.24V58.69h-3.48Zm3.48,13a11.67,11.67,0,0,0,2.88.28c4.2,0,6.76-2,6.76-5.76,0-3.56-2.52-5.28-6.36-5.28a14.6,14.6,0,0,0-3.28.28Z"/><path class="cls-2" d="M235.09,58.69l-.28-2.44h-.12a7.21,7.21,0,0,1-5.92,2.88,5.52,5.52,0,0,1-5.92-5.56c0-4.67,4.16-7.23,11.64-7.19V46c0-1.6-.44-4.48-4.4-4.48a9.65,9.65,0,0,0-5,1.44l-.8-2.32a12,12,0,0,1,6.36-1.72c5.92,0,7.36,4,7.36,7.92v7.23a27.26,27.26,0,0,0,.32,4.64Zm-.52-9.87c-3.84-.08-8.2.6-8.2,4.35a3.11,3.11,0,0,0,3.32,3.36,4.82,4.82,0,0,0,4.68-3.24,3.67,3.67,0,0,0,.2-1.12Z"/><path class="cls-2" d="M260.33,39.34c-.08,1.4-.16,3-.16,5.32V55.89c0,4.44-.88,7.16-2.76,8.84a10.26,10.26,0,0,1-7,2.32,12.5,12.5,0,0,1-6.44-1.6l.88-2.68a10.92,10.92,0,0,0,5.68,1.52c3.6,0,6.24-1.88,6.24-6.76V55.37h-.08a6.91,6.91,0,0,1-6.16,3.24c-4.8,0-8.24-4.08-8.24-9.43,0-6.56,4.28-10.28,8.72-10.28a6.44,6.44,0,0,1,6,3.36h.08l.16-2.92ZM256.69,47a5,5,0,0,0-.2-1.6,5.07,5.07,0,0,0-4.92-3.72c-3.36,0-5.76,2.84-5.76,7.32,0,3.79,1.92,7,5.72,7a5.15,5.15,0,0,0,4.88-3.6,6.06,6.06,0,0,0,.28-1.87Z"/><path class="cls-2" d="M268,49.66c.08,4.75,3.12,6.71,6.64,6.71a12.73,12.73,0,0,0,5.36-1l.6,2.52a15.68,15.68,0,0,1-6.44,1.2c-6,0-9.52-3.92-9.52-9.75s3.44-10.44,9.08-10.44c6.32,0,8,5.56,8,9.12a13.28,13.28,0,0,1-.12,1.64Zm10.32-2.52c0-2.24-.92-5.72-4.88-5.72-3.56,0-5.12,3.28-5.4,5.72Z"/><line class="cls-3" x1="66.74" y1="54.65" x2="51.72" y2="39.63"/><line class="cls-3" x1="51.72" y1="39.63" x2="36.7" y2="54.65"/><path class="cls-2" d="M97,34.7h-8.2v-3h20v3h-8.24v24H97Z"/><path class="cls-2" d="M126.33,48.86c0,7.15-5,10.27-9.63,10.27-5.24,0-9.28-3.84-9.28-10,0-6.48,4.24-10.28,9.59-10.28C122.57,38.9,126.33,42.94,126.33,48.86Zm-15.35.2c0,4.23,2.44,7.43,5.87,7.43s5.88-3.16,5.88-7.51c0-3.28-1.64-7.44-5.8-7.44S111,45.38,111,49.06Z"/><path class="cls-2" d="M130.78,45.66c0-2.48-.08-4.48-.16-6.32h3.16l.16,3.32H134a7.58,7.58,0,0,1,6.87-3.76c4.68,0,8.2,4,8.2,9.84,0,6.95-4.24,10.39-8.8,10.39a6.76,6.76,0,0,1-5.95-3h-.08V66.61h-3.48Zm3.48,5.15a7.93,7.93,0,0,0,.16,1.44,5.41,5.41,0,0,0,5.27,4.12c3.72,0,5.88-3,5.88-7.47,0-3.88-2-7.2-5.76-7.2a5.63,5.63,0,0,0-5.32,4.36,6.19,6.19,0,0,0-.23,1.44Z"/><path class="cls-2" d="M179.53,48.86c0,7.15-5,10.27-9.64,10.27-5.24,0-9.28-3.84-9.28-10,0-6.48,4.24-10.28,9.6-10.28C175.77,38.9,179.53,42.94,179.53,48.86Zm-15.36.2c0,4.23,2.44,7.43,5.88,7.43s5.88-3.16,5.88-7.51c0-3.28-1.64-7.44-5.8-7.44S164.17,45.38,164.17,49.06Z"/><path class="cls-2" d="M184.33,58.69V42h-2.72V39.34h2.72v-.92c0-2.72.6-5.2,2.24-6.76a6.74,6.74,0,0,1,4.72-1.8,8.16,8.16,0,0,1,3,.56l-.48,2.72a5.26,5.26,0,0,0-2.24-.44c-3,0-3.76,2.64-3.76,5.6v1h4.68V42h-4.68V58.69Z"/><path class="cls-2" d="M204.25,32.06a40.33,40.33,0,0,1,6.68-.52c3.44,0,6,.8,7.56,2.24a7.25,7.25,0,0,1,2.36,5.64,7.94,7.94,0,0,1-2.08,5.76c-1.84,2-4.84,3-8.24,3a12,12,0,0,1-2.8-.24V58.69h-3.48Zm3.48,13a11.67,11.67,0,0,0,2.88.28c4.2,0,6.76-2,6.76-5.76,0-3.56-2.52-5.28-6.36-5.28a14.6,14.6,0,0,0-3.28.28Z"/><path class="cls-2" d="M235.09,58.69l-.28-2.44h-.12a7.21,7.21,0,0,1-5.92,2.88,5.52,5.52,0,0,1-5.92-5.56c0-4.67,4.16-7.23,11.64-7.19V46c0-1.6-.44-4.48-4.4-4.48a9.65,9.65,0,0,0-5,1.44l-.8-2.32a12,12,0,0,1,6.36-1.72c5.92,0,7.36,4,7.36,7.92v7.23a27.26,27.26,0,0,0,.32,4.64Zm-.52-9.87c-3.84-.08-8.2.6-8.2,4.35a3.11,3.11,0,0,0,3.32,3.36,4.82,4.82,0,0,0,4.68-3.24,3.67,3.67,0,0,0,.2-1.12Z"/><path class="cls-2" d="M260.33,39.34c-.08,1.4-.16,3-.16,5.32V55.89c0,4.44-.88,7.16-2.76,8.84a10.26,10.26,0,0,1-7,2.32,12.5,12.5,0,0,1-6.44-1.6l.88-2.68a10.92,10.92,0,0,0,5.68,1.52c3.6,0,6.24-1.88,6.24-6.76V55.37h-.08a6.91,6.91,0,0,1-6.16,3.24c-4.8,0-8.24-4.08-8.24-9.43,0-6.56,4.28-10.28,8.72-10.28a6.44,6.44,0,0,1,6,3.36h.08l.16-2.92ZM256.69,47a5,5,0,0,0-.2-1.6,5.07,5.07,0,0,0-4.92-3.72c-3.36,0-5.76,2.84-5.76,7.32,0,3.79,1.92,7,5.72,7a5.15,5.15,0,0,0,4.88-3.6,6.06,6.06,0,0,0,.28-1.87Z"/><path class="cls-2" d="M268,49.66c.08,4.75,3.12,6.71,6.64,6.71a12.73,12.73,0,0,0,5.36-1l.6,2.52a15.68,15.68,0,0,1-6.44,1.2c-6,0-9.52-3.92-9.52-9.75s3.44-10.44,9.08-10.44c6.32,0,8,5.56,8,9.12a13.28,13.28,0,0,1-.12,1.64Zm10.32-2.52c0-2.24-.92-5.72-4.88-5.72-3.56,0-5.12,3.28-5.4,5.72Z"/></svg>