<svg id="Layer_1" data-name="Layer 1" xmlns="http://www.w3.org/2000/svg" viewBox="0 0 75 75"><defs><style>.cls-1{fill:#989898;}</style></defs><path class="cls-1" d="M50.62,18.12A4.38,4.38,0,0,1,55,13.75h8.75a4.37,4.37,0,0,1,4.37,4.37v52.5h2.19a2.19,2.19,0,0,1,0,4.38H4.69a2.19,2.19,0,1,1,0-4.38H6.88V57.5a4.37,4.37,0,0,1,4.37-4.38H20a4.38,4.38,0,0,1,4.38,4.38V70.62h4.37V40a4.38,4.38,0,0,1,4.37-4.38h8.76A4.38,4.38,0,0,1,46.25,40V70.62h4.37ZM55,70.62h8.75V18.12H55Zm-13.12,0V40H33.12V70.62ZM20,70.62V57.5H11.25V70.62Z"/></svg>