<svg id="Layer_1" data-name="Layer 1" xmlns="http://www.w3.org/2000/svg" viewBox="0 0 75 75"><defs><style>.cls-1{fill:#06c;}</style></defs><path class="cls-1" d="M63.75,24V65.52A8.75,8.75,0,0,1,55,74.27H20a8.75,8.75,0,0,1-8.75-8.75V13A8.75,8.75,0,0,1,20,4.27H44.06ZM50.62,24a6.56,6.56,0,0,1-6.56-6.56V8.64H20A4.38,4.38,0,0,0,15.62,13v52.5A4.38,4.38,0,0,0,20,69.89H55a4.38,4.38,0,0,0,4.38-4.37V24Z"/><path class="cls-1" d="M40.33,33.34a2.19,2.19,0,0,1,3.09,0h0l8.75,8.75a2.19,2.19,0,0,1,0,3.1h0l-8.75,8.75a2.19,2.19,0,0,1-3.09-3.1l7.2-7.2-7.2-7.2a2.18,2.18,0,0,1,0-3.09Zm-5.66,0a2.19,2.19,0,0,0-3.09,0h0l-8.75,8.75a2.19,2.19,0,0,0,0,3.1h0l8.75,8.75a2.19,2.19,0,0,0,3.09-3.1l-7.2-7.2,7.2-7.2a2.18,2.18,0,0,0,0-3.09Z"/></svg>