<svg id="Layer_1" data-name="Layer 1" xmlns="http://www.w3.org/2000/svg" viewBox="0 0 75 75"><defs><style>.cls-1{fill:#06c;stroke:#06c;stroke-miterlimit:10;}</style></defs><path class="cls-1" d="M49.06,12.19a2.33,2.33,0,1,0-4.46-1.37L25.94,71.48a2.33,2.33,0,0,0,4.46,1.37ZM22.82,23.85a2.34,2.34,0,0,1,0,3.3h0L8.14,41.83,22.82,56.51a2.34,2.34,0,1,1-3.3,3.31L3.19,43.49a2.33,2.33,0,0,1,0-3.3h0L19.52,23.85a2.34,2.34,0,0,1,3.3,0Zm29.36,0a2.34,2.34,0,0,0,0,3.3h0L66.86,41.83,52.18,56.51a2.34,2.34,0,0,0,3.3,3.31L71.81,43.49a2.33,2.33,0,0,0,0-3.3h0L55.48,23.85a2.34,2.34,0,0,0-3.3,0Z"/></svg>