<svg id="Layer_1" data-name="Layer 1" xmlns="http://www.w3.org/2000/svg" viewBox="0 0 75 75"><defs><style>.cls-1{fill:#06c;stroke:#06c;stroke-miterlimit:10;}</style></defs><path class="cls-1" d="M49.06,7.86A2.33,2.33,0,1,0,44.6,6.48L25.94,67.14a2.33,2.33,0,1,0,4.46,1.38ZM22.82,19.52a2.34,2.34,0,0,1,0,3.3h0L8.14,37.5,22.82,52.18a2.33,2.33,0,1,1-3.3,3.3L3.19,39.15a2.33,2.33,0,0,1,0-3.3h0L19.52,19.52a2.33,2.33,0,0,1,3.3,0Zm29.36,0a2.34,2.34,0,0,0,0,3.3h0L66.86,37.5,52.18,52.18a2.33,2.33,0,0,0,3.3,3.3L71.81,39.15a2.33,2.33,0,0,0,0-3.3h0L55.48,19.52a2.33,2.33,0,0,0-3.3,0Z"/></svg>