<svg id="Layer_1" data-name="Layer 1" xmlns="http://www.w3.org/2000/svg" viewBox="0 0 75 75"><defs><style>.cls-1{fill:#989898;}</style></defs><path class="cls-1" d="M63.75,24.69V66.25A8.75,8.75,0,0,1,55,75H20a8.75,8.75,0,0,1-8.75-8.75V13.75A8.75,8.75,0,0,1,20,5H44.06Zm-13.13,0a6.57,6.57,0,0,1-6.56-6.57V9.38H20a4.37,4.37,0,0,0-4.38,4.37v52.5A4.37,4.37,0,0,0,20,70.62H55a4.37,4.37,0,0,0,4.38-4.37V24.69Z"/><path class="cls-1" d="M40.33,34.08a2.18,2.18,0,0,1,3.09,0h0l8.75,8.75a2.18,2.18,0,0,1,0,3.09h0l-8.75,8.75a2.18,2.18,0,0,1-3.09-3.09l7.2-7.2-7.2-7.21a2.18,2.18,0,0,1,0-3.09Zm-5.66,0a2.18,2.18,0,0,0-3.09,0h0l-8.75,8.75a2.18,2.18,0,0,0,0,3.09h0l8.75,8.75a2.18,2.18,0,0,0,3.09-3.09l-7.2-7.2,7.2-7.21a2.18,2.18,0,0,0,0-3.09Z"/></svg>