<svg id="Layer_1" data-name="Layer 1" xmlns="http://www.w3.org/2000/svg" viewBox="0 0 75 75"><defs><style>.cls-1{fill:#06c;}</style></defs><path class="cls-1" d="M13.44,26.88a2.19,2.19,0,0,1,0-4.38H61.56a2.19,2.19,0,0,1,0,4.38Zm8.75-8.76a2.19,2.19,0,1,1,0-4.37H52.81a2.19,2.19,0,1,1,0,4.37ZM2.5,68.44A6.56,6.56,0,0,0,9.06,75H65.94a6.56,6.56,0,0,0,6.56-6.56V37.81a6.56,6.56,0,0,0-6.56-6.56H9.06A6.56,6.56,0,0,0,2.5,37.81Zm6.56,2.18a2.17,2.17,0,0,1-2.18-2.18V37.81a2.18,2.18,0,0,1,2.18-2.19H65.94a2.18,2.18,0,0,1,2.18,2.19V68.44a2.17,2.17,0,0,1-2.18,2.18Z"/></svg>