<svg id="Layer_1" data-name="Layer 1" xmlns="http://www.w3.org/2000/svg" viewBox="0 0 75 75"><defs><style>.cls-1{fill:#989898;}</style></defs><path class="cls-1" d="M13.44,26.55a2.19,2.19,0,0,1,0-4.38H61.56a2.19,2.19,0,0,1,0,4.38Zm8.75-8.75a2.19,2.19,0,1,1,0-4.38H52.81a2.19,2.19,0,0,1,0,4.38ZM2.5,68.11a6.56,6.56,0,0,0,6.56,6.56H65.94a6.56,6.56,0,0,0,6.56-6.56V37.49a6.57,6.57,0,0,0-6.56-6.57H9.06A6.57,6.57,0,0,0,2.5,37.49ZM9.06,70.3a2.18,2.18,0,0,1-2.18-2.19V37.49A2.18,2.18,0,0,1,9.06,35.3H65.94a2.18,2.18,0,0,1,2.18,2.19V68.11a2.18,2.18,0,0,1-2.18,2.19Z"/></svg>