<svg id="Layer_1" data-name="Layer 1" xmlns="http://www.w3.org/2000/svg" viewBox="0 0 75 75"><defs><style>.cls-1{fill:#989898;}</style></defs><path class="cls-1" d="M4.69,53.12a2.19,2.19,0,0,1,2.19,2.19V66.25a4.36,4.36,0,0,0,4.37,4.37h52.5a4.36,4.36,0,0,0,4.37-4.37V55.31a2.19,2.19,0,1,1,4.38,0V66.25A8.75,8.75,0,0,1,63.75,75H11.25A8.75,8.75,0,0,1,2.5,66.25V55.31A2.19,2.19,0,0,1,4.69,53.12Z"/><path class="cls-1" d="M36,61.67a2.18,2.18,0,0,0,3.09,0h0L52.17,48.55a2.19,2.19,0,0,0-3.09-3.1l-9.39,9.39V16.38a2.19,2.19,0,1,0-4.38,0V54.84l-9.39-9.39a2.19,2.19,0,1,0-3.09,3.1Z"/></svg>