<svg id="Layer_1" data-name="Layer 1" xmlns="http://www.w3.org/2000/svg" viewBox="0 0 75 75"><defs><style>.cls-1{fill:#989898;}</style></defs><path class="cls-1" d="M37.5,5a2.27,2.27,0,0,1,2.14,1.52L42.22,14H64.6a4.51,4.51,0,0,1,4.51,4.52V50.16a4.52,4.52,0,0,1-4.51,4.52H56.24l6,17.32a2.26,2.26,0,0,1-4.28,1.48h0l-6.48-18.8H39.76V68.22a2.26,2.26,0,0,1-4.52,0V54.68H23.54l-6.48,18.8A2.26,2.26,0,0,1,12.78,72l6-17.32H10.4a4.52,4.52,0,0,1-4.51-4.52V18.55A4.51,4.51,0,0,1,10.4,14H32.78l2.58-7.51A2.27,2.27,0,0,1,37.5,5ZM10.4,18.55V50.16H64.6V18.55Z"/></svg>