<svg id="Layer_1" data-name="Layer 1" xmlns="http://www.w3.org/2000/svg" viewBox="0 0 75 75"><defs><style>.cls-1,.cls-2{fill:#989898;}.cls-1{fill-rule:evenodd;}</style></defs><path class="cls-1" d="M64.16,27.78V56.49H59.74V27.78H50.91a6.62,6.62,0,0,1-6.62-6.63V12.32H20a4.41,4.41,0,0,0-4.41,4.42V56.49H11.16V16.74A8.84,8.84,0,0,1,20,7.9h24.3Z"/><path class="cls-2" d="M10.37,60.91h3V75h-3Z"/><path class="cls-2" d="M15.26,60.91h3V75h-3Zm1.49,7.34H20.2a2.78,2.78,0,0,0,2-.65,2.36,2.36,0,0,0,.7-1.84v0a2.38,2.38,0,0,0-.7-1.85,2.87,2.87,0,0,0-2-.64H16.75V60.91h4.18a5.36,5.36,0,0,1,2.59.6,4.33,4.33,0,0,1,1.74,1.68,5.08,5.08,0,0,1,.62,2.54v0a5,5,0,0,1-.62,2.53A4.35,4.35,0,0,1,23.52,70a5.36,5.36,0,0,1-2.59.6H16.75Z"/><path class="cls-2" d="M30.73,69.74l-4.9-8.83H29l3.17,6h.07l3.15-6h3.19l-4.91,8.83V75H30.73Z"/><path class="cls-2" d="M39.63,60.91h2.58l7.65,11-2.47-1.86h1.24V60.91h2.94V75H49L41.34,63.92l2.47,1.86H42.57V75H39.63Z"/><path class="cls-2" d="M53.52,60.91h2.95V75H53.52ZM55,72.8h4a3.18,3.18,0,0,0,1.94-.51,1.75,1.75,0,0,0,.67-1.49v0a1.84,1.84,0,0,0-.31-1.09,1.88,1.88,0,0,0-.91-.67,4.42,4.42,0,0,0-1.51-.22H55v-2h3.54a3.12,3.12,0,0,0,1.9-.5,1.7,1.7,0,0,0,.65-1.42v0a1.59,1.59,0,0,0-.58-1.3,2.55,2.55,0,0,0-1.61-.45H55v-2.2h4.66a5.55,5.55,0,0,1,2.3.43,3.22,3.22,0,0,1,2,3.1v0a3,3,0,0,1-.36,1.44,3.2,3.2,0,0,1-1,1.1,3.11,3.11,0,0,1-1.4.54v.06a3.85,3.85,0,0,1,1.75.51,3.34,3.34,0,0,1,1.2,1.19A3.22,3.22,0,0,1,64.63,71v0A3.82,3.82,0,0,1,64,73.12a3.93,3.93,0,0,1-1.68,1.39,6.25,6.25,0,0,1-2.6.49H55Z"/></svg>