<svg id="Layer_1" data-name="Layer 1" xmlns="http://www.w3.org/2000/svg" viewBox="0 0 75 75"><defs><style>.cls-1{fill:#06c;}</style></defs><path class="cls-1" d="M2.5,22.5A7.5,7.5,0,0,1,10,15H23.82c4.79,0,8.8,2.8,11.55,5.92C37.43,23.24,39.9,25,42.5,25H65a7.5,7.5,0,0,1,7.5,7.5v35A7.5,7.5,0,0,1,65,75H10a7.5,7.5,0,0,1-7.5-7.5ZM10,20a2.5,2.5,0,0,0-2.5,2.5V35h60V32.5A2.5,2.5,0,0,0,65,30H42.5c-4.82,0-8.55-3.15-10.87-5.77S26.6,20,23.82,20ZM67.5,40H7.5V67.5A2.5,2.5,0,0,0,10,70H65a2.5,2.5,0,0,0,2.5-2.5Z"/></svg>