<svg id="Layer_1" data-name="Layer 1" xmlns="http://www.w3.org/2000/svg" viewBox="0 0 75 75"><defs><style>.cls-1{fill:#989898;}</style></defs><path class="cls-1" d="M2.5,22.4A7.5,7.5,0,0,1,10,14.9H23.82c4.79,0,8.8,2.8,11.55,5.92,2.06,2.32,4.53,4.08,7.13,4.08H65a7.5,7.5,0,0,1,7.5,7.5v35A7.5,7.5,0,0,1,65,74.9H10a7.5,7.5,0,0,1-7.5-7.5ZM10,19.9a2.5,2.5,0,0,0-2.5,2.5V34.9h60V32.4A2.5,2.5,0,0,0,65,29.9H42.5c-4.82,0-8.55-3.14-10.87-5.77s-5-4.23-7.81-4.23Zm57.5,20H7.5V67.4A2.5,2.5,0,0,0,10,69.9H65a2.5,2.5,0,0,0,2.5-2.5Z"/></svg>