<svg id="Layer_1" data-name="Layer 1" xmlns="http://www.w3.org/2000/svg" viewBox="0 0 75 75"><defs><style>.cls-1{fill:#06c;stroke:#06c;stroke-miterlimit:10;stroke-width:2px;}</style></defs><g id="Ultralight-S"><path class="cls-1" d="M20.71,58.08h3.84a2.56,2.56,0,0,0,1.64-.5A2.41,2.41,0,0,0,27,56.13l.89-3.82.55-.2c.17-.06.34-.14.51-.22l3.35,2a2.59,2.59,0,0,0,1.68.42,2.51,2.51,0,0,0,1.48-.78l2.73-2.69a2.55,2.55,0,0,0,.8-1.53,2.59,2.59,0,0,0-.44-1.67l-2.05-3.31a2.28,2.28,0,0,0,.17-.35,3.59,3.59,0,0,0,.15-.37c0-.12.09-.23.13-.34l3.82-.92a2.42,2.42,0,0,0,1.45-.86,2.57,2.57,0,0,0,.51-1.64V36.11a2.49,2.49,0,0,0-.51-1.6,2.63,2.63,0,0,0-1.45-.9L37,32.73a5.76,5.76,0,0,0-.21-.55l-.24-.55,2.05-3.31A2.59,2.59,0,0,0,39,26.65a2.43,2.43,0,0,0-.8-1.5L35.5,22.46A2.45,2.45,0,0,0,34,21.65a2.59,2.59,0,0,0-1.68.42L29,24.12,28.65,24l-.35-.14-.37-.13L27,19.9a2.43,2.43,0,0,0-.85-1.48,2.56,2.56,0,0,0-1.64-.5H20.71a2.51,2.51,0,0,0-1.6.5,2.57,2.57,0,0,0-.89,1.48l-.88,3.8-.55.19c-.17.07-.35.14-.52.23l-3.35-2.05a2.58,2.58,0,0,0-1.68-.42,2.48,2.48,0,0,0-1.48.81L7,25.15a2.41,2.41,0,0,0-.79,1.5,2.59,2.59,0,0,0,.44,1.67l2.05,3.31L8.58,32c-.05.12-.11.24-.16.35l-.15.38-3.81.88a2.65,2.65,0,0,0-1.46.9,2.55,2.55,0,0,0-.5,1.6v3.78A2.62,2.62,0,0,0,3,41.53a2.45,2.45,0,0,0,1.46.86l3.81.92c.07.17.14.35.22.53a5.05,5.05,0,0,0,.24.53L6.68,47.68a2.59,2.59,0,0,0-.44,1.67A2.53,2.53,0,0,0,7,50.88l2.73,2.69a2.53,2.53,0,0,0,1.48.78,2.58,2.58,0,0,0,1.68-.42l3.35-2c.17.08.35.16.52.22l.55.2.88,3.82a2.56,2.56,0,0,0,.89,1.45A2.51,2.51,0,0,0,20.71,58.08Zm.21-1.51a1.35,1.35,0,0,1-.87-.26,1.49,1.49,0,0,1-.43-.82l-1-4.32a12.54,12.54,0,0,1-1.24-.47c-.42-.18-.83-.37-1.22-.56L12.41,52.5a1.55,1.55,0,0,1-.92.25,1.49,1.49,0,0,1-.78-.41L8.23,49.93a1.29,1.29,0,0,1-.42-.8,1.46,1.46,0,0,1,.29-.89l2.33-3.76c-.18-.4-.36-.8-.54-1.22A12,12,0,0,1,9.4,42L5.12,41a1.46,1.46,0,0,1-.84-.44A1.25,1.25,0,0,1,4,39.7V36.3a1.27,1.27,0,0,1,.27-.86A1.46,1.46,0,0,1,5.12,35L9.4,34a12.92,12.92,0,0,1,.49-1.25c.18-.42.36-.82.54-1.22L8.1,27.8a1.63,1.63,0,0,1-.29-.93,1.18,1.18,0,0,1,.42-.77l2.48-2.44a1.4,1.4,0,0,1,.78-.4,1.46,1.46,0,0,1,.92.24l3.73,2.36c.39-.19.8-.37,1.22-.55a10.54,10.54,0,0,1,1.24-.48l1-4.29a1.46,1.46,0,0,1,.43-.84,1.29,1.29,0,0,1,.87-.27h3.43a1.27,1.27,0,0,1,.86.27,1.46,1.46,0,0,1,.44.84l1,4.29a9.87,9.87,0,0,1,1.28.48c.42.18.81.36,1.19.55l3.76-2.36a1.33,1.33,0,0,1,.88-.24,1.6,1.6,0,0,1,.82.4L37,26.1a1.18,1.18,0,0,1,.42.77,1.49,1.49,0,0,1-.29.93l-2.33,3.72c.18.4.37.8.55,1.22s.34.83.48,1.25l4.28,1a1.53,1.53,0,0,1,.85.44,1.32,1.32,0,0,1,.26.86v3.4a1.3,1.3,0,0,1-.26.86,1.53,1.53,0,0,1-.85.44l-4.28,1c-.14.42-.3.84-.48,1.25s-.37.82-.55,1.22l2.33,3.76a1.34,1.34,0,0,1,.29.89,1.29,1.29,0,0,1-.42.8l-2.44,2.41a1.71,1.71,0,0,1-.82.41,1.4,1.4,0,0,1-.88-.25l-3.76-2.36c-.38.19-.77.38-1.19.56a11.52,11.52,0,0,1-1.28.47l-1,4.32a1.5,1.5,0,0,1-.44.82,1.32,1.32,0,0,1-.86.26ZM22.62,46A7.68,7.68,0,0,0,26.67,45a8.39,8.39,0,0,0,2.9-2.9,8.1,8.1,0,0,0,0-8.08,8.44,8.44,0,0,0-2.9-2.92,8.12,8.12,0,0,0-8.09,0A8.33,8.33,0,0,0,15.66,34a8.1,8.1,0,0,0,0,8.08A8.28,8.28,0,0,0,18.58,45,7.7,7.7,0,0,0,22.62,46Zm0-1.53A6.51,6.51,0,0,1,18,33.4a6.53,6.53,0,0,1,9.21,0,6.51,6.51,0,0,1-4.6,11.11ZM54.17,74H57a2.51,2.51,0,0,0,1.54-.42,1.94,1.94,0,0,0,.74-1.22L59.91,69l.54-.19a3.28,3.28,0,0,0,.5-.22l2.84,1.85a1.81,1.81,0,0,0,1.37.34A2.67,2.67,0,0,0,66.54,70l2-2a2.54,2.54,0,0,0,.77-1.36,2.09,2.09,0,0,0-.32-1.4l-1.89-2.8a3.54,3.54,0,0,0,.16-.34,3.45,3.45,0,0,1,.14-.34l.15-.36,3.31-.68A1.85,1.85,0,0,0,72.07,60a2.45,2.45,0,0,0,.43-1.52V55.68a2.48,2.48,0,0,0-.43-1.55,2,2,0,0,0-1.22-.7l-3.31-.71-.21-.52q-.12-.26-.24-.48L69,48.88a2,2,0,0,0,.32-1.36,2.64,2.64,0,0,0-.77-1.39l-2-2a2.62,2.62,0,0,0-1.38-.77,1.93,1.93,0,0,0-1.37.32L61,45.58a1.5,1.5,0,0,0-.34-.16l-.36-.13-.34-.13-.64-3.35a2,2,0,0,0-.74-1.2A2.51,2.51,0,0,0,57,40.19H54.17a2.54,2.54,0,0,0-1.54.42,2,2,0,0,0-.74,1.2l-.64,3.35-.53.19a5,5,0,0,0-.53.23l-2.82-1.89A2,2,0,0,0,46,43.37a2.49,2.49,0,0,0-1.37.77l-2,2a2.67,2.67,0,0,0-.78,1.39,1.93,1.93,0,0,0,.33,1.36l1.86,2.84L43.9,52a3.45,3.45,0,0,0-.14.34c0,.12-.09.23-.13.34l-3.32.71a1.9,1.9,0,0,0-1.23.7,2.55,2.55,0,0,0-.41,1.55v2.84A2.51,2.51,0,0,0,39.08,60a1.81,1.81,0,0,0,1.23.72l3.32.68a3.79,3.79,0,0,0,.21.54c.07.16.14.32.21.5l-1.86,2.8a2,2,0,0,0-.33,1.4A2.56,2.56,0,0,0,42.64,68l2,2a2.53,2.53,0,0,0,1.37.79,1.83,1.83,0,0,0,1.38-.34l2.82-1.85.35.14.36.15.35.12.64,3.33a1.94,1.94,0,0,0,.74,1.22A2.54,2.54,0,0,0,54.17,74Zm.19-1.5a1.22,1.22,0,0,1-.73-.2.93.93,0,0,1-.33-.6l-.8-3.82a11.69,11.69,0,0,1-2.41-1l-3.25,2.17a.8.8,0,0,1-.63.13,1.36,1.36,0,0,1-.66-.36l-1.68-1.71a1.3,1.3,0,0,1-.39-.65.79.79,0,0,1,.16-.64l2.16-3.25a7,7,0,0,1-.58-1.13,8.37,8.37,0,0,1-.43-1.28L41,59.36a.79.79,0,0,1-.58-.33,1.28,1.28,0,0,1-.18-.72V55.86a1.27,1.27,0,0,1,.18-.71A.78.78,0,0,1,41,54.8l3.83-.8a8.14,8.14,0,0,1,.43-1.26,7.88,7.88,0,0,1,.58-1.12l-2.16-3.24a.83.83,0,0,1-.16-.66,1.28,1.28,0,0,1,.39-.66l1.68-1.69a1.17,1.17,0,0,1,.66-.37.85.85,0,0,1,.63.14l3.25,2.17a10.32,10.32,0,0,1,2.41-1l.8-3.83a1,1,0,0,1,.33-.57,1.22,1.22,0,0,1,.73-.2H56.8a1.19,1.19,0,0,1,.71.2.86.86,0,0,1,.35.57l.81,3.83a9.7,9.7,0,0,1,2.37,1l3.25-2.17A.94.94,0,0,1,65,45a1.17,1.17,0,0,1,.66.37l1.68,1.69a1.2,1.2,0,0,1,.38.66,1,1,0,0,1-.15.66l-2.16,3.24c.2.35.39.72.57,1.12A9.45,9.45,0,0,1,66.38,54l3.82.8a.82.82,0,0,1,.57.35,1.19,1.19,0,0,1,.2.71v2.45a1.2,1.2,0,0,1-.2.72.83.83,0,0,1-.57.33l-3.82.8a9.72,9.72,0,0,1-.45,1.28,10.81,10.81,0,0,1-.57,1.13l2.16,3.25a1,1,0,0,1,.15.64,1.21,1.21,0,0,1-.38.65l-1.68,1.71a1.36,1.36,0,0,1-.66.36.89.89,0,0,1-.66-.13L61,66.88a10.94,10.94,0,0,1-2.37,1l-.81,3.82a.84.84,0,0,1-.35.6,1.19,1.19,0,0,1-.71.2Zm1.21-9.7a5.54,5.54,0,0,0,4-1.67,5.73,5.73,0,1,0-4,1.67Zm0-1.48a4.23,4.23,0,1,1,3-1.24A4.06,4.06,0,0,1,55.57,61.32Z"/></g></svg>