<svg id="Layer_1" data-name="Layer 1" xmlns="http://www.w3.org/2000/svg" viewBox="0 0 75 75"><defs><style>.cls-1{fill:#989898;stroke:#989898;stroke-miterlimit:10;stroke-width:2px;}</style></defs><g id="Ultralight-S"><path class="cls-1" d="M21.21,58.07H25a2.57,2.57,0,0,0,1.64-.51,2.42,2.42,0,0,0,.86-1.45l.88-3.82.55-.2c.17-.06.34-.14.52-.22l3.34,2a2.62,2.62,0,0,0,1.69.42A2.57,2.57,0,0,0,36,53.56l2.72-2.7a2.55,2.55,0,0,0,.8-1.53,2.59,2.59,0,0,0-.44-1.67l-2-3.31a3.76,3.76,0,0,0,.18-.35c0-.13.1-.25.14-.37s.09-.23.13-.34l3.82-.92a2.42,2.42,0,0,0,1.45-.86,2.57,2.57,0,0,0,.51-1.64V36.09a2.55,2.55,0,0,0-.5-1.6,2.59,2.59,0,0,0-1.46-.89l-3.82-.89a3.93,3.93,0,0,0-.21-.55c-.07-.17-.15-.36-.24-.55l2-3.31a2.59,2.59,0,0,0,.44-1.67,2.43,2.43,0,0,0-.8-1.49L36,22.44a2.48,2.48,0,0,0-1.48-.81,2.62,2.62,0,0,0-1.69.42L29.49,24.1,29.14,24l-.35-.14-.37-.13-.88-3.79a2.47,2.47,0,0,0-.86-1.49A2.62,2.62,0,0,0,25,17.9H21.21a2.58,2.58,0,0,0-1.61.5,2.66,2.66,0,0,0-.89,1.49l-.88,3.79-.55.19c-.17.07-.34.14-.52.23l-3.34-2.05a2.62,2.62,0,0,0-1.69-.42,2.48,2.48,0,0,0-1.48.81l-2.72,2.7a2.38,2.38,0,0,0-.8,1.5,2.58,2.58,0,0,0,.44,1.66l2.05,3.31a2.39,2.39,0,0,1-.15.37,3.73,3.73,0,0,1-.16.35c-.05.12-.1.25-.14.38L5,33.6a2.59,2.59,0,0,0-1.46.89,2.55,2.55,0,0,0-.5,1.6v3.78a2.62,2.62,0,0,0,.5,1.64A2.45,2.45,0,0,0,5,42.37l3.82.92c.06.17.13.35.21.53a5.05,5.05,0,0,0,.24.53L7.17,47.66a2.59,2.59,0,0,0-.44,1.67,2.5,2.5,0,0,0,.8,1.53l2.72,2.7a2.57,2.57,0,0,0,1.48.77,2.58,2.58,0,0,0,1.68-.42l3.36-2c.17.08.34.16.51.22l.55.2.88,3.82a2.61,2.61,0,0,0,.89,1.45A2.52,2.52,0,0,0,21.21,58.07Zm.2-1.52a1.3,1.3,0,0,1-.86-.26,1.44,1.44,0,0,1-.44-.82l-1-4.31c-.41-.14-.82-.3-1.24-.48s-.83-.37-1.22-.56L12.9,52.48a1.53,1.53,0,0,1-.92.25,1.42,1.42,0,0,1-.78-.41L8.73,49.91a1.3,1.3,0,0,1-.43-.8,1.42,1.42,0,0,1,.3-.89l2.32-3.76c-.18-.39-.36-.8-.54-1.22S10,42.41,9.9,42L5.61,41a1.41,1.41,0,0,1-.84-.44,1.25,1.25,0,0,1-.26-.86V36.29a1.29,1.29,0,0,1,.26-.87A1.52,1.52,0,0,1,5.61,35L9.9,34c.14-.42.3-.83.48-1.25s.36-.82.54-1.22L8.6,27.78a1.58,1.58,0,0,1-.3-.93,1.15,1.15,0,0,1,.43-.76l2.47-2.45a1.46,1.46,0,0,1,.78-.4,1.51,1.51,0,0,1,.92.24l3.73,2.36c.39-.19.8-.37,1.22-.55s.83-.34,1.24-.48l1-4.29a1.41,1.41,0,0,1,.44-.84,1.25,1.25,0,0,1,.86-.26h3.43a1.25,1.25,0,0,1,.86.26,1.41,1.41,0,0,1,.44.84l1,4.29c.43.14.85.3,1.27.48s.82.36,1.19.55l3.76-2.36a1.39,1.39,0,0,1,.88-.24,1.64,1.64,0,0,1,.82.4l2.44,2.45a1.15,1.15,0,0,1,.43.76,1.58,1.58,0,0,1-.3.93L35.32,31.5c.19.4.37.8.55,1.22A12.81,12.81,0,0,1,36.35,34l4.29,1a1.56,1.56,0,0,1,.84.44,1.35,1.35,0,0,1,.26.87v3.39a1.3,1.3,0,0,1-.26.86,1.44,1.44,0,0,1-.84.44l-4.29,1a11.9,11.9,0,0,1-.48,1.25c-.18.42-.36.83-.55,1.22l2.33,3.76a1.42,1.42,0,0,1,.3.89,1.3,1.3,0,0,1-.43.8l-2.44,2.41a1.59,1.59,0,0,1-.82.41,1.4,1.4,0,0,1-.88-.25l-3.76-2.36c-.37.19-.77.38-1.19.56s-.84.34-1.27.48l-1,4.31a1.44,1.44,0,0,1-.44.82,1.3,1.3,0,0,1-.86.26ZM23.11,46a7.68,7.68,0,0,0,4.05-1.09A8.36,8.36,0,0,0,30.06,42a8.05,8.05,0,0,0,0-8.09A8.36,8.36,0,0,0,27.16,31a8.12,8.12,0,0,0-8.09,0A8.22,8.22,0,0,0,16.16,34a8,8,0,0,0,0,8.08,8.17,8.17,0,0,0,2.91,2.9A7.72,7.72,0,0,0,23.11,46Zm0-1.53a6.51,6.51,0,0,1-4.6-11.11,6.52,6.52,0,0,1,9.2,0,6.51,6.51,0,0,1-4.6,11.11ZM54.67,74h2.81A2.62,2.62,0,0,0,59,73.57a2,2,0,0,0,.73-1.23L60.41,69l.53-.2a3.28,3.28,0,0,0,.5-.22l2.84,1.86a1.85,1.85,0,0,0,1.37.33A2.73,2.73,0,0,0,67,70l2-2a2.54,2.54,0,0,0,.77-1.36,2,2,0,0,0-.32-1.4l-1.89-2.8a2.11,2.11,0,0,0,.16-.34,3.45,3.45,0,0,1,.14-.34,3,3,0,0,0,.15-.36l3.32-.67A1.88,1.88,0,0,0,72.56,60,2.45,2.45,0,0,0,73,58.5V55.66a2.43,2.43,0,0,0-.43-1.54,1.9,1.9,0,0,0-1.21-.71L68,52.7l-.21-.51c-.08-.18-.16-.34-.24-.49l1.89-2.84a1.91,1.91,0,0,0,.32-1.36A2.68,2.68,0,0,0,69,46.11l-2-2a2.68,2.68,0,0,0-1.39-.77,2,2,0,0,0-1.37.32l-2.84,1.89a2.11,2.11,0,0,0-.34-.16l-.35-.13-.34-.13-.65-3.35a2,2,0,0,0-.73-1.2,2.55,2.55,0,0,0-1.55-.42H54.67a2.55,2.55,0,0,0-1.55.42,2,2,0,0,0-.73,1.2l-.65,3.35-.53.19a5,5,0,0,0-.53.23l-2.81-1.89a2,2,0,0,0-1.39-.32,2.53,2.53,0,0,0-1.37.77l-2,2a2.68,2.68,0,0,0-.77,1.39,1.91,1.91,0,0,0,.32,1.36l1.86,2.84a1.87,1.87,0,0,1-.15.32,3.45,3.45,0,0,0-.14.34c0,.12-.09.23-.13.34l-3.32.71a1.87,1.87,0,0,0-1.23.71,2.56,2.56,0,0,0-.41,1.54V58.5A2.58,2.58,0,0,0,39.57,60a1.85,1.85,0,0,0,1.23.73l3.32.67q.1.3.21.54c.07.16.14.32.21.5l-1.86,2.8a2,2,0,0,0-.32,1.4A2.54,2.54,0,0,0,43.13,68l2,2a2.57,2.57,0,0,0,1.37.79,1.9,1.9,0,0,0,1.39-.33l2.81-1.86a2.83,2.83,0,0,1,.35.14,3,3,0,0,0,.36.15,2.34,2.34,0,0,1,.35.13l.65,3.32a2,2,0,0,0,.73,1.23A2.62,2.62,0,0,0,54.67,74Zm.18-1.5a1.1,1.1,0,0,1-.72-.2.85.85,0,0,1-.33-.59L53,67.86a11.13,11.13,0,0,1-2.41-1L47.33,69a.78.78,0,0,1-.63.13A1.36,1.36,0,0,1,46,68.8l-1.68-1.71a1.3,1.3,0,0,1-.39-.65.79.79,0,0,1,.16-.64l2.16-3.25a7,7,0,0,1-.58-1.13,10,10,0,0,1-.43-1.27l-3.83-.81a.81.81,0,0,1-.58-.33,1.26,1.26,0,0,1-.18-.72V55.84a1.29,1.29,0,0,1,.18-.71.83.83,0,0,1,.58-.35l3.83-.8a9.35,9.35,0,0,1,.43-1.26,7.88,7.88,0,0,1,.58-1.12l-2.16-3.24A.83.83,0,0,1,44,47.7a1.28,1.28,0,0,1,.39-.66L46,45.35A1.17,1.17,0,0,1,46.7,45a.88.88,0,0,1,.63.15l3.25,2.16a10.32,10.32,0,0,1,2.41-1l.81-3.83a.83.83,0,0,1,.33-.56,1.1,1.1,0,0,1,.72-.2H57.3a1.17,1.17,0,0,1,.71.2.84.84,0,0,1,.34.56l.81,3.83a9.54,9.54,0,0,1,2.37,1l3.25-2.16a1,1,0,0,1,.66-.15,1.2,1.2,0,0,1,.67.37L67.79,47a1.17,1.17,0,0,1,.37.66.94.94,0,0,1-.14.66L65.85,51.6c.2.35.39.72.57,1.12A8.23,8.23,0,0,1,66.87,54l3.83.8a.85.85,0,0,1,.56.35,1.22,1.22,0,0,1,.2.71v2.45a1.18,1.18,0,0,1-.2.72.83.83,0,0,1-.56.33l-3.83.81a8.74,8.74,0,0,1-.45,1.27,10.81,10.81,0,0,1-.57,1.13L68,65.8a.9.9,0,0,1,.14.64,1.18,1.18,0,0,1-.37.65L66.11,68.8a1.39,1.39,0,0,1-.67.36.89.89,0,0,1-.66-.13l-3.25-2.16a10.25,10.25,0,0,1-2.37,1l-.81,3.83a.86.86,0,0,1-.34.59,1.17,1.17,0,0,1-.71.2Zm1.21-9.69a5.58,5.58,0,0,0,4-1.67,5.71,5.71,0,0,0,0-8.09,5.56,5.56,0,0,0-4-1.69A5.49,5.49,0,0,0,52,53a5.72,5.72,0,0,0,0,8.08A5.48,5.48,0,0,0,56.06,62.79Zm0-1.49a4.22,4.22,0,0,1,0-8.44,4.22,4.22,0,1,1,0,8.44Z"/></g></svg>