<svg id="Layer_1" data-name="Layer 1" xmlns="http://www.w3.org/2000/svg" viewBox="0 0 75 75"><defs><style>.cls-1{fill:#989898;}</style></defs><path class="cls-1" d="M37.5,23.3A14.2,14.2,0,1,0,51.7,37.5,14.2,14.2,0,0,0,37.5,23.3ZM27.67,37.5a9.83,9.83,0,1,1,9.83,9.83A9.83,9.83,0,0,1,27.67,37.5Z"/><path class="cls-1" d="M45.36,8.37a8.2,8.2,0,0,0-15.72,0l-.41,1.4a3.82,3.82,0,0,1-4.74,2.58,3.49,3.49,0,0,1-.75-.31l-1.28-.7A8.2,8.2,0,0,0,11.35,22.46L12,23.74a3.82,3.82,0,0,1-1.52,5.18,4.09,4.09,0,0,1-.75.31l-1.4.41a8.2,8.2,0,0,0,0,15.72l1.4.41a3.82,3.82,0,0,1,2.58,4.74,3.49,3.49,0,0,1-.31.75l-.7,1.28A8.2,8.2,0,0,0,22.46,63.65L23.74,63a3.82,3.82,0,0,1,5.18,1.52,4.09,4.09,0,0,1,.31.75l.41,1.4a8.2,8.2,0,0,0,15.72,0l.41-1.4a3.82,3.82,0,0,1,4.74-2.58,3.49,3.49,0,0,1,.75.31l1.28.7A8.2,8.2,0,0,0,63.65,52.54L63,51.26a3.82,3.82,0,0,1,1.52-5.18,4.09,4.09,0,0,1,.75-.31l1.4-.41a8.2,8.2,0,0,0,0-15.72l-1.4-.41a3.82,3.82,0,0,1-2.58-4.74,3.49,3.49,0,0,1,.31-.75l.7-1.28A8.2,8.2,0,0,0,52.54,11.35L51.26,12a3.82,3.82,0,0,1-5.18-1.52,4.09,4.09,0,0,1-.31-.75ZM33.84,9.61a3.82,3.82,0,0,1,7.32,0l.41,1.4a8.2,8.2,0,0,0,10.18,5.54,8.38,8.38,0,0,0,1.61-.66l1.27-.7a3.82,3.82,0,0,1,5.18,5.18l-.7,1.28a8.2,8.2,0,0,0,3.28,11.11,8.42,8.42,0,0,0,1.61.67l1.39.41a3.82,3.82,0,0,1,0,7.32l-1.4.41a8.2,8.2,0,0,0-5.54,10.18,8.38,8.38,0,0,0,.66,1.61l.7,1.27a3.82,3.82,0,0,1-5.18,5.18l-1.27-.7a8.2,8.2,0,0,0-11.12,3.28A8.42,8.42,0,0,0,41.57,64l-.41,1.39a3.82,3.82,0,0,1-7.32,0L33.43,64a8.2,8.2,0,0,0-10.18-5.54,9,9,0,0,0-1.6.66l-1.28.7a3.82,3.82,0,0,1-5.18-5.18l.7-1.27a8.2,8.2,0,0,0-3.27-11.12A7.82,7.82,0,0,0,11,41.57l-1.4-.41a3.82,3.82,0,0,1,0-7.33l1.4-.41a8.2,8.2,0,0,0,5.54-10.18,8.88,8.88,0,0,0-.66-1.59l-.7-1.28a3.82,3.82,0,0,1,5.18-5.18l1.28.7a8.2,8.2,0,0,0,11.11-3.28,8.6,8.6,0,0,0,.67-1.6Z"/></svg>