<svg id="Layer_1" data-name="Layer 1" xmlns="http://www.w3.org/2000/svg" viewBox="0 0 75 75"><defs><style>.cls-1{fill:#06c;fill-rule:evenodd;}</style></defs><path class="cls-1" d="M37.5,9.38A13.13,13.13,0,1,0,50.63,22.51,13.13,13.13,0,0,0,37.5,9.38ZM20,22.51A17.5,17.5,0,1,1,39.69,39.87v24.2a2.19,2.19,0,0,1-4.38,0V39.87A17.49,17.49,0,0,1,20,22.5ZM30.91,60a2.19,2.19,0,0,1-1.8,2.51,24.8,24.8,0,0,0-7.24,2.16,5.79,5.79,0,0,0-1.62,1.16,1.24,1.24,0,0,0-.25.39v.05a1,1,0,0,0,.07.15,2.78,2.78,0,0,0,.63.65,12.08,12.08,0,0,0,3.56,1.73A43.88,43.88,0,0,0,37.5,70.63a43.57,43.57,0,0,0,13.23-1.81,12.08,12.08,0,0,0,3.56-1.73,2.82,2.82,0,0,0,.64-.65.94.94,0,0,0,.06-.15v-.05a1.28,1.28,0,0,0-.25-.4,6,6,0,0,0-1.62-1.15,24.8,24.8,0,0,0-7.24-2.16,2.19,2.19,0,1,1,.59-4.33l.13,0a28.68,28.68,0,0,1,8.56,2.6c2,1.06,4.21,2.81,4.21,5.44A5.55,5.55,0,0,1,57,70.53,16.21,16.21,0,0,1,52.11,73,48,48,0,0,1,37.5,75a48,48,0,0,1-14.61-2A16.21,16.21,0,0,1,18,70.53a5.55,5.55,0,0,1-2.38-4.27c0-2.62,2.19-4.38,4.21-5.44a28.68,28.68,0,0,1,8.56-2.6A2.19,2.19,0,0,1,30.91,60Z"/></svg>