<svg id="Layer_1" data-name="Layer 1" xmlns="http://www.w3.org/2000/svg" viewBox="0 0 75 75"><defs><style>.cls-1{fill:#989898;fill-rule:evenodd;}</style></defs><path class="cls-1" d="M37.5,9.37A13.13,13.13,0,1,0,50.63,22.5,13.13,13.13,0,0,0,37.5,9.37ZM20,22.5A17.5,17.5,0,1,1,39.69,39.86v24.2a2.19,2.19,0,0,1-4.38,0V39.87A17.5,17.5,0,0,1,20,22.49ZM30.91,60a2.2,2.2,0,0,1-1.8,2.52,24.84,24.84,0,0,0-7.24,2.15,6,6,0,0,0-1.62,1.16,1.28,1.28,0,0,0-.25.4h0v0a.69.69,0,0,0,.07.15,3,3,0,0,0,.63.66,12.11,12.11,0,0,0,3.56,1.72A43.57,43.57,0,0,0,37.5,70.62a43.57,43.57,0,0,0,13.23-1.81,12.37,12.37,0,0,0,3.56-1.72,3.08,3.08,0,0,0,.64-.66.67.67,0,0,0,.06-.15v0a1.24,1.24,0,0,0-.25-.39,5.79,5.79,0,0,0-1.62-1.16,24.84,24.84,0,0,0-7.24-2.15,2.19,2.19,0,0,1,.59-4.34l.13,0a29.27,29.27,0,0,1,8.56,2.6c2,1.06,4.21,2.81,4.21,5.44A5.55,5.55,0,0,1,57,70.52,16.45,16.45,0,0,1,52.11,73,48,48,0,0,1,37.5,75a48,48,0,0,1-14.61-2A16.45,16.45,0,0,1,18,70.52a5.55,5.55,0,0,1-2.38-4.27c0-2.62,2.19-4.38,4.21-5.44a29.27,29.27,0,0,1,8.56-2.6A2.2,2.2,0,0,1,30.91,60Z"/></svg>