<svg id="Layer_1" data-name="Layer 1" xmlns="http://www.w3.org/2000/svg" viewBox="0 0 75 75"><defs><style>.cls-1{fill:#06c;}</style></defs><path class="cls-1" d="M71.46,19.63A17.43,17.43,0,0,0,44.26,7.84l0,0a3.79,3.79,0,0,1-1.6.65l-8.24,1.3a4.65,4.65,0,0,0-4,4.62v6.69h-.72a3.14,3.14,0,0,0-5.95,0H21.12a2.23,2.23,0,0,0-2.23,2.22V26a3.15,3.15,0,0,0,0,5.95v.72H12.21a4.66,4.66,0,0,0-4.63,4L6.29,44.85a3.79,3.79,0,0,1-.65,1.6l0,0A17.39,17.39,0,0,0,17.41,73.68a3.54,3.54,0,0,0,5,0A17.42,17.42,0,0,0,37.33,56.44a20.71,20.71,0,0,0-4-11.34,2.44,2.44,0,0,0,.12-1.17l-1.15-7.32a4.66,4.66,0,0,0-4.63-4H20.94v-.72a3.14,3.14,0,0,0,0-5.95V23.34a.18.18,0,0,1,.18-.18h2.64a3.14,3.14,0,0,0,5.95,0h.72v6.68a4.66,4.66,0,0,0,4,4.63l7.32,1.15a2.31,2.31,0,0,0,.37,0,2.45,2.45,0,0,0,.8-.14,20.69,20.69,0,0,0,11.34,4.05A17.43,17.43,0,0,0,71.46,24.65a3.58,3.58,0,0,0,1-2.51A3.54,3.54,0,0,0,71.46,19.63ZM19.92,72.68a1.52,1.52,0,1,1,1.51-1.52A1.52,1.52,0,0,1,19.92,72.68Zm0-5.08A11.16,11.16,0,1,1,31.08,56.44,11.16,11.16,0,0,1,19.92,67.6Zm7.7-32.91a2.63,2.63,0,0,1,2.61,2.23l1.05,6.71,0,.13.5,2.78v0a18.67,18.67,0,0,1,3.48,9.88,15.38,15.38,0,0,1-11.83,15,1.93,1.93,0,0,0,0-.24,3.51,3.51,0,0,0-.53-1.87,13.19,13.19,0,0,0,6.74-21.72l-.15-.16a14.92,14.92,0,0,0-1.46-1.34,13.39,13.39,0,0,0-6.51-2.73c-.92-.07-1.54-.1-1.64-.1a13.2,13.2,0,0,0-3,26.05,3.54,3.54,0,0,0-.53,1.87,2.09,2.09,0,0,0,0,.25A15.4,15.4,0,0,1,7.28,47.67l0,0a6,6,0,0,0,1-2.48L9.6,36.92a2.63,2.63,0,0,1,2.61-2.23ZM21,29a1.11,1.11,0,1,1-1.1-1.11A1.1,1.1,0,0,1,21,29Zm5.72-5.71a1.11,1.11,0,1,1,1.1-1.11A1.11,1.11,0,0,1,26.74,23.25ZM54.22,37.51A18.73,18.73,0,0,1,44.33,34h0l-2-.49a.29.29,0,0,1-.25.07L34.7,32.45a2.63,2.63,0,0,1-2.23-2.61V14.43a2.64,2.64,0,0,1,2.23-2.61L43,10.53a6,6,0,0,0,2.48-1h0a15.34,15.34,0,0,1,23.74,9.08h-.25a3.58,3.58,0,0,0-1.87.53,13.2,13.2,0,0,0-26,3c0,.09,0,.59.08,1.35v0A13.71,13.71,0,0,0,44,30.45a7.48,7.48,0,0,0,.65.74l.35.36.38.36.24.22a13.18,13.18,0,0,0,21.46-7,3.49,3.49,0,0,0,1.87.53h.24A15.38,15.38,0,0,1,54.22,37.51ZM65.38,22.14A11.16,11.16,0,1,1,54.22,11,11.18,11.18,0,0,1,65.38,22.14Zm3.56,1.51a1.52,1.52,0,1,1,1.51-1.51A1.52,1.52,0,0,1,68.94,23.65Z"/></svg>