<svg id="Layer_1" data-name="Layer 1" xmlns="http://www.w3.org/2000/svg" viewBox="0 0 75 75"><defs><style>.cls-1{fill:#989898;fill-rule:evenodd;}</style></defs><path class="cls-1" d="M9.5,62.68V32.35h4.67V62.68A2.33,2.33,0,0,0,16.5,65h42a2.33,2.33,0,0,0,2.33-2.33V32.35H65.5V62.68a7,7,0,0,1-7,7h-42A7,7,0,0,1,9.5,62.68ZM60.83,11.35V27.68L51.5,18.35v-7A2.33,2.33,0,0,1,53.83,9H58.5A2.33,2.33,0,0,1,60.83,11.35Z"/><path class="cls-1" d="M34.2,6.69a4.65,4.65,0,0,1,6.6,0l31,31A2.34,2.34,0,0,1,68.51,41l-31-31-31,31a2.34,2.34,0,0,1-3.31-3.3Z"/></svg>