<svg id="Layer_1" data-name="Layer 1" xmlns="http://www.w3.org/2000/svg" viewBox="0 0 75 75"><defs><style>.cls-1{fill:#06c;fill-rule:evenodd;}</style></defs><path class="cls-1" d="M9.5,68V37.67h4.67V68a2.33,2.33,0,0,0,2.33,2.33h42A2.33,2.33,0,0,0,60.83,68V37.67H65.5V68a7,7,0,0,1-7,7h-42A7,7,0,0,1,9.5,68ZM60.83,16.67V33L51.5,23.67v-7a2.33,2.33,0,0,1,2.33-2.33H58.5A2.33,2.33,0,0,1,60.83,16.67Z"/><path class="cls-1" d="M34.2,12a4.65,4.65,0,0,1,6.6,0l31,31a2.34,2.34,0,0,1-3.31,3.3l-31-31-31,31A2.34,2.34,0,0,1,3.18,43Z"/></svg>