<svg id="Layer_1" data-name="Layer 1" xmlns="http://www.w3.org/2000/svg" viewBox="0 0 75 75"><defs><style>.cls-1{fill:#06c;}</style></defs><path class="cls-1" d="M16.73,33.94,8.06,42.62A19,19,0,0,0,34.88,69.44h0L46.44,57.88a19,19,0,0,0-5.23-30.53L37.5,31.06a6.22,6.22,0,0,0-1,1.26A12.64,12.64,0,0,1,42,53.42L30.42,65A12.65,12.65,0,0,1,12.53,47.08l5-5a25.35,25.35,0,0,1-.81-8.13Z"/><path class="cls-1" d="M28.56,22.12a19,19,0,0,0,5.23,30.53l4.9-4.91A12.65,12.65,0,0,1,33,26.58L44.58,15A12.65,12.65,0,0,1,62.47,32.92h0l-5,5a25.35,25.35,0,0,1,.81,8.13l8.67-8.67A19,19,0,0,0,40.12,10.56Z"/></svg>