<svg id="Layer_1" data-name="Layer 1" xmlns="http://www.w3.org/2000/svg" viewBox="0 0 75 75"><defs><style>.cls-1,.cls-2{fill:#06c;}.cls-1{fill-rule:evenodd;}</style></defs><path class="cls-1" d="M5.09,23.15A2.59,2.59,0,0,0,2.5,25.74v5.19a2.59,2.59,0,0,0,2.59,2.59h5.19a2.59,2.59,0,0,0,2.59-2.59V25.74a2.59,2.59,0,0,0-2.59-2.59Zm5.19,2.59H5.09v5.19h5.19Z"/><path class="cls-2" d="M20.65,28.33a2.59,2.59,0,0,1,2.59-2.59H69.91a2.6,2.6,0,0,1,0,5.19H23.24A2.59,2.59,0,0,1,20.65,28.33Zm2.59,18.15a2.6,2.6,0,0,0,0,5.19H69.91a2.6,2.6,0,0,0,0-5.19Zm0,20.74a2.6,2.6,0,0,0,0,5.19H69.91a2.6,2.6,0,0,0,0-5.19Z"/><path class="cls-1" d="M2.5,46.48a2.59,2.59,0,0,1,2.59-2.59h5.19a2.59,2.59,0,0,1,2.59,2.59v5.19a2.59,2.59,0,0,1-2.59,2.59H5.09A2.59,2.59,0,0,1,2.5,51.67Zm2.59,0h5.19v5.19H5.09Zm0,18.15A2.59,2.59,0,0,0,2.5,67.22v5.19A2.59,2.59,0,0,0,5.09,75h5.19a2.59,2.59,0,0,0,2.59-2.59V67.22a2.59,2.59,0,0,0-2.59-2.59Zm5.19,2.59H5.09v5.19h5.19Z"/></svg>