<svg id="Layer_1" data-name="Layer 1" xmlns="http://www.w3.org/2000/svg" viewBox="0 0 75 75"><defs><style>.cls-1,.cls-2{fill:#06c;}.cls-1{fill-rule:evenodd;}</style></defs><path class="cls-1" d="M5.09,11.57a2.59,2.59,0,0,0-2.59,2.6v5.18a2.59,2.59,0,0,0,2.59,2.59h5.19a2.59,2.59,0,0,0,2.59-2.59V14.17a2.59,2.59,0,0,0-2.59-2.6Zm5.19,2.6H5.09v5.18h5.19Z"/><path class="cls-2" d="M20.65,16.76a2.59,2.59,0,0,1,2.59-2.59H69.91a2.59,2.59,0,1,1,0,5.18H23.24A2.59,2.59,0,0,1,20.65,16.76Zm2.59,18.15a2.59,2.59,0,1,0,0,5.18H69.91a2.59,2.59,0,0,0,0-5.18Zm0,20.74a2.59,2.59,0,1,0,0,5.18H69.91a2.59,2.59,0,0,0,0-5.18Z"/><path class="cls-1" d="M2.5,34.91a2.6,2.6,0,0,1,2.59-2.6h5.19a2.6,2.6,0,0,1,2.59,2.6v5.18a2.6,2.6,0,0,1-2.59,2.6H5.09a2.6,2.6,0,0,1-2.59-2.6Zm2.59,0h5.19v5.18H5.09Zm0,18.15A2.59,2.59,0,0,0,2.5,55.65v5.18a2.59,2.59,0,0,0,2.59,2.6h5.19a2.59,2.59,0,0,0,2.59-2.6V55.65a2.59,2.59,0,0,0-2.59-2.59Zm5.19,2.59H5.09v5.18h5.19Z"/></svg>