<svg id="Layer_1" data-name="Layer 1" xmlns="http://www.w3.org/2000/svg" viewBox="0 0 75 75"><defs><style>.cls-1{fill:#989898;}</style></defs><path class="cls-1" d="M38.42,7.08a2.19,2.19,0,0,0-1.84,0L3.76,22.39a2.18,2.18,0,0,0-1,2.91,2.15,2.15,0,0,0,1.16,1.1L36.69,39.53a2.16,2.16,0,0,0,1.62,0L63.75,29.36V55a4.38,4.38,0,0,0-4.38,4.37v8.76H72.5V59.37A4.38,4.38,0,0,0,68.12,55V27.61l3-1.21a2.18,2.18,0,0,0,1.21-2.84,2.21,2.21,0,0,0-1.1-1.17ZM37.5,35.14,10.19,24.22,37.5,11.48,64.81,24.22Z"/><path class="cls-1" d="M20.77,37.64A2.18,2.18,0,0,0,18,38.92a.88.88,0,0,0-.05.15l-2.19,7.44A2.17,2.17,0,0,0,17,49.15L36.69,57a2.16,2.16,0,0,0,1.62,0L58,49.15a2.17,2.17,0,0,0,1.29-2.64L57.1,39.07a2.18,2.18,0,0,0-2.71-1.48l-.16,0L37.5,43.91Zm-.3,8.19,1-3.27,15.3,5.74a2.26,2.26,0,0,0,1.54,0l15.3-5.74,1,3.27-17,6.81-17-6.81Z"/></svg>