<svg id="Layer_1" data-name="Layer 1" xmlns="http://www.w3.org/2000/svg" viewBox="0 0 75 75"><defs><style>.cls-1{fill:#06c;}</style></defs><path class="cls-1" d="M38.42,14a2.19,2.19,0,0,0-1.84,0L3.76,29.27a2.19,2.19,0,0,0,.11,4L36.69,46.4a2.16,2.16,0,0,0,1.62,0L63.75,36.24V61.87a4.38,4.38,0,0,0-4.38,4.38V75H72.5V66.25a4.38,4.38,0,0,0-4.38-4.38V34.48l3-1.2a2.19,2.19,0,0,0,.11-4ZM37.5,42,10.19,31.1,37.5,18.35,64.81,31.1Z"/><path class="cls-1" d="M20.77,44.51A2.2,2.2,0,0,0,18,45.79a.88.88,0,0,0-.05.15l-2.19,7.44A2.19,2.19,0,0,0,17,56L36.69,63.9a2.16,2.16,0,0,0,1.62,0L58,56a2.19,2.19,0,0,0,1.29-2.65L57.1,45.94a2.19,2.19,0,0,0-2.71-1.48l-.16,0L37.5,50.79Zm-.3,8.2,1-3.27,15.3,5.73a2.15,2.15,0,0,0,1.54,0l15.3-5.73,1,3.27-17,6.8-17-6.81Z"/></svg>