<svg id="Layer_1" data-name="Layer 1" xmlns="http://www.w3.org/2000/svg" viewBox="0 0 75 75"><defs><style>.cls-1{fill:#989898;}</style></defs><path class="cls-1" d="M68.12,75s4.38,0,4.38-4.38-4.38-17.5-21.88-17.5S28.75,66.25,28.75,70.62,33.12,75,33.12,75Zm-34.9-4.38h-.1a13.52,13.52,0,0,1,3.33-7.53c2.42-2.83,6.66-5.58,14.17-5.58s11.76,2.76,14.18,5.58a13.44,13.44,0,0,1,3.32,7.53H33.22Zm17.4-26.24a8.75,8.75,0,1,0-8.74-8.76A8.76,8.76,0,0,0,50.62,44.38Zm13.13-8.76A13.13,13.13,0,1,1,50.62,22.5,13.13,13.13,0,0,1,63.75,35.62ZM32.84,54.35a25.92,25.92,0,0,0-5.38-1.08c-1-.1-2.05-.15-3.08-.15C6.88,53.12,2.5,66.25,2.5,70.62Q2.5,75,6.88,75H25.32a9.74,9.74,0,0,1-.94-4.38,20.07,20.07,0,0,1,4.76-12.7A23.67,23.67,0,0,1,32.84,54.35ZM24,57.5a24,24,0,0,0-4,13.12H6.88a13.41,13.41,0,0,1,3.32-7.54C12.58,60.3,16.73,57.59,24,57.5Zm-15-19.69A13.13,13.13,0,1,1,22.19,50.94,13.12,13.12,0,0,1,9.06,37.81Zm13.13-8.75a8.75,8.75,0,1,0,8.75,8.75A8.75,8.75,0,0,0,22.19,29.06Z"/></svg>