<svg id="Layer_1" data-name="Layer 1" xmlns="http://www.w3.org/2000/svg" viewBox="0 0 75 75"><defs><style>.cls-1{fill:#989898;}</style></defs><path class="cls-1" d="M37.5,70.62A30.62,30.62,0,1,1,68.12,40,30.62,30.62,0,0,1,37.5,70.62Zm0,4.38a35,35,0,1,0-35-35A35,35,0,0,0,37.5,75Z"/><path class="cls-1" d="M25.64,30.37a1,1,0,0,0,1,1.08H30.3a1.22,1.22,0,0,0,1.17-1.1,5.46,5.46,0,0,1,5.87-5c3,0,5.75,1.5,5.75,5.11,0,2.78-1.64,4.06-4.23,6-2.94,2.14-5.27,4.64-5.11,8.69l0,1a1.09,1.09,0,0,0,1.09,1.08h3.55a1.09,1.09,0,0,0,1.09-1.09v-.46c0-3.15,1.2-4.06,4.42-6.51,2.67-2,5.44-4.27,5.44-9,0-6.61-5.58-9.8-11.69-9.8C32.13,20.37,26.05,23,25.64,30.37Zm6.81,25.21a4.12,4.12,0,0,0,4.42,4.05c2.66,0,4.5-1.72,4.5-4.05s-1.84-4.11-4.51-4.11A4.11,4.11,0,0,0,32.45,55.58Z"/></svg>