<svg id="Layer_1" data-name="Layer 1" xmlns="http://www.w3.org/2000/svg" viewBox="0 0 75 75"><defs><style>.cls-1{fill:#06c;}</style></defs><path class="cls-1" d="M8.33,16.67C8.33,10.22,21.39,5,37.5,5s29.17,5.22,29.17,11.67V22.5c0,6.44-13.06,11.67-29.17,11.67S8.33,28.94,8.33,22.5Z"/><path class="cls-1" d="M8.33,32.71V45.84c0,6.43,13.06,11.66,29.17,11.66s29.17-5.22,29.17-11.67V32.71a28.76,28.76,0,0,1-6.38,3.46C54.17,38.62,46.11,40,37.5,40s-16.66-1.39-22.78-3.83a28.54,28.54,0,0,1-6.38-3.46Z"/><path class="cls-1" d="M66.67,56.05a28.32,28.32,0,0,1-6.38,3.45C54.16,62,46.11,63.33,37.5,63.33S20.83,62,14.71,59.5A28.76,28.76,0,0,1,8.33,56v7.29C8.33,69.78,21.39,75,37.5,75s29.17-5.22,29.17-11.67Z"/></svg>