<svg id="Layer_1" data-name="Layer 1" xmlns="http://www.w3.org/2000/svg" viewBox="0 0 75 75"><defs><style>.cls-1{fill:#06c;}</style></defs><path class="cls-1" d="M8.33,14.17C8.33,7.72,21.39,2.5,37.5,2.5S66.67,7.72,66.67,14.17V20c0,6.44-13.06,11.67-29.17,11.67S8.33,26.44,8.33,20Z"/><path class="cls-1" d="M8.33,30.21V43.34C8.33,49.77,21.39,55,37.5,55s29.17-5.22,29.17-11.67V30.21a28.76,28.76,0,0,1-6.38,3.46C54.17,36.12,46.11,37.5,37.5,37.5s-16.66-1.39-22.78-3.83a28.54,28.54,0,0,1-6.38-3.46Z"/><path class="cls-1" d="M66.67,53.55A28.32,28.32,0,0,1,60.29,57c-6.13,2.45-14.18,3.83-22.79,3.83S20.83,59.45,14.71,57a28.76,28.76,0,0,1-6.38-3.46v7.29c0,6.45,13.06,11.67,29.17,11.67s29.17-5.22,29.17-11.67Z"/></svg>