<svg id="Layer_1" data-name="Layer 1" xmlns="http://www.w3.org/2000/svg" viewBox="0 0 75 75"><defs><style>.cls-1{fill:#989898;}</style></defs><path class="cls-1" d="M2.5,13.75A8.75,8.75,0,0,1,11.25,5h52.5a8.75,8.75,0,0,1,8.75,8.75v52.5A8.75,8.75,0,0,1,63.75,75H11.25A8.75,8.75,0,0,1,2.5,66.25ZM68.12,22.5H50.62V35.62h17.5Zm0,17.5H50.62V53.12h17.5Zm0,17.5H50.62V70.62H63.75a4.36,4.36,0,0,0,4.37-4.37ZM46.25,70.62V57.5H28.75V70.62Zm-21.87,0V57.5H6.88v8.75a4.36,4.36,0,0,0,4.37,4.37ZM6.88,53.12h17.5V40H6.88Zm0-17.5h17.5V22.5H6.88ZM28.75,22.5V35.62h17.5V22.5ZM46.25,40H28.75V53.12h17.5Z"/></svg>