<svg id="Layer_1" data-name="Layer 1" xmlns="http://www.w3.org/2000/svg" viewBox="0 0 75 75"><defs><style>.cls-1{fill:#06c;}</style></defs><path class="cls-1" d="M2.5,11.25A8.75,8.75,0,0,1,11.25,2.5h52.5a8.75,8.75,0,0,1,8.75,8.75v52.5a8.75,8.75,0,0,1-8.75,8.75H11.25A8.75,8.75,0,0,1,2.5,63.75ZM68.12,20H50.62V33.12h17.5Zm0,17.5H50.62V50.62h17.5Zm0,17.5H50.62V68.12H63.75a4.36,4.36,0,0,0,4.37-4.37ZM46.25,68.12V55H28.75V68.12Zm-21.87,0V55H6.88v8.75a4.36,4.36,0,0,0,4.37,4.37ZM6.88,50.62h17.5V37.5H6.88Zm0-17.5h17.5V20H6.88ZM28.75,20V33.12h17.5V20Zm17.5,17.5H28.75V50.62h17.5Z"/></svg>